<svg xmlns="http://www.w3.org/2000/svg" viewBox="9 0 132 132">
  <path fill="#059B58" d="M32.3,132.3l42.5-73.6c0,0-12.2-21.7-18.6-32.5c-0.8-1.4-2-3.7-3.1-5.4c-0.9-1.4-1.5-2.5-1.5-2.5s-0.1-0.1-0.2,0C37.3,43.1,9,93,9,93L32.3,132.3z"/>
  <polygon fill="#476FB6" points="32.3,132.2 116.7,132.2 141.1,93.3 54.9,93.2"/>
  <polygon fill="#FDCE39" points="51.7,18.3 98.5,18.3 141.2,93.3 94.5,93.3"/>
  <polygon fill="#436BB4" opacity=".6" points="32.3,132.3 73.3,93.4 54.8,93.4"/>
  <path fill="#EDC534" opacity=".6" d="M98.8,93.4c14.1,0.1,42.4,0,42.4,0L85.4,77.2l9.2,16.2C94.6,93.4,97.4,93.3,98.8,93.4z"/>
  <polygon fill="#079557" opacity=".7" points="75,59 65.4,74.5 51.7,18.3"/>
</svg>
