<svg xmlns="http://www.w3.org/2000/svg" viewBox="0 0 45555 33097">
  <path fill="#e75a4d" d="M41608 250c2030,0 3691,1661 3691,3691l0 1070 -5128 3663 -17458 12026 -17458 -12148 0 24295 -1314 0c-2030,0 -3691,-1661 -3691,-3691l0 -25214c0,-2030 1661,-3691 3691,-3691l18772 13918 18894 -13918z"/>
  <polygon fill="#e7e4d7" points="5255,8552 5255,32847 40172,32847 40172,8674 22713,20700"/>
  <polygon fill="#b8b7ae" points="5255,32847 22713,20700 22634,20644 5255,32580"/>
  <polygon fill="#b7b6ad" points="40172,8674 40182,32847 22713,20700"/>
  <path fill="#b2392f" d="M45299 5011l6 24148c-88,2684 -1251,3642 -5123,3687l-10 -24173 5128 -3663z"/>
  <polygon fill="#f7f5ed" points="3941,250 22713,14168 41608,250"/>
</svg>
