<svg viewBox="0 0 116 132" xmlns="http://www.w3.org/2000/svg">
  <g stroke="none" stroke-width="1" fill="none" fill-rule="evenodd">
    <path d="M86.3,0 L6,0 L6,132 L110,132 L110,23.8 L86.3,0 Z" fill="#E2E2E2"></path>
    <path d="M110,23.9 L86.3,23.9 L86.3,0 L110,23.9 Z" fill="#F4F4F4"></path>
    <path d="M86.3,23.9 L110,46.7 L110,23.9 L86.3,23.9 Z" fill="#CCC"></path>
    <path d="M0,7 L70,7 L70,36 L0,36 L0,7 Z" fill="#F12E15"></path>
    <path d="M14.2,30.7 L14.2,11.6 L20.3,11.6 C22.3,11.6 23.7,12 24.6,12.8 C25.5,13.6 25.9,14.9 25.9,16.7 C25.9,18.7 25.3,20.3 24.2,21.5 C23,22.6 21.4,23.2 19.4,23.2 L17.9,23.2 L17.9,30.7 L14.2,30.7 Z M17.9,20.6 L18.6,20.6 C19.8,20.6 20.7,20.3 21.4,19.7 C22.1,19 22.4,18.2 22.4,17.1 C22.4,15.2 21.3,14.2 19.3,14.2 L17.9,14.2 L17.9,20.6 Z M29,30.7 L29,11.6 L34.7,11.6 C37.2,11.6 39,12.4 40.3,14 C41.6,15.5 42.3,17.8 42.3,20.8 C42.3,23.9 41.6,26.3 40.2,28.1 C38.8,29.8 36.9,30.7 34.4,30.7 L29,30.7 Z M32.8,28 L34.5,28 C36,28 37.1,27.4 37.8,26.3 C38.5,25.1 38.9,23.3 38.9,21 C38.9,19.2 38.6,17.6 38,16.4 C37.6,15.6 37.1,15 36.6,14.7 C36,14.4 35.2,14.2 34.1,14.2 L32.8,14.2 L32.8,28 Z M46,30.7 L46,11.6 L56.8,11.6 L56.8,14.2 L49.8,14.2 L49.8,20 L55.5,20 L55.5,22.7 L49.8,22.7 L49.8,30.7 L46,30.7 Z" fill="#FFFFFF"></path>
    <path d="M64,126.9 L61.1,126.9 L60,122.5 L54.8,122.5 L53.7,126.9 L50.9,126.9 L56,107.6 L58.8,107.6 L64,126.9 Z M59.1,119.3 L57.3,112.1 L55.6,119.3 L59.1,119.3 Z M74,126.9 L71.6,126.9 L71.6,124.8 C71.3,125.6 70.8,126.2 70.3,126.6 C69.8,127 69.2,127.2 68.7,127.2 C67.6,127.2 66.7,126.6 65.9,125.3 C65.2,124 64.8,122.2 64.8,119.8 C64.8,117.4 65.1,115.6 65.9,114.4 C66.7,113.2 67.6,112.6 68.7,112.6 C69.3,112.6 69.7,112.8 70.2,113.1 C70.7,113.4 71.1,113.9 71.5,114.6 L71.5,107.6 L74,107.6 L74,126.9 Z M67.3,119.6 C67.3,120.9 67.4,121.8 67.6,122.4 C67.8,123 68,123.5 68.3,123.8 C68.7,124.1 69,124.3 69.4,124.3 C70,124.3 70.5,123.9 70.9,123.2 C71.3,122.5 71.5,121.4 71.5,120 C71.5,118.3 71.3,117.2 70.9,116.5 C70.5,115.8 70,115.4 69.4,115.4 C68.8,115.4 68.3,115.8 67.9,116.5 C67.5,117.2 67.3,118.2 67.3,119.6 L67.3,119.6 Z M75.8,119.7 C75.8,118.3 76.1,117.1 76.5,116 C76.9,114.8 77.5,114 78.2,113.4 C79,112.9 79.8,112.6 80.7,112.6 C82.2,112.6 83.4,113.3 84.2,114.8 C85.1,116.2 85.5,117.9 85.5,119.8 C85.5,121.3 85.3,122.6 84.9,123.7 C84.4,124.9 83.8,125.7 83.1,126.3 C82.4,126.9 81.6,127.2 80.7,127.2 C79.3,127.2 78.1,126.5 77.2,125.2 C76.3,124 75.8,122.1 75.8,119.7 L75.8,119.7 Z M78.4,119.9 C78.4,121.3 78.6,122.4 79.1,123.1 C79.5,123.8 80.1,124.2 80.7,124.2 C81.3,124.2 81.9,123.8 82.3,123.1 C82.8,122.4 83,121.3 83,119.9 C83,118.5 82.8,117.4 82.3,116.7 C81.8,116 81.3,115.6 80.7,115.6 C80,115.6 79.5,116 79.1,116.7 C78.6,117.4 78.4,118.5 78.4,119.9 L78.4,119.9 Z M87.4,126.9 L87.4,107.6 L89.9,107.6 L89.9,114.6 C90.2,113.9 90.7,113.4 91.1,113.1 C91.6,112.8 92.1,112.6 92.6,112.6 C93.7,112.6 94.6,113.2 95.4,114.4 C96.2,115.7 96.6,117.4 96.6,119.8 C96.6,122.2 96.2,124 95.4,125.3 C94.6,126.6 93.7,127.2 92.6,127.2 C92.1,127.2 91.5,127 91,126.6 C90.5,126.2 90.1,125.6 89.7,124.8 L89.7,126.9 L87.4,126.9 Z M89.8,119.6 C89.8,120.8 89.9,121.7 90.1,122.3 C90.3,123 90.6,123.5 90.9,123.8 C91.3,124.1 91.6,124.3 92,124.3 C92.6,124.3 93,123.9 93.4,123.2 C93.8,122.5 94,121.4 94,119.9 C94,118.3 93.8,117.2 93.4,116.5 C93,115.8 92.5,115.4 91.9,115.4 C91.3,115.4 90.9,115.8 90.5,116.5 C90,117.1 89.8,118.2 89.8,119.6 L89.8,119.6 Z M104,122.4 L106.5,123.1 C106.2,124.5 105.7,125.5 105,126.2 C104.3,126.9 103.4,127.2 102.4,127.2 C101,127.2 99.9,126.6 99.2,125.5 C98.3,124.2 97.8,122.3 97.8,120 C97.8,117.6 98.3,115.8 99.2,114.4 C100,113.2 100.9,112.6 102.2,112.6 C103.5,112.6 104.6,113.2 105.3,114.4 C106.2,115.8 106.6,117.8 106.6,120.5 L106.6,121 L100.4,121 C100.4,122.1 100.6,122.9 101,123.5 C101.4,124.1 101.9,124.4 102.4,124.4 C103.2,124.4 103.8,123.8 104,122.4 L104,122.4 Z M104.2,118.7 C104.1,117.6 104,116.8 103.6,116.3 C103.2,115.7 102.8,115.4 102.3,115.4 C101.8,115.4 101.3,115.7 101,116.3 C100.6,116.9 100.4,117.7 100.4,118.7 L104.2,118.7 Z" fill="#424242"></path>
    <g transform="translate(18, 38.6)">
      <path d="M14,61.2 C5.9,67.6 0.3,76.6 2.6,78 L0.6,77 C-0.5,75.5 2,67.9 14,61.2 L14,61.2 Z" fill="#F12E15" stroke="#F12E15" stroke-width=".5"></path>
      <path d="M75,54.2 C79.1,44.9 45,46.3 20,58.4 C39.4,50.6 75.4,47.2 75,54.2 L75,54.2 Z" fill="#F12E15" stroke="#F12E15" stroke-width=".5"></path>
      <path d="M36.3,5 C37.3,-0.1 34.9,0 34.2,0 L32.7,0 C31.8,0 31.1,0.7 30.7,2.1 C28.3,11.4 32.6,34.8 44.7,45.6 C55.4,55.2 73.9,59.6 74.6,55 C70.8,56.9 56.3,52 46.6,43.9 C35.1,34.1 30.2,9.8 32.6,2.2 C32.9,1.4 33.5,0.5 33.8,0.3 C34.8,0.9 36,2.2 36.3,5 L36.3,5 Z" fill="#F12E15" stroke="#F12E15" stroke-width="0.5"></path>
      <path d="M36.1,6.5 C35.1,11.9 34.6,24.8 24.6,45.9 C13.8,68.6 5.9,79.2 0.6,77 L2.5,78 C6.6,80.2 14.2,72.9 26.7,47.7 C36.4,28.2 35.9,18.2 36.1,6.5 L36.1,6.5 Z" fill="#F12E15" stroke="#F12E15" stroke-width="0.5"></path>
    </g>
  </g>
</svg>
