<svg viewBox="0 0 104 132" xmlns="http://www.w3.org/2000/svg">
  <path d="M80,0 L0,0 L0,132 L104,132 L104,24 L80,0 Z" fill="#F7C016"></path>
  <path d="M104,24 L80,24 L80,0 L104,24 Z" fill="#FFE571"></path>
  <path d="M80,24 L104,46.9 L104,24 L80,24 Z" fill="#DFAE26"></path>
  <path d="M21,40 L21,74.5 L62.2,74.5 L62.2,40 L21,40 L21,40 Z M57.8,67 L25.4,67 L25.4,47.4 L57.8,47.4 L57.8,67 L57.8,67 Z" fill="#fff"></path>
  <path d="M58.2,57.2 L58.2,64.6 L78.8,64.6 L78.8,84.3 L46.4,84.3 L46.4,67 L42,67 L42,91.7 L83.2,91.7 L83.2,57.2 L58.2,57.2 Z" fill="#fff"></path>
</svg>
