<?xml version="1.0" encoding="utf-8"?>
<!-- Generator: Adobe Illustrator 18.0.0, SVG Export Plug-In . SVG Version: 6.00 Build 0)  -->
<!DOCTYPE svg PUBLIC "-//W3C//DTD SVG 1.1//EN" "http://www.w3.org/Graphics/SVG/1.1/DTD/svg11.dtd">
<svg version="1.1" id="Layer_2" xmlns="http://www.w3.org/2000/svg" xmlns:xlink="http://www.w3.org/1999/xlink" x="0px" y="0px"
	 viewBox="0 0 90 120" enable-background="new 0 0 90 120" xml:space="preserve">
<g>
	<path fill-rule="evenodd" clip-rule="evenodd" fill="#FFFFFF" stroke="#C3D8F5" stroke-width="2" stroke-miterlimit="10" d="
		M27.3,10.6h43.1c10,0,18.1,8.1,18.1,18.1v70.7c0,10-8.1,18.1-18.1,18.1H27.3c-10,0-18.1-8.1-18.1-18.1V28.7
		C9.1,18.7,17.3,10.6,27.3,10.6z"/>
	<path fill-rule="evenodd" clip-rule="evenodd" fill="#F5F5F5" stroke="#7DADEF" stroke-width="2" stroke-miterlimit="10" d="
		M19,2.1h41.1c10,0,18.1,8.1,18.1,18.1v70.7c0,10-8.1,18.1-18.1,18.1H19c-10,0-18.1-8.1-18.1-18.1V20.2C0.9,10.2,9,2.1,19,2.1z"/>
	<g>
		<path fill-rule="evenodd" clip-rule="evenodd" fill="#7DADEF" d="M57.9,63.4H46.1v11.8c0,3.3-2.6,5.9-5.9,5.9s-5.9-2.6-5.9-5.9
			V63.4H22.5c-3.3,0-5.9-2.6-5.9-5.9c0-3.3,2.6-5.9,5.9-5.9h11.8V39.8c0-3.3,2.6-5.9,5.9-5.9s5.9,2.6,5.9,5.9v11.8h11.8
			c3.3,0,5.9,2.6,5.9,5.9C63.8,60.8,61.1,63.4,57.9,63.4z"/>
	</g>
</g>
</svg>
