<svg version="1.1" id="Layer_1_copy" xmlns="http://www.w3.org/2000/svg" xmlns:xlink="http://www.w3.org/1999/xlink" x="0px"
  y="0px" viewBox="0 0 27 35" enable-background="new 0 0 27 35" xml:space="preserve">
<g>
 <path fill="#FFFFFF" stroke="#D3D3D3" stroke-miterlimit="10" d="M22.2,34H3.8c-1.3,0-2.3-1-2.3-2.3V4.3C1.5,3,2.5,2,3.8,2h18.4
  c1.3,0,2.3,1,2.3,2.3v27.4C24.5,33,23.5,34,22.2,34z"/>
 <path fill="#333333" d="M20.7,32H2.3C1,32,0,31,0,29.7L0,2.3C0,1,1,0,2.3,0l18.4,0C22,0,23,1,23,2.3v27.4C23,31,22,32,20.7,32z"/>
 <path fill-rule="evenodd" clip-rule="evenodd" fill="#FFFFFF" d="M17.3,14.5h-3.8v-3.7c0-0.7-0.7-1.3-1.5-1.3s-1.5,0.6-1.5,1.3v3.7
  H6.6c-0.8,0-1.1,0.8-1.1,1.6v0c0,0.7,0.3,1.4,1.1,1.4h3.9v3.7c0,0.7,0.7,1.3,1.5,1.3s1.5-0.6,1.5-1.3v-3.7h3.8
  c0.8,0,1.2-0.7,1.2-1.5v0C18.5,15.3,18.1,14.5,17.3,14.5z"/>
</g>
</svg>
