<?xml version="1.0" encoding="UTF-8" standalone="no"?>
<svg width="512px" height="512px" viewBox="0 0 512 512" version="1.1" xmlns="http://www.w3.org/2000/svg" xmlns:xlink="http://www.w3.org/1999/xlink">
    <defs></defs>
    <g id="Page-1" stroke="none" stroke-width="1" fill="none" fill-rule="evenodd">
        <g id="add-collaborators">
            <g id="Guide" transform="translate(-3.000000, -3.000000)"></g>
            <path d="M182.134266,253 C197.099726,245.782388 212.398893,242.250715 224.072098,242.250715 C255.620759,242.250715 320.573884,271.171439 322.429687,332.627978 L322.429687,394.084516 L254,394.084516 L254,376.439495 L254,334.97589 L254,313.97589 L233,313.97589 L194.638903,313.975891 L194.638901,274 L194.638901,253 L182.134266,253 Z M127.570312,392.467051 L127.570312,394.084516 L129.187778,394.084516 L127.570312,392.467051 Z" id="Shape-Copy" fill="#909090"></path>
            <path d="M298.222884,252.50626 C312.856011,245.621286 327.720423,242.250715 339.124277,242.250715 C370.672937,242.250715 435.626062,271.171439 437.481866,332.627978 L437.481866,394.084516 L299.526089,394.084516 L356.429687,394.084516 L356.429687,332.627978 C355.207431,292.151909 326.615391,265.788932 298.222884,252.50626 Z" id="Shape-Copy-2" fill="#909090"></path>
            <path d="M225,212 C251.179332,212 270.377509,192.247432 270.377509,167.107799 C270.377509,141.968166 251.179332,122.215598 225,122.215598 C198.820668,122.215598 179.622491,141.968166 179.622491,167.107799 C179.622491,192.247432 198.820668,212 225,212 L225,212 Z" id="Path-Copy-2" fill="#909090"></path>
            <path d="M340.052178,212 C366.231511,212 385.429687,192.247432 385.429687,167.107799 C385.429687,141.968166 366.231511,122.215598 340.052178,122.215598 C313.872846,122.215598 294.674669,141.968166 294.674669,167.107799 C294.674669,192.247432 313.872846,212 340.052178,212 L340.052178,212 Z" id="Path-Copy-3" fill="#909090"></path>
            <path d="M233,334.97589 L173.638901,334.97589 L173.638901,274 L132.542756,274 L132.542756,334.97589 L73.1816578,334.97589 L73.1816578,376.439495 L132.542756,376.439495 L132.542756,437.415384 L173.638901,437.415384 L173.638901,376.439495 L233,376.439495 L233,334.97589 L233,334.97589 Z" id="Path-Copy" fill="#909090"></path>
        </g>
    </g>
</svg>