<?xml version="1.0" encoding="utf-8"?>
<!-- Generator: Adobe Illustrator 18.1.0, SVG Export Plug-In . SVG Version: 6.00 Build 0) -->
<!DOCTYPE svg PUBLIC "-//W3C//DTD SVG 1.1//EN" "http://www.w3.org/Graphics/SVG/1.1/DTD/svg11.dtd">
<svg version="1.1" id="Layer_1" xmlns="http://www.w3.org/2000/svg" xmlns:xlink="http://www.w3.org/1999/xlink" x="0px" y="0px"
  viewBox="0 0 15 15" enable-background="new 0 0 15 15" xml:space="preserve">
<path fill-rule="evenodd" clip-rule="evenodd" fill="#919191" d="M3.4,4.4C4,4.4,4.4,4,4.4,3.4S4,2.5,3.4,2.5
 c-0.5,0-0.9,0.4-0.9,0.9S2.9,4.4,3.4,4.4z M3.4,5C4.3,5,5,4.3,5,3.4c0-0.9-0.7-1.6-1.6-1.6c-0.9,0-1.6,0.7-1.6,1.6
 C1.9,4.3,2.6,5,3.4,5z M5.9,0.6H1.3c-0.3,0-0.6,0.3-0.6,0.6v4.7l8.2,8.2c0.2,0.2,0.6,0.2,0.9,0l4.5-4.5c0.2-0.2,0.2-0.6,0-0.9
 L5.9,0.6z M6.3,0h-5C0.6,0,0,0.6,0,1.3v5l8.4,8.4c0.5,0.5,1.3,0.5,1.8,0l4.5-4.5c0.5-0.5,0.5-1.3,0-1.8L6.3,0z"/>
<circle fill-rule="evenodd" clip-rule="evenodd" fill="#FFFFFF" cx="4.4" cy="10.2" r="2.6"/>
<path fill-rule="evenodd" clip-rule="evenodd" fill="#919191" d="M4.4,13.5C2.5,13.5,1,12,1,10.2c0-1.9,1.5-3.4,3.4-3.4
 s3.4,1.5,3.4,3.4C7.7,12,6.2,13.5,4.4,13.5z M4.4,7.5c-1.4,0-2.6,1.2-2.6,2.6c0,1.4,1.2,2.6,2.6,2.6c1.4,0,2.6-1.2,2.6-2.6
 C7,8.7,5.8,7.5,4.4,7.5z M4.7,10.5V12H4v-1.5H2.5V9.8H4V8.3h0.7v1.5h1.5v0.8H4.7z"/>
</svg>