<?xml version="1.0" encoding="UTF-8" standalone="no"?>
<!-- Generator: Avocode 0.4.0 - http://avocode.com -->
<svg xmlns="http://www.w3.org/2000/svg" xmlns:xlink="http://www.w3.org/1999/xlink" width="27" height="22" view-box="0 0 27 22">
    <desc>Created with Avocode</desc>
    <path d="M 1.34 12.37 C 0.6 12.37, -0.01 11.76, -0.01 11 C -0.01 10.24, 0.6 9.63, 1.34 9.63 L 22.38 9.63 L 15.23 2.35 C 14.71 1.82, 14.71 0.95, 15.23 0.41 C 15.5 0.14, 15.84 0.01, 16.19 0.01 C 16.53 0.01, 16.88 0.14, 17.14 0.41 L 26.59 10.03 C 27.11 10.56, 27.11 11.43, 26.59 11.97 L 17.14 21.59 C 16.61 22.13, 15.76 22.13, 15.23 21.59 C 14.71 21.05, 14.71 20.18, 15.23 19.65 L 22.37 12.37 L 1.34 12.37 Z" fill="#d8dee6" />
</svg>
