<svg viewBox="0 2 23 16" xmlns="http://www.w3.org/2000/svg">
  <path fill="#56B362" d="M21.2142857,15.6 L7.07142857,15.6 C6.63692857,15.6 6.28571429,15.9584 6.28571429,16.4 C6.28571429,16.8424 6.63692857,17.2 7.07142857,17.2 L21.2142857,17.2 C21.6487857,17.2 22,16.8424 22,16.4 C22,15.9584 21.6487857,15.6 21.2142857,15.6 L21.2142857,15.6 Z M1.57142857,2 C0.704,2 0,2.7168 0,3.6 C0,4.4832 0.704,5.2 1.57142857,5.2 C2.43885714,5.2 3.14285714,4.4832 3.14285714,3.6 C3.14285714,2.7168 2.43885714,2 1.57142857,2 L1.57142857,2 Z M7.07142857,4.4 L21.2142857,4.4 C21.6487857,4.4 22,4.0424 22,3.6 C22,3.1576 21.6487857,2.8 21.2142857,2.8 L7.07142857,2.8 C6.63692857,2.8 6.28571429,3.1576 6.28571429,3.6 C6.28571429,4.0424 6.63692857,4.4 7.07142857,4.4 L7.07142857,4.4 Z M21.2142857,9.2 L7.07142857,9.2 C6.63692857,9.2 6.28571429,9.5584 6.28571429,10 C6.28571429,10.4424 6.63692857,10.8 7.07142857,10.8 L21.2142857,10.8 C21.6487857,10.8 22,10.4424 22,10 C22,9.5584 21.6487857,9.2 21.2142857,9.2 L21.2142857,9.2 Z M1.57142857,8.4 C0.704,8.4 0,9.1168 0,10 C0,10.8832 0.704,11.6 1.57142857,11.6 C2.43885714,11.6 3.14285714,10.8832 3.14285714,10 C3.14285714,9.1168 2.43885714,8.4 1.57142857,8.4 L1.57142857,8.4 Z M1.57142857,14.8 C0.704,14.8 0,15.5168 0,16.4 C0,17.2832 0.704,18 1.57142857,18 C2.43885714,18 3.14285714,17.2832 3.14285714,16.4 C3.14285714,15.5168 2.43885714,14.8 1.57142857,14.8 L1.57142857,14.8 Z"/>
</svg>
