<svg viewBox="0 0 32 28" xmlns="http://www.w3.org/2000/svg">
  <path fill="#fff" fill-rule="evenodd" d="M26.9798679,4 L29.0038998,4 C30.6657405,4 32,5.33915679 32,6.99109042 L32,25.0089096 C32,26.6582294 30.6586002,28 29.0038998,28 L2.99610022,28 C1.33425951,28 0,26.6608432 0,25.0089096 L0,6.99109042 C0,5.34177063 1.34139976,4 2.99610022,4 L5.02013206,4 L5.26469106,3.00166547 C5.67198428,1.33902013 7.34054993,0 8.99420208,0 L23.0057979,0 C24.656688,0 26.329209,1.34389141 26.7353089,3.00166547 L26.9798679,4 Z M16.0007811,23.0015622 C20.4194905,23.0015622 24.0015622,19.4194905 24.0015622,15.0007811 C24.0015622,10.5820717 20.4194905,7 16.0007811,7 C11.5820717,7 8,10.5820717 8,15.0007811 C8,19.4194905 11.5820717,23.0015622 16.0007811,23.0015622 Z M16.0007811,21.1190254 C19.3797941,21.1190254 22.1190254,18.3797941 22.1190254,15.0007811 C22.1190254,11.621768 19.3797941,8.88253672 16.0007811,8.88253672 C12.621768,8.88253672 9.88253672,11.621768 9.88253672,15.0007811 C9.88253672,18.3797941 12.621768,21.1190254 16.0007811,21.1190254 Z"/>
</svg>
