<?xml version="1.0" encoding="UTF-8" standalone="no"?>
<svg width="38px" height="49px" viewBox="0 0 38 49" version="1.1" xmlns="http://www.w3.org/2000/svg" xmlns:xlink="http://www.w3.org/1999/xlink" xmlns:sketch="http://www.bohemiancoding.com/sketch/ns">
    <!-- Generator: Sketch 3.2.1 (9971) - http://www.bohemiancoding.com/sketch -->
    <title>lock icon</title>
    <desc>Created with Sketch.</desc>
    <defs></defs>
    <g id="Page-1" stroke="none" stroke-width="1" fill="none" fill-rule="evenodd" sketch:type="MSPage">
        <g id="Keep-2-Choose-Library-2" sketch:type="MSArtboardGroup" transform="translate(-72.000000, -413.000000)" fill="#FFFFFF" opacity="0.5">
            <g id="Library-2" sketch:type="MSLayerGroup" transform="translate(36.000000, 369.000000)">
                <g id="lock-icon" transform="translate(36.000000, 44.000000)" sketch:type="MSShapeGroup">
                    <path d="M19,0 C10.0428571,0 2.71428571,7.35 2.71428571,16.3333333 L2.71428571,21.7777778 L0,21.7777778 L0,49 L38,49 L38,21.7777778 L35.2857143,21.7777778 L35.2857143,16.3333333 C35.2857143,7.35 27.9571429,0 19,0 Z M5.42857143,16.3333333 C5.42857143,8.82 11.5085714,2.72222222 19,2.72222222 C26.4914286,2.72222222 32.5714286,8.82 32.5714286,16.3333333 L32.5714286,21.7777778 L29.8571429,21.7777778 L29.8571429,16.3333333 C29.8571429,10.3444444 24.9714286,5.44444444 19,5.44444444 C13.0285714,5.44444444 8.14285714,10.3444444 8.14285714,16.3333333 L8.14285714,21.7777778 L5.42857143,21.7777778 L5.42857143,16.3333333 L5.42857143,16.3333333 Z M27.1428571,16.3333333 L27.1428571,21.7777778 L10.8571429,21.7777778 L10.8571429,16.3333333 C10.8571429,11.8144444 14.4942857,8.16666667 19,8.16666667 C23.5057143,8.16666667 27.1428571,11.8144444 27.1428571,16.3333333 L27.1428571,16.3333333 Z M35.2857143,46.2777778 L2.71428571,46.2777778 L2.71428571,24.5 L35.2857143,24.5 L35.2857143,46.2777778 L35.2857143,46.2777778 Z" id="Shape"></path>
                </g>
            </g>
        </g>
    </g>
</svg>
