<svg viewBox="459.6 413.7 22 11.8" xmlns="http://www.w3.org/2000/svg">
  <path fill="#979797" d="M471.4,420.8c-1.8,0-5.2,0.8-5.2,2.5v1.7h10.5v-1.7C476.6,421.6,473.1,420.8,471.4,420.8z M477.1,420.9c0.7,0.6,1.2,1.4,1.2,2.4v1.7h2.6v-1.7C481,422,478.9,421.2,477.1,420.9z M471.4,419.1c1.5,0,2.6-1.1,2.6-2.5s-1.1-2.5-2.6-2.5s-2.6,1.1-2.6,2.5S469.9,419.1,471.4,419.1z M475.8,419.1c1.5,0,2.6-1.1,2.6-2.5s-1.1-2.5-2.6-2.5c-0.3,0-0.5,0.1-0.8,0.1c0.5,0.8,0.8,1.5,0.8,2.5c0,0.9-0.3,1.7-0.8,2.5C475.2,419,475.5,419.1,475.8,419.1z M467,418.2h-2.6v-2.5h-1.8v2.5H460v1.7h2.6v2.5h1.8v-2.5h2.6V418.2z"/>
</svg>
