<?xml version="1.0" encoding="UTF-8" standalone="no"?>
<svg width="19px" height="13px" viewBox="0 0 19 13" version="1.1" xmlns="http://www.w3.org/2000/svg" xmlns:xlink="http://www.w3.org/1999/xlink" xmlns:sketch="http://www.bohemiancoding.com/sketch/ns">
    <!-- Generator: Sketch 3.3.2 (12043) - http://www.bohemiancoding.com/sketch -->
    <title>Collaborator icon</title>
    <desc>Created with Sketch.</desc>
    <defs></defs>
    <g id="Library-collaboration" stroke="none" stroke-width="1" fill="none" fill-rule="evenodd" sketch:type="MSPage">
        <g id="Library---loged-in---My-Library-Copy-27" sketch:type="MSArtboardGroup" transform="translate(-531.000000, -563.000000)" fill="#70C785">
            <g id="people-copy-4" sketch:type="MSLayerGroup" transform="translate(531.000000, 560.500000)">
                <path d="M12.9545455,8.14285714 C14.4227273,8.14285714 15.5454545,7.02857143 15.5454545,5.57142857 C15.5454545,4.11428571 14.4227273,3 12.9545455,3 C11.4863636,3 10.3636364,4.11428571 10.3636364,5.57142857 C10.3636364,7.02857143 11.4863636,8.14285714 12.9545455,8.14285714 L12.9545455,8.14285714 Z M6.04545455,8.14285714 C7.51363636,8.14285714 8.63636364,7.02857143 8.63636364,5.57142857 C8.63636364,4.11428571 7.51363636,3 6.04545455,3 C4.57727273,3 3.45454545,4.11428571 3.45454545,5.57142857 C3.45454545,7.02857143 4.57727273,8.14285714 6.04545455,8.14285714 L6.04545455,8.14285714 Z M6.04545455,9.85714286 C4.05909091,9.85714286 0,10.8857143 0,12.8571429 L0,15 L12.0909091,15 L12.0909091,12.8571429 C12.0909091,10.8857143 8.03181818,9.85714286 6.04545455,9.85714286 L6.04545455,9.85714286 Z M12.9545455,9.85714286 C12.6954545,9.85714286 12.4363636,9.85714286 12.0909091,9.94285714 C13.1272727,10.6285714 13.8181818,11.6571429 13.8181818,12.8571429 L13.8181818,15 L19,15 L19,12.8571429 C19,10.8857143 14.9409091,9.85714286 12.9545455,9.85714286 L12.9545455,9.85714286 Z" id="Collaborator-icon" sketch:type="MSShapeGroup"></path>
            </g>
        </g>
    </g>
</svg>