<?xml version="1.0" encoding="UTF-8" standalone="no"?>
<svg width="32px" height="19px" viewBox="0 0 32 19" version="1.1" xmlns="http://www.w3.org/2000/svg" xmlns:xlink="http://www.w3.org/1999/xlink" xmlns:sketch="http://www.bohemiancoding.com/sketch/ns">
    <!-- Generator: Sketch 3.3.2 (12043) - http://www.bohemiancoding.com/sketch -->
    <title>Shape</title>
    <desc>Created with Sketch.</desc>
    <defs></defs>
    <g id="Library-collaboration" stroke="none" stroke-width="1" fill="none" fill-rule="evenodd" sketch:type="MSPage">
        <g id="Library---loged-in---My-Library-Copy-13" sketch:type="MSArtboardGroup" transform="translate(-782.000000, -365.000000)" fill="#FFFFFF">
            <g id="HERO-SECTION-2" sketch:type="MSLayerGroup">
                <g id="CURATOR-SECTION" transform="translate(467.000000, 343.553103)" sketch:type="MSShapeGroup">
                    <g id="Mask-Copy-+-group-add-copy" transform="translate(301.000000, 0.000000)">
                        <g id="group-add-copy" transform="translate(14.000000, 21.000000)">
                            <path d="M10.6666667,7.42307692 L6.66666667,7.42307692 L6.66666667,3.26923077 L4,3.26923077 L4,7.42307692 L0,7.42307692 L0,10.1923077 L4,10.1923077 L4,14.3461538 L6.66666667,14.3461538 L6.66666667,10.1923077 L10.6666667,10.1923077 L10.6666667,7.42307692 L10.6666667,7.42307692 Z M24,8.80769231 C26.2666667,8.80769231 28,7.00769231 28,4.65384615 C28,2.3 26.2666667,0.5 24,0.5 C23.6,0.5 23.2,0.638461538 22.8,0.638461538 C23.6,1.88461538 24,3.13076923 24,4.65384615 C24,6.17692308 23.6,7.42307692 22.8,8.66923077 C23.2,8.66923077 23.6,8.80769231 24,8.80769231 L24,8.80769231 Z M17.3333333,8.80769231 C19.6,8.80769231 21.3333333,7.00769231 21.3333333,4.65384615 C21.3333333,2.3 19.6,0.5 17.3333333,0.5 C15.0666667,0.5 13.3333333,2.3 13.3333333,4.65384615 C13.3333333,7.00769231 15.0666667,8.80769231 17.3333333,8.80769231 L17.3333333,8.80769231 Z M26.1333333,11.8538462 C27.2,12.8230769 28,14.2076923 28,15.7307692 L28,18.5 L32,18.5 L32,15.7307692 C32,13.6538462 28.8,12.2692308 26.1333333,11.8538462 L26.1333333,11.8538462 Z M17.3333333,11.5769231 C14.6666667,11.5769231 9.33333333,12.9615385 9.33333333,15.7307692 L9.33333333,18.5 L25.3333333,18.5 L25.3333333,15.7307692 C25.3333333,12.9615385 20,11.5769231 17.3333333,11.5769231 L17.3333333,11.5769231 Z" id="Shape"></path>
                        </g>
                    </g>
                </g>
            </g>
        </g>
    </g>
</svg>