<?xml version="1.0" encoding="UTF-8" standalone="no"?>
<svg width="512px" height="512px" viewBox="0 0 512 512" version="1.1" xmlns="http://www.w3.org/2000/svg" xmlns:xlink="http://www.w3.org/1999/xlink">
    <defs></defs>
    <g id="Page-1" stroke="none" stroke-width="1" fill="none" fill-rule="evenodd">
        <g id="collaborators">
            <g id="Guide" transform="translate(-3.000000, -3.000000)"></g>
            <path d="M200.546009,258.100659 C167.141545,258.100659 104.044223,287.021383 104.044223,348.477921 L104.044223,409.934459 L298.903598,409.934459 L298.903598,348.477921 C297.047795,287.021383 232.09467,258.100659 200.546009,258.100659 L200.546009,258.100659 Z" id="Shape-Copy-5" fill="#909090"></path>
            <path d="M274.696795,268.356203 C289.329922,261.471229 304.194334,258.100659 315.598187,258.100659 C347.146848,258.100659 412.099973,287.021383 413.955777,348.477921 L413.955777,409.934459 L276,409.934459 L332.903598,409.934459 L332.903598,348.477921 C331.681342,308.001852 303.089302,281.638875 274.696795,268.356203 Z" id="Shape-Copy-4" fill="#909090"></path>
            <path d="M201.473911,227.849943 C227.653243,227.849943 246.85142,208.097375 246.85142,182.957742 C246.85142,157.818109 227.653243,138.065541 201.473911,138.065541 C175.294579,138.065541 156.096402,157.818109 156.096402,182.957742 C156.096402,208.097375 175.294579,227.849943 201.473911,227.849943 L201.473911,227.849943 Z" id="Path-Copy-4" fill="#909090"></path>
            <path d="M316.526089,227.849943 C342.705421,227.849943 361.903598,208.097375 361.903598,182.957742 C361.903598,157.818109 342.705421,138.065541 316.526089,138.065541 C290.346757,138.065541 271.14858,157.818109 271.14858,182.957742 C271.14858,208.097375 290.346757,227.849943 316.526089,227.849943 L316.526089,227.849943 Z" id="Path-Copy-5" fill="#909090"></path>
        </g>
    </g>
</svg>