<?xml version="1.0" encoding="utf-8"?>
<!-- Generator: Adobe Illustrator 18.1.1, SVG Export Plug-In . SVG Version: 6.00 Build 0)  -->
<svg version="1.1" id="Layer_1" xmlns="http://www.w3.org/2000/svg" xmlns:xlink="http://www.w3.org/1999/xlink" x="0px" y="0px"
	 viewBox="0 0 19.3 12.3" enable-background="new 0 0 19.3 12.3" xml:space="preserve">
<g>
	<defs>
		<rect id="SVGID_1_" x="-560.9" y="-488.4" width="1440" height="1327"/>
	</defs>
	<clipPath id="SVGID_2_">
		<use xlink:href="#SVGID_1_"  overflow="visible"/>
	</clipPath>
	<g clip-path="url(#SVGID_2_)">
		<defs>
			<path id="SVGID_3_" d="M13.1,7c-0.3,0-0.5,0-0.9,0.1c1,0.7,1.7,1.7,1.7,2.9v2.1h5.2V10C19.1,8,15.1,7,13.1,7z M6.2,7
				c-2,0-6,1-6,3v2.1h12.1V10C12.2,8,8.2,7,6.2,7z M6.2,5.3c1.5,0,2.6-1.1,2.6-2.6c0-1.5-1.1-2.6-2.6-2.6S3.6,1.2,3.6,2.7
				C3.6,4.2,4.7,5.3,6.2,5.3z M13.1,5.3c1.5,0,2.6-1.1,2.6-2.6c0-1.5-1.1-2.6-2.6-2.6c-1.5,0-2.6,1.1-2.6,2.6
				C10.5,4.2,11.6,5.3,13.1,5.3z"/>
		</defs>
		<clipPath id="SVGID_4_">
			<use xlink:href="#SVGID_3_"  overflow="visible"/>
		</clipPath>
		<rect x="-4.9" y="-4.9" clip-path="url(#SVGID_4_)" fill="#73C385" width="29" height="22"/>
	</g>
</g>
</svg>
