<?xml version="1.0" encoding="UTF-8" standalone="no"?>
<svg width="46px" height="39px" viewBox="0 0 46 39" version="1.1" xmlns="http://www.w3.org/2000/svg" xmlns:xlink="http://www.w3.org/1999/xlink" xmlns:sketch="http://www.bohemiancoding.com/sketch/ns">
    <!-- Generator: Sketch 3.2 (9961) - http://www.bohemiancoding.com/sketch -->
    <title>Imported Layers 2</title>
    <desc>Created with Sketch.</desc>
    <defs></defs>
    <g id="Welcome" stroke="none" stroke-width="1" fill="none" fill-rule="evenodd" sketch:type="MSPage">
        <g id="Basic-Logged-Out-Profile" sketch:type="MSArtboardGroup" transform="translate(-793.000000, -125.000000)" stroke="#FFFFFF" fill="#FFFFFF">
            <g id="Imported-Layers-2" sketch:type="MSLayerGroup" transform="translate(794.000000, 126.000000)">
                <path d="M42.6666667,19.1607143 L38,19.1607143 L38,14.5357143 C38,13.9886429 37.552,13.5446429 37,13.5446429 C36.448,13.5446429 36,13.9886429 36,14.5357143 L36,19.1607143 L31.3333333,19.1607143 C30.7813333,19.1607143 30.3333333,19.6047143 30.3333333,20.1517857 C30.3333333,20.6988571 30.7813333,21.1428571 31.3333333,21.1428571 L36,21.1428571 L36,25.7678571 C36,26.3149286 36.448,26.7589286 37,26.7589286 C37.552,26.7589286 38,26.3149286 38,25.7678571 L38,21.1428571 L42.6666667,21.1428571 C43.2186667,21.1428571 43.6666667,20.6988571 43.6666667,20.1517857 C43.6666667,19.6047143 43.2186667,19.1607143 42.6666667,19.1607143" id="Fill-1" sketch:type="MSShapeGroup"></path>
                <path d="M20.6666667,24.9261071 L20.6666667,23.7639107 C22.5566667,22.3308214 24.032,20.165 24.7913333,17.5128929 C25.8553333,16.7913929 26.5,15.5783214 26.5,14.2463214 C26.5,13.098 26.018,12.0269821 25.188,11.2869821 C25.016,4.47633929 21.2093333,0.270232143 15.1666667,0.270232143 C9.11266667,0.270232143 5.30066667,4.51135714 5.136,11.3748571 C4.35666667,12.1122143 3.90333333,13.1601071 3.90333333,14.2687857 C3.90333333,15.5545357 4.518,16.7464643 5.532,17.4752321 C6.24333333,19.9879286 7.59466667,22.0671964 9.33333333,23.5035893 L9.33333333,25.0648571 C4.67733333,25.6376964 0.466,29.9521607 0.277333333,30.1483929 C0.0886666667,30.3439643 -0.0113333333,30.6069286 0.000666666667,30.8771607 C0.0133333333,31.1473929 0.136,31.3997857 0.341333333,31.5781786 C0.612,31.8133929 7.06,37.3303571 15.1666667,37.3303571 C23.2733333,37.3303571 29.722,31.8133929 29.992,31.5781786 C30.1953333,31.4024286 30.3186667,31.1506964 30.332,30.8831071 C30.346,30.6161786 30.2493333,30.353875 30.0653333,30.1583036 C29.8753333,29.9554643 25.6246667,25.4844107 20.6666667,24.9261071 L20.6666667,24.9261071 Z M7.36933333,16.6096964 C7.302,16.34475 7.128,16.1194464 6.888,15.9859821 C6.28066667,15.6490179 5.90333333,14.9909464 5.90333333,14.2687857 C5.90333333,13.6133571 6.20666667,13.0074821 6.714,12.6460714 C6.97533333,12.45975 7.13066667,12.1604464 7.13066667,11.8413214 C7.13066667,8.958625 7.91333333,2.252375 15.1666667,2.252375 C20.1933333,2.252375 23.194,5.81164286 23.194,11.7726071 C23.194,12.1029643 23.36,12.4121786 23.638,12.5965179 C24.178,12.954625 24.5,13.5717321 24.5,14.2463214 C24.5,14.9955714 24.1046667,15.6642143 23.468,15.9919286 C23.2153333,16.12275 23.03,16.3546607 22.96,16.6288571 C21.886,20.8468571 18.7533333,23.6806607 15.1666667,23.6806607 C11.5726667,23.6806607 8.43866667,20.8389286 7.36933333,16.6096964 L7.36933333,16.6096964 Z M15.1666667,35.3482143 C9.44533333,35.3482143 4.47266667,32.1833929 2.52866667,30.7628571 C3.98933333,29.4724821 7.21333333,26.9848929 10.3333333,26.9848929 C10.886,26.9848929 11.3333333,26.5408929 11.3333333,25.9938214 L11.3333333,24.7866964 C12.5213333,25.3529286 13.816,25.6628036 15.1666667,25.6628036 C16.3926667,25.6628036 17.57,25.4018214 18.6666667,24.9313929 L18.6666667,25.8610179 C18.6666667,26.4080893 19.114,26.8520893 19.6666667,26.8520893 C23.0346667,26.8520893 26.3453333,29.438125 27.8133333,30.75625 C25.876,32.1734821 20.8966667,35.3482143 15.1666667,35.3482143 L15.1666667,35.3482143 Z" id="Fill-2" sketch:type="MSShapeGroup"></path>
            </g>
        </g>
    </g>
</svg>
