<?xml version="1.0" encoding="UTF-8" standalone="no"?>
<!-- Generator: Avocode 0.4.0 - http://avocode.com -->
<svg xmlns="http://www.w3.org/2000/svg" xmlns:xlink="http://www.w3.org/1999/xlink" width="17" height="17" view-box="0 0 17 17">
    <desc>Created with Avocode</desc>
    <path d="M 15 17 C 16.1 17, 17 16.1, 17 15 L 17 2 C 17 0.9, 16.1 0, 15 0 L 2 0 C 0.9 0, 0 0.9, 0 2 L 0 15 C 0 16.1, 0.9 17, 2 17 L 7 17 L 8.29 17 L 8.29 11.33 L 6 11.33 L 6 8.55 L 8.29 8.55 L 8.29 6.89 C 8.29 4.6, 9.62 3, 11.71 3 C 12.72 3, 13.43 3, 14 3 L 14 5.78 L 12.86 5.78 C 11.72 5.78, 11.14 6.33, 11.14 7.44 L 11.14 8.55 L 14 8.55 L 13.43 11.33 L 11.14 11.33 L 11.14 17 L 14 17 L 15 17 Z" fill="#ffffff" />
</svg>
