<svg xmlns="http://www.w3.org/2000/svg" viewBox="0 0 38 33">
  <path fill="#fff" d="M24.434,25.774 C23.798,25.484 23.197,25.211 22.769,24.924 C22.373,24.659 22.003,24.444 21.662,24.246 C20.300,23.455 19.678,23.094 19.678,20.718 C19.678,17.743 22.103,15.823 22.126,15.805 C22.126,15.805 22.253,15.707 22.253,15.707 C22.253,15.707 22.323,15.563 22.323,15.563 C23.137,13.892 22.739,12.483 22.468,11.848 C24.236,7.910 22.096,4.652 21.642,4.030 C20.492,0.702 18.038,-0.000 16.172,-0.000 C13.959,-0.000 11.994,0.974 11.963,0.992 C9.916,1.816 8.520,3.129 7.814,4.895 C6.674,7.748 7.708,10.882 8.083,11.844 C7.165,14.073 8.224,15.595 8.271,15.662 C8.271,15.662 8.413,15.808 8.413,15.808 C8.438,15.826 10.858,17.706 10.858,20.718 C10.858,23.636 9.266,24.170 7.250,24.845 C7.250,24.845 6.987,24.932 6.987,24.932 C4.719,25.682 0.001,27.242 0.001,32.310 C0.001,32.310 0.001,32.992 0.001,32.992 C0.001,32.992 29.868,32.992 29.868,32.992 C29.868,32.992 29.856,32.298 29.856,32.298 C29.783,28.207 26.691,26.801 24.434,25.774 ZM37.985,29.583 C37.921,25.990 35.240,24.763 33.283,23.867 C32.743,23.620 32.233,23.386 31.873,23.144 C31.532,22.914 31.214,22.728 30.920,22.555 C29.755,21.873 29.273,21.593 29.273,19.605 C29.273,17.093 31.310,15.467 31.328,15.452 C31.328,15.452 31.456,15.352 31.456,15.352 C31.456,15.352 31.527,15.207 31.527,15.207 C32.222,13.768 31.908,12.544 31.670,11.962 C33.161,8.563 31.358,5.750 30.943,5.172 C29.937,2.260 27.797,1.644 26.169,1.644 C24.252,1.644 22.548,2.494 22.529,2.507 C22.504,2.517 22.483,2.531 22.458,2.542 C22.598,2.824 22.734,3.111 22.848,3.423 C23.550,4.464 25.458,7.841 23.911,11.905 C24.209,12.890 24.384,14.429 23.530,16.183 C23.530,16.183 23.320,16.616 23.320,16.616 C23.320,16.616 22.939,16.909 22.939,16.909 C22.933,16.914 21.023,18.462 21.023,20.740 C21.023,22.329 21.146,22.401 22.328,23.086 C22.693,23.297 23.087,23.528 23.510,23.811 C23.846,24.036 24.397,24.287 24.981,24.553 C26.931,25.440 29.990,26.843 30.919,30.286 C30.919,30.286 37.997,30.286 37.997,30.286 C37.997,30.286 37.985,29.583 37.985,29.583 Z"/>
</svg>
