<?xml version="1.0" encoding="utf-8"?>
<!-- Generator: Adobe Illustrator 18.0.0, SVG Export Plug-In . SVG Version: 6.00 Build 0) -->
<!DOCTYPE svg PUBLIC "-//W3C//DTD SVG 1.1//EN" "http://www.w3.org/Graphics/SVG/1.1/DTD/svg11.dtd">
<svg version="1.1" id="Library_icon_1_" xmlns="http://www.w3.org/2000/svg" xmlns:xlink="http://www.w3.org/1999/xlink" x="0px"
  y="0px" viewBox="0 0 40.5 52.5" enable-background="new 0 0 40.5 52.5" xml:space="preserve">
<g id="Rounded_Rectangle_39_copy_2">
 <g>
  <path fill-rule="evenodd" clip-rule="evenodd" fill="#FFFFFF" d="M36,4.5H7.5c-1.7,0-3,1.3-3,3V48c0,1.7,1.3,3,3,3H36
   c1.7,0,3-1.3,3-3V7.5C39,5.8,37.7,4.5,36,4.5z"/>
 </g>
 <g>
  <path fill="none" stroke="#E7E7E7" stroke-miterlimit="10" d="M36,4.5H7.5c-1.7,0-3,1.3-3,3V48c0,1.7,1.3,3,3,3H36
   c1.7,0,3-1.3,3-3V7.5C39,5.8,37.7,4.5,36,4.5z"/>
 </g>
</g>
<g id="Rounded_Rectangle_39_copy">
 <g>
  <path fill-rule="evenodd" clip-rule="evenodd" fill="#FFFFFF" d="M33.7,2.2H5.2c-1.7,0-3,1.3-3,3v40.5c0,1.7,1.3,3,3,3h28.5
   c1.7,0,3-1.3,3-3V5.2C36.7,3.6,35.4,2.2,33.7,2.2z"/>
 </g>
 <g>
  <path fill="none" stroke="#E7E7E7" stroke-miterlimit="10" d="M33.7,2.2H5.2c-1.7,0-3,1.3-3,3v40.5c0,1.7,1.3,3,3,3h28.5
   c1.7,0,3-1.3,3-3V5.2C36.7,3.6,35.4,2.2,33.7,2.2z"/>
 </g>
</g>
<g id="Rounded_Rectangle_39">
 <g>
  <path fill-rule="evenodd" clip-rule="evenodd" fill="#73C885" d="M31.5,0H3C1.3,0,0,1.3,0,3v40.5c0,1.7,1.3,3,3,3h28.5
   c1.7,0,3-1.3,3-3V3C34.5,1.3,33.2,0,31.5,0z"/>
 </g>
</g>
<g id="Shape_10">
 <g>
  <path fill="#FFFFFF" d="M17.2,13.5c-5.4,0-9.7,4.4-9.7,9.7s4.4,9.7,9.7,9.7c5.4,0,9.7-4.4,9.7-9.7S22.6,13.5,17.2,13.5z
    M17.2,31.8c-4.7,0-8.5-3.8-8.5-8.5c0-4.7,3.8-8.5,8.5-8.5c4.7,0,8.5,3.8,8.5,8.5C25.8,28,22,31.8,17.2,31.8z M16.1,20.8l0-0.4
   l0.5-0.2h1.1l0.3-0.3l0.2-0.6l0.6-0.3l0.7-0.5l0-0.1c-0.8-0.4-1.6-0.6-2.5-0.6c-1.6,0-3,0.6-4.1,1.6L13,19.6l0,0.4l0.4,0.3
   l0.2,0.3l0,0.5l0,0.5l0.4,0l0.4,0.2c0,0,0.3,0.1,0.4,0.2c0.1,0.1,0.7,0.5,0.7,0.6c0.1,0.1,0.5,0.1,0.5,0.1c0.3-0.3,0-0.6,0-0.6
   l-0.1-0.3l-0.1-0.3l0.1-0.4L16.1,20.8z M21.8,24.7l-0.3-0.4H21l-0.4-0.2l-0.3-0.5l-0.5-0.4l-0.2-0.5h-0.6l-0.8-0.2l-0.2,0.1
   L17.5,23l-0.3,0.2l-0.1,1c0,0,0,1,0,1.1c0,0.1,0.2,0.3,0.3,0.5c0.1,0.2,0.2,0.4,0.3,0.6c0.1,0.1,0.2,0.1,0.4,0.2
   c0.2,0.1,0.4,0.3,0.4,0.4c0.1,0.1,0.1,0.6,0.1,0.6l0.1,0.8v0.4c0.3-0.1,0.6-0.2,0.8-0.3l0.4-0.3l0.6-0.4l0.2-0.1
   c0.5-0.4,0.9-0.9,1.2-1.4l0.1-0.3v-0.5L22,25.1L21.8,24.7z"/>
 </g>
</g>
</svg>