<svg viewBox="0 0 32 38" xmlns="http://www.w3.org/2000/svg">
<g fill="#56b263" transform="translate(-0.472727, 0)">
  <path d="M31.1824,17.4735593 C26.1456,23.0833898 17.4288,27.0508475 16.9744,27.2569492 L16.424,27.5016949 L15.88,27.2311864 C15.4256,27.0057627 6.8432,22.6583051 1.9024,17.3254237 C1.5952,16.9905085 1.3008,16.6491525 1.0256,16.3077966 C0.936,16.2047458 0.8528,16.1016949 0.776,15.9986441 C0.7952,16.1983051 0.8208,16.3979661 0.8528,16.5911864 C0.9488,17.2223729 1.1216,17.8529153 1.3648,18.4589831 C1.3712,18.4911864 1.384,18.5169492 1.3968,18.5491525 C3.3872,23.4376271 12.4816,28.9959322 16.4752,31.0827119 C18.952,29.8911864 29.1216,24.680678 31.624,18.6779661 C31.6432,18.6264407 31.6624,18.5813559 31.6816,18.5298305 C31.9248,17.9115254 32.0976,17.280339 32.1872,16.6491525 C32.2192,16.4881356 32.2384,16.3335593 32.2576,16.1725424 C32.1936,16.2562712 32.1232,16.3464407 32.0592,16.4301695 C31.784,16.7844068 31.4896,17.1322034 31.1824,17.4735593"/>
  <path d="M16.9744,33.6976271 L16.424,33.9423729 L15.88,33.6718644 C15.3872,33.4271186 5.384,28.3583051 0.776,22.439322 C0.8528,23.3088136 1.064,24.1654237 1.3968,24.9898305 C3.3872,29.8783051 12.4816,35.4366102 16.4752,37.5227458 C18.952,36.3318644 29.1216,31.1213559 31.624,25.1186441 C31.9632,24.300678 32.168,23.4569492 32.2576,22.6132203 C27.5152,28.9057627 17.4608,33.4722034 16.9744,33.6976271"/>
  <path d="M1.3648,12.0183051 C1.3712,12.0505085 1.384,12.0762712 1.3968,12.1084746 C1.544,12.4755932 1.736,12.8491525 1.9664,13.2227119 C2.1776,13.5769492 2.4208,13.9376271 2.7024,14.2918644 C2.9456,14.620339 3.2208,14.9546102 3.5216,15.2837288 C7.0288,19.2061017 13.3328,22.999661 16.4752,24.6420339 C18.504,23.6694915 25.6784,20.0047458 29.5888,15.4125424 C29.8768,15.0776271 30.1456,14.7362712 30.3952,14.3949153 C30.6512,14.0342373 30.888,13.6671186 31.0928,13.3 C31.2976,12.9522034 31.4768,12.5979661 31.624,12.2372881 C31.6432,12.1857627 31.6624,12.140678 31.6816,12.0891525 C31.9248,11.4708475 32.0976,10.839661 32.1872,10.2084746 C32.3024,9.48711864 32.3216,8.77220339 32.2512,8.06372881 C31.9696,4.95288136 30.0304,2.09966102 26.9712,0.810881356 C25.9024,0.360677966 24.776,0.128813559 23.6304,0.128813559 C21.3264,0.128813559 19.08,1.07559322 17.4608,2.7179661 L16.5456,3.64542373 L15.6368,2.71152542 C14.0112,1.03050847 11.7456,0.0708474576 9.416,0.0708474576 C8.296,0.0708474576 7.1888,0.289830508 6.1392,0.72779661 C3.9952,1.61016949 2.3184,3.27830508 1.4224,5.42949153 C1.0704,6.26677966 0.8592,7.13627119 0.7824,8.01864407 C0.7184,8.72711864 0.7376,9.4420339 0.8528,10.1505085 C0.9488,10.7816949 1.1216,11.4128814 1.3648,12.0183051"/>
</g>
</svg>
