<?xml version="1.0" encoding="UTF-8" standalone="no"?>
<svg width="16px" height="20px" viewBox="0 0 16 20" version="1.1" xmlns="http://www.w3.org/2000/svg" xmlns:xlink="http://www.w3.org/1999/xlink" xmlns:sketch="http://www.bohemiancoding.com/sketch/ns">
    <!-- Generator: Sketch 3.3.2 (12043) - http://www.bohemiancoding.com/sketch -->
    <title>Hearts Icon</title>
    <desc>Created with Sketch.</desc>
    <defs></defs>
    <g id="Collaborative-libraries" stroke="none" stroke-width="1" fill="none" fill-rule="evenodd" sketch:type="MSPage">
        <g id="Library---loged-in---My-Library-Copy-43" sketch:type="MSArtboardGroup" transform="translate(-869.000000, -739.000000)" fill="#FFFFFF">
            <g id="Keep-Dialogue" sketch:type="MSLayerGroup" transform="translate(465.000000, 518.000000)">
                <g id="Keep" transform="translate(388.000000, 210.000000)" sketch:type="MSShapeGroup">
                    <g id="Hearts-Icon" transform="translate(15.650485, 11.641975)">
                        <path d="M15.7425709,8.84464114 C13.1997204,11.684185 8.79900583,13.6924043 8.5696,13.7967273 L8.29172816,13.920611 L8.01708738,13.783687 C7.78768155,13.6695836 3.45481942,11.4690186 0.960434951,8.76965892 C0.805343689,8.60013392 0.656714563,8.42734882 0.517778641,8.25456372 C0.472543689,8.20240218 0.430539806,8.15024064 0.39176699,8.0980791 C0.401460194,8.19914208 0.414384466,8.30020506 0.430539806,8.39800795 C0.479005825,8.71749738 0.56624466,9.03666081 0.689025243,9.34343587 C0.692256311,9.35973635 0.698718447,9.37277673 0.705180583,9.38907721 C1.71004272,11.8634903 6.30139029,14.6769533 8.3175767,15.7332245 C9.568,15.1301067 14.702167,12.4926888 15.9655146,9.45427914 C15.9752078,9.42819837 15.984901,9.40537769 15.9945942,9.37929692 C16.1173748,9.06632768 16.2046136,8.74683825 16.2498485,8.42734882 C16.2660039,8.34584641 16.2756971,8.2676041 16.2853903,8.18610169 C16.2530796,8.22848295 16.2175379,8.27412429 16.1852272,8.31650555 C16.0462913,8.49581084 15.8976621,8.67185604 15.7425709,8.84464114" id="Fill-1"></path>
                        <path d="M8.5696,17.0568236 L8.29172816,17.1807073 L8.01708738,17.0437832 C7.76829515,16.9198996 2.71813592,14.3542038 0.39176699,11.3581754 C0.430539806,11.7982883 0.537165049,12.2318811 0.705180583,12.6491735 C1.71004272,15.1235865 6.30139029,17.9370496 8.3175767,18.9929948 C9.568,18.390203 14.702167,15.7527851 15.9655146,12.7143754 C16.1367612,12.3003432 16.2401553,11.8732706 16.2853903,11.4461979 C13.8911689,14.631312 8.81516117,16.9427202 8.5696,17.0568236" id="Fill-2"></path>
                        <path d="M0.689025243,6.08333961 C0.692256311,6.09964009 0.698718447,6.11268048 0.705180583,6.12898096 C0.779495146,6.31480644 0.876427184,6.50389203 0.992745631,6.69297761 C1.09937087,6.8722829 1.22215146,7.05484829 1.36431845,7.23415359 C1.48709903,7.4004185 1.62603495,7.56961749 1.77789515,7.73620841 C3.54852039,9.72160703 6.73112233,11.6418037 8.3175767,12.4731283 C9.34182524,11.9808537 12.9638524,10.125859 14.938035,7.80141034 C15.083433,7.63188533 15.2191379,7.45910023 15.3451495,7.28631513 C15.4743922,7.10374974 15.5939417,6.91792425 15.6973359,6.73209877 C15.8007301,6.55605357 15.8912,6.37674827 15.9655146,6.19418288 C15.9752078,6.16810211 15.984901,6.14528144 15.9945942,6.11920067 C16.1173748,5.80623143 16.2046136,5.486742 16.2498485,5.16725256 C16.3080078,4.80212178 16.317701,4.4402511 16.2821592,4.08164051 C16.1399922,2.50701402 15.1609786,1.06279138 13.6165282,0.410446118 C13.0769398,0.18256539 12.5082718,0.0652019251 11.9299107,0.0652019251 C10.7667262,0.0652019251 9.63262136,0.544436074 8.81516117,1.37576062 L8.35311845,1.84521448 L7.8943068,1.37250052 C7.07361553,0.521615401 5.92981748,0.0358610588 4.75370874,0.0358610588 C4.18827184,0.0358610588 3.62929709,0.146704331 3.09940194,0.368390877 C2.01699417,0.815024064 1.17045437,1.65938899 0.718104854,2.74826114 C0.540396117,3.17207366 0.433770874,3.61218665 0.394998058,4.05881984 C0.362687379,4.41743042 0.372380583,4.77930111 0.430539806,5.1379117 C0.479005825,5.45740113 0.56624466,5.77689056 0.689025243,6.08333961" id="Fill-3"></path>
                    </g>
                </g>
            </g>
        </g>
    </g>
</svg>