<?xml version="1.0" encoding="UTF-8" standalone="no"?>
<!-- Generator: Avocode 0.4.0 - http://avocode.com -->
<svg xmlns="http://www.w3.org/2000/svg" xmlns:xlink="http://www.w3.org/1999/xlink" width="138.5" height="50" view-box="0 0 138.5 50">
    <desc>Created with Avocode</desc>
    <path d="M 18.5 7 L 18.5 7 L 12.57 17.69 L 0.5 19.99 L 8.9 28.89 L 7.38 41 L 18.5 35.82 L 29.62 41 L 28.1 28.89 L 36.5 19.99 L 24.43 17.69 L 18.5 7 Z" fill="#f3f5f7" stroke="#d3d3d3" stroke-width="1" />
    <path d="M 50.84 27.37 C 50.1 27.37, 49.49 26.76, 49.49 26 C 49.49 25.24, 50.1 24.63, 50.84 24.63 L 71.88 24.63 L 64.73 17.35 C 64.21 16.82, 64.21 15.95, 64.73 15.41 C 65 15.14, 65.34 15.01, 65.69 15.01 C 66.03 15.01, 66.38 15.14, 66.64 15.41 L 76.09 25.03 C 76.61 25.56, 76.61 26.43, 76.09 26.97 L 66.64 36.59 C 66.11 37.13, 65.26 37.13, 64.73 36.59 C 64.21 36.05, 64.21 35.18, 64.73 34.65 L 71.87 27.37 L 50.84 27.37 Z" fill="#d8dee6" />
    <path d="M 115.43 22.29 C 115.43 22.29, 122.03 28.01, 115.43 22.29 C 108.82 16.57, 102.39 15.17, 101.26 9.43 C 100.26 4.36, 105.58 0.42, 109.86 3.74 C 111.59 -1.4, 118.18 -1.08, 120.15 3.69 C 122.38 9.12, 118.16 13.41, 115.43 22.29 Z" fill="#ff921e" />
    <path d="M 116.35 22.51 C 116.35 22.51, 110.66 29.11, 116.35 22.51 C 122.04 15.9, 123.44 9.48, 129.14 8.34 C 134.18 7.34, 138.09 12.65, 134.78 16.93 C 139.9 18.65, 139.57 25.24, 134.82 27.2 C 129.43 29.44, 125.17 25.23, 116.35 22.51 Z" fill="#ab84f7" />
    <path d="M 112.51 22.96 C 112.51 22.96, 120.72 25.82, 112.51 22.96 C 104.3 20.1, 99.89 15.24, 94.39 17.12 C 89.53 18.78, 88.78 25.34, 93.77 27.38 C 90.21 31.44, 93.77 36.98, 98.85 36.3 C 104.64 35.52, 106.22 29.75, 112.51 22.96 Z" fill="#ff7aac" />
    <path d="M 115.79 23.06 C 115.79 23.06, 118.64 14.82, 115.79 23.06 C 112.95 31.3, 108.11 35.73, 109.98 41.26 C 111.63 46.14, 118.16 46.88, 120.2 41.87 C 124.24 45.45, 129.76 41.88, 129.08 36.77 C 128.31 30.97, 122.55 29.37, 115.79 23.06 Z" fill="#3ea9f5" />
    <path d="M 109.28 32.62 C 103.62 46.4, 105.75 48.58, 105.75 48.58 C 104.34 49.89, 103.44 48.71, 103.44 48.71 C 101.91 43.07, 109.28 32.62, 109.28 32.62 Z" fill="#73c885" />
</svg>