<?xml version="1.0" encoding="UTF-8" standalone="no"?>
<!-- Generator: Avocode 0.4.0 - http://avocode.com -->
<svg xmlns="http://www.w3.org/2000/svg" xmlns:xlink="http://www.w3.org/1999/xlink" width="78" height="50" view-box="0 0 138.5 50">
    <desc>Created with Avocode</desc>
    <path d="M 18.5 7 L 18.5 7 L 12.57 17.69 L 0.5 19.99 L 8.9 28.89 L 7.38 41 L 18.5 35.82 L 29.62 41 L 28.1 28.89 L 36.5 19.99 L 24.43 17.69 L 18.5 7 Z" fill="#f3f5f7" stroke="#d3d3d3" stroke-width="1" />

    <path d="M 50.84 27.37 C 50.1 27.37, 49.49 26.76, 49.49 26 C 49.49 25.24, 50.1 24.63, 50.84 24.63 L 71.88 24.63 L 64.73 17.35 C 64.21 16.82, 64.21 15.95, 64.73 15.41 C 65 15.14, 65.34 15.01, 65.69 15.01 C 66.03 15.01, 66.38 15.14, 66.64 15.41 L 76.09 25.03 C 76.61 25.56, 76.61 26.43, 76.09 26.97 L 66.64 36.59 C 66.11 37.13, 65.26 37.13, 64.73 36.59 C 64.21 36.05, 64.21 35.18, 64.73 34.65 L 71.87 27.37 L 50.84 27.37 Z" fill="#d8dee6" />
</svg>
