<?xml version="1.0" encoding="UTF-8" standalone="no"?>
<svg width="512px" height="512px" viewBox="0 0 512 512" version="1.1" xmlns="http://www.w3.org/2000/svg" xmlns:xlink="http://www.w3.org/1999/xlink">
    <defs></defs>
    <g id="Page-1" stroke="none" stroke-width="1" fill="none" fill-rule="evenodd">
        <g id="invite-collaborators">
            <g id="Guide" transform="translate(-3.000000, -3.000000)"></g>
            <path d="M239.230905,237.742947 L189.002283,237.742947 L189.002283,186 L154.228622,186 L154.228622,237.742947 L104,237.742947 L104,272.928152 L154.228622,272.928152 L154.228622,324.671099 L189.002283,324.671099 L189.002283,272.928152 L239.230905,272.928152 L239.230905,237.742947 L239.230905,237.742947 Z" id="Path-Copy" fill="#56B263"></path>
            <path d="M325.005988,271.328901 C295.580838,271.328901 240,297.742444 240,353.871222 L240,410 L411.646707,410 L411.646707,353.871222 C410.011976,297.742444 352.796407,271.328901 325.005988,271.328901 L325.005988,271.328901 Z" id="Shape" fill="#56B263"></path>
            <path d="M325.823353,230.892201 C352.002686,230.892201 371.200862,211.139633 371.200862,186 C371.200862,160.860367 352.002686,141.107799 325.823353,141.107799 C299.644021,141.107799 280.445844,160.860367 280.445844,186 C280.445844,211.139633 299.644021,230.892201 325.823353,230.892201 L325.823353,230.892201 Z" id="Path" fill="#56B263"></path>
        </g>
    </g>
</svg>