<svg xmlns="http://www.w3.org/2000/svg" version="1.1" x="0" y="0" viewBox="0 0 172 247" enable-background="new 0 0 172 247" xml:space="preserve"><path fill-rule="evenodd" clip-rule="evenodd" fill="#FF921E" d="M104.3 23.3C98 8 76.9 7 71.4 23.5c-13.7-10.6-30.7 2-27.5 18.1 3.6 18.3 24.2 22.8 45.3 41C98 54.3 111.5 40.6 104.3 23.3z"/><path fill-rule="evenodd" clip-rule="evenodd" fill="#AB84F7" d="M151.1 65.5c10.6-13.6-1.9-30.6-18-27.4 -18.2 3.6-22.7 24.1-40.9 45.2 28.2 8.7 41.8 22.1 59.1 15C166.4 92 167.5 71 151.1 65.5z"/><path fill-rule="evenodd" clip-rule="evenodd" fill="#FF7AAC" d="M28.9 66.1c-15.5 5.3-17.9 26.2-2 32.7 -11.4 13 0 30.6 16.2 28.5 18.5-2.5 23.6-20.9 43.7-42.6C60.6 75.6 46.4 60.1 28.9 66.1z"/><path fill-rule="evenodd" clip-rule="evenodd" fill="#3EA9F5" d="M132.9 128.8c-2.5-18.5-20.9-23.6-42.5-43.8 -9.1 26.3-24.6 40.4-18.6 58.1 5.3 15.6 26.2 18 32.7 2C117.4 156.6 135.1 145.1 132.9 128.8z"/><path fill-rule="evenodd" clip-rule="evenodd" fill="#73C885" d="M69.6 115.6c0 0-23.6 33.3-18.7 51.3 0 0 2.9 3.8 7.4-0.4C58.3 166.5 51.5 159.6 69.6 115.6z"/><path fill="#788B96" d="M72.5 230.9c0 0.7 0.6 1.3 1.2 1.3h14.6c0.7 0 1.3-0.6 1.3-1.3v-44.3c-2.4 1.9-5.3 3-8.5 3 -3.2 0-6.2-1.1-8.5-3C72.5 186.6 72.5 223.6 72.5 230.9zM124.1 161.2c-29.5 0.7-29.4 25.4-29.4 25.4v44.3c0 0.7 0.6 1.3 1.3 1.3h13.8c0.7 0 1.3-0.6 1.3-1.3V200h12.2c0.7 0 1.3-0.6 1.3-1.2v-11.7c0-0.7-0.6-1.3-1.3-1.3h-12.2c0-2.8 0.8-13 13.4-13.6 0.7 0 1.2-0.6 1.2-1.3l-0.2-8.6C125.4 161.7 124.8 161.1 124.1 161.2zM52.3 209.3l16.1-21.8c0.4-0.6 0.2-1-0.5-1H49.1c-0.7 0-1.6 0.5-2 1l-10.2 13.9v-40.3c0-0.7-0.6-1.3-1.3-1.3H21.1c-0.7 0-1.3 0.6-1.3 1.3v69.7c0 0.7 0.6 1.3 1.3 1.3h14.6c0.7 0 1.3-0.6 1.3-1.3v-13.6l10.2 13.9c0.4 0.6 1.3 1 2 1h18.7c0.7 0 0.9-0.5 0.5-1L52.3 209.3z"/><circle fill="#788B96" cx="81" cy="175.7" r="8"/><path fill="#788B96" d="M128.7 230.9c0 0.7 0.6 1.3 1.3 1.3h14.6c0.7 0 1.3-0.6 1.3-1.3v-44.3c-2.4 1.9-5.3 3-8.5 3 -3.2 0-6.2-1.1-8.5-3C128.7 186.6 128.7 223.6 128.7 230.9z"/><circle fill="#788B96" cx="137.3" cy="175.7" r="8"/></svg>