<?xml version="1.0" encoding="UTF-8" standalone="no"?>
<!-- Generator: Avocode 0.4.0 - http://avocode.com -->
<svg xmlns="http://www.w3.org/2000/svg" xmlns:xlink="http://www.w3.org/1999/xlink" width="49" height="50" view-box="0 0 49 50">
    <desc>Created with Avocode</desc>
    <path d="M 25.93 22.29 C 25.93 22.29, 32.53 28.01, 25.93 22.29 C 19.32 16.57, 12.89 15.17, 11.76 9.43 C 10.76 4.36, 16.08 0.42, 20.36 3.74 C 22.09 -1.4, 28.68 -1.08, 30.65 3.69 C 32.88 9.12, 28.66 13.41, 25.93 22.29 Z" fill="#ff921e" />
    <path d="M 26.85 22.51 C 26.85 22.51, 21.16 29.11, 26.85 22.51 C 32.54 15.9, 33.94 9.48, 39.64 8.34 C 44.68 7.34, 48.59 12.65, 45.28 16.93 C 50.4 18.65, 50.07 25.24, 45.32 27.2 C 39.93 29.44, 35.67 25.23, 26.85 22.51 Z" fill="#ab84f7" />
    <path d="M 23.01 22.96 C 23.01 22.96, 31.22 25.82, 23.01 22.96 C 14.8 20.1, 10.39 15.24, 4.89 17.12 C 0.03 18.78, -0.72 25.34, 4.27 27.38 C 0.71 31.44, 4.27 36.98, 9.35 36.3 C 15.14 35.52, 16.72 29.75, 23.01 22.96 Z" fill="#ff7aac" />
    <path d="M 26.29 23.06 C 26.29 23.06, 29.14 14.82, 26.29 23.06 C 23.45 31.3, 18.61 35.73, 20.48 41.26 C 22.13 46.14, 28.66 46.88, 30.7 41.87 C 34.74 45.45, 40.26 41.88, 39.58 36.77 C 38.81 30.97, 33.05 29.37, 26.29 23.06 Z" fill="#3ea9f5" />
    <path d="M 19.78 32.62 C 14.12 46.4, 16.25 48.58, 16.25 48.58 C 14.84 49.89, 13.94 48.71, 13.94 48.71 C 12.41 43.07, 19.78 32.62, 19.78 32.62 Z" fill="#73c885" />
</svg>
