<?xml version="1.0" encoding="utf-8"?>
<!-- Generator: Adobe Illustrator 18.1.0, SVG Export Plug-In . SVG Version: 6.00 Build 0)  -->
<svg version="1.1" id="Layer_1" xmlns="http://www.w3.org/2000/svg" xmlns:xlink="http://www.w3.org/1999/xlink" x="0px" y="0px"
	 viewBox="0 0 94.7 49.4" enable-background="new 0 0 94.7 49.4" xml:space="preserve">
<g>
	<path fill="#3F4A54" d="M11.9,26.7h2l6.7-10.3h14.3L23.2,32l11.6,17.4H20.5l-7.1-12.3h-1.6v12.3H0V1.5h11.9V26.7z"/>
	<path fill="#3F4A54" d="M43.7,0c1,0,1.8,0.2,2.7,0.5c0.8,0.3,1.6,0.8,2.2,1.4c0.6,0.6,1.1,1.3,1.4,2.2c0.3,0.8,0.5,1.7,0.5,2.7
		c0,1-0.2,1.8-0.5,2.7c-0.3,0.8-0.8,1.6-1.4,2.2c-0.6,0.6-1.3,1.1-2.2,1.4c-0.8,0.3-1.7,0.5-2.7,0.5c-1,0-1.8-0.2-2.7-0.5
		c-0.8-0.3-1.6-0.8-2.2-1.4c-0.6-0.6-1.1-1.3-1.4-2.2c-0.3-0.8-0.5-1.7-0.5-2.7c0-1,0.2-1.8,0.5-2.7c0.3-0.8,0.8-1.6,1.4-2.2
		s1.3-1.1,2.2-1.4C41.8,0.2,42.7,0,43.7,0z M49.6,49.4H37.8v-33h11.9V49.4z"/>
	<path fill="#3F4A54" d="M77.9,16.4h-7.3v-1c0-1.4,0.2-2.3,0.7-2.9c0.5-0.6,1.3-0.9,2.3-0.9c1,0,1.8,0.1,2.5,0.4
		c0.6,0.2,1.1,0.4,1.7,0.7V1.5c-0.7-0.2-1.4-0.4-2.1-0.5c-1.2-0.2-2.5-0.3-3.9-0.3c-1.9,0-3.7,0.3-5.3,0.9c-1.6,0.6-3,1.5-4.2,2.7
		c-1.2,1.2-2.1,2.7-2.7,4.5c-0.7,1.8-1,4-1,6.4v1.3h-5.3v10.5h5.3v22.5h11.9V26.9h7.3V16.4z"/>
	<path fill="#3F4A54" d="M87.9,0c1,0,1.8,0.2,2.7,0.5c0.8,0.3,1.6,0.8,2.2,1.4c0.6,0.6,1.1,1.3,1.4,2.2c0.3,0.8,0.5,1.7,0.5,2.7
		c0,1-0.2,1.8-0.5,2.7c-0.3,0.8-0.8,1.6-1.4,2.2c-0.6,0.6-1.3,1.1-2.2,1.4c-0.8,0.3-1.7,0.5-2.7,0.5c-1,0-1.8-0.2-2.7-0.5
		c-0.8-0.3-1.6-0.8-2.2-1.4c-0.6-0.6-1.1-1.3-1.4-2.2c-0.3-0.8-0.5-1.7-0.5-2.7c0-1,0.2-1.8,0.5-2.7c0.3-0.8,0.8-1.6,1.4-2.2
		s1.3-1.1,2.2-1.4C86,0.2,86.9,0,87.9,0z M93.8,49.4H82v-33h11.9V49.4z"/>
</g>
</svg>
