<svg xmlns="http://www.w3.org/2000/svg" viewBox="0 0 72.7 28.1" width="72.7" height="28.1">
<g fill="#FFF">
<path d="M38.9,14.5h0.7l2.4-3.7h5.2L43,16.4l4.2,6.3h-5.1l-2.6-4.5h-0.6v4.5h-4.3V5.4h4.3V14.5z"/>
<path d="M50.9,5.1c0.3,0,0.7,0.1,1,0.2c0.3,0.1,0.6,0.3,0.8,0.5c0.2,0.2,0.4,0.5,0.5,0.8c0.1,0.3,0.2,0.6,0.2,1c0,0.3-0.1,0.7-0.2,1c-0.1,0.3-0.3,0.6-0.5,0.8c-0.2,0.2-0.5,0.4-0.8,0.5c-0.3,0.1-0.6,0.2-1,0.2c-0.3,0-0.7-0.1-1-0.2c-0.3-0.1-0.6-0.3-0.8-0.5c-0.2-0.2-0.4-0.5-0.5-0.8c-0.1-0.3-0.2-0.6-0.2-1c0-0.3,0.1-0.7,0.2-1c0.1-0.3,0.3-0.6,0.5-0.8c0.2-0.2,0.5-0.4,0.8-0.5C50.2,5.2,50.6,5.1,50.9,5.1z M53.1,23h-4.3v-12h4.3V23z"/>
<path d="M64.4,11h-2.7v-0.4c0-0.5,0.1-0.8,0.3-1.1c0.2-0.2,0.5-0.3,0.9-0.3c0.4,0,0.7,0,0.9,0.1c0.2,0.1,0.4,0.2,0.6,0.3V5.5c-0.2-0.1-0.5-0.1-0.8-0.2c-0.4-0.1-0.9-0.1-1.4-0.1c-0.7,0-1.3,0.1-1.9,0.3c-0.6,0.2-1.1,0.5-1.5,1c-0.4,0.4-0.8,1-1,1.6c-0.2,0.7-0.4,1.4-0.4,2.3V11h-1.9v3.8h1.9v8.2h4.3v-8.2h2.7V11z"/>
<path d="M68.9,5.1c0.3,0,0.7,0.1,1,0.2c0.3,0.1,0.6,0.3,0.8,0.5c0.2,0.2,0.4,0.5,0.5,0.8c0.1,0.3,0.2,0.6,0.2,1c0,0.3-0.1,0.7-0.2,1c-0.1,0.3-0.3,0.6-0.5,0.8c-0.2,0.2-0.5,0.4-0.8,0.5c-0.3,0.1-0.6,0.2-1,0.2c-0.3,0-0.7-0.1-1-0.2c-0.3-0.1-0.6-0.3-0.8-0.5c-0.2-0.2-0.4-0.5-0.5-0.8c-0.1-0.3-0.2-0.6-0.2-1c0-0.3,0.1-0.7,0.2-1c0.1-0.3,0.3-0.6,0.5-0.8c0.2-0.2,0.5-0.4,0.8-0.5C68.2,5.2,68.6,5.1,68.9,5.1z M71.1,23h-4.3v-12h4.3V23z"/>
</g>
<path fill="#71C885" d="M27,6c0-3.3-2.7-6-6-6H6c-3.3,0-6,2.7-6,6v16c0,3.3,2.7,6,6,6h15c3.3,0,6-2.7,6-6V6z"/>
<g fill="#FFF">
<path d="M6.3,14.1C6.3,14.1,6.3,14.1,6.3,14.1C6.4,14.2,6.4,14.2,6.3,14.1c0.4,0.3,0.8,0.5,0.9,0.6c0.1,0,0.1,0.1,0.2,0.1c1.8,0.8,4.7,0.3,6,0.1c0-0.4-0.1-0.8-0.1-1.2c-0.4,0.1-1.1,0.2-1.8,0.3c-1.6,0.1-2.9,0-3.7-0.3c-0.8-0.3-1.3-0.9-1.6-1.4c-0.2-0.5,0.1-1.2,0.1-1.2c0.8-1.8,3.8-0.6,3.8-0.6s-1-3.2,0.5-4c1.5-0.8,2.1,1,2.1,1c0,0,0.1-0.6,0.6-1.3c0,0-0.8-1.8-3.2-0.8C10,5.5,9.8,5.7,9.5,5.9C9,6.5,8.7,7.4,8.8,8.5c0,0.2,0,0.4,0,0.5c-0.1,0-0.3,0-0.5,0c-1,0-1.9,0.3-2.5,0.9c-0.2,0.2-0.4,0.5-0.5,0.7C5,11.3,5,12,5.2,12.7C5.4,13.2,5.8,13.7,6.3,14.1z"/>
<path d="M22.8,15.6c-0.2-0.6-0.7-1.2-1.3-1.6c-0.2-0.1-0.5-0.3-1-0.5c-1.9-0.7-4.4-0.3-5.6,0c0,0.2,0.1,0.8,0.2,1.2c0.4-0.1,0.8-0.2,1.5-0.3c1.6-0.1,2.9,0,3.7,0.3c0.8,0.3,1.3,0.9,1.6,1.4c0.2,0.5-0.1,1.2-0.1,1.2c-0.8,1.8-3.8,0.6-3.8,0.6s1.1,3.5-0.5,4c-1.8,0.6-2.4-1-2.4-1.2c0,0-0.2,0.6-0.6,1.1c0,0,0.9,2,3.4,1.3c0,0,0.5-0.2,0.8-0.5c0.5-0.6,0.8-1.5,0.8-2.6c0-0.2,0-0.4,0-0.5c0.1,0,0.3,0,0.5,0c1,0,1.9-0.3,2.5-0.9c0.2-0.2,0.4-0.5,0.5-0.7C23,17,23.1,16.3,22.8,15.6z"/>
<path d="M21.4,11c0.6,1.2-0.5,2-0.5,2c0.7,0.3,1.1,0.6,1.1,0.6c0.8-0.8,1.2-2.4,0-3.9c-0.6-0.6-1.4-0.9-2.5-0.8c-0.2,0-0.3,0-0.5,0c0-0.2,0-0.3,0-0.5c0-1.1-0.3-2-0.8-2.6c-0.2-0.2-0.4-0.4-0.7-0.5c-0.7-0.4-1.4-0.4-2.1-0.1c-5.6,2.5,1,14-3.5,16.4c-0.5,0.3-1.2-0.1-1.2-0.1c-1.7-0.9-0.6-4-0.6-4s-3,1-3.8-0.5c-0.6-1.2,0.4-2,0.4-2c-0.1-0.1-0.6-0.3-1-0.6c-1.1,0.9-1.1,2.6,0.1,3.9c0.6,0.6,1.4,0.9,2.5,0.8c0.2,0,0.3,0,0.5,0c0,0.2,0,0.3,0,0.5c0,1.1,0.3,2,0.8,2.6c0.2,0.2,0.4,0.4,0.7,0.5c0.7,0.4,1.4,0.4,2.1,0.1c0.8-0.3,1.5-1.1,2-2.3c1.6-3.8-2.5-12.3,1.5-14.1C16.3,6.2,17,6.5,17,6.5c1.7,0.9,0.6,4,0.6,4S20.7,9.4,21.4,11z"/>
</g>
</svg>
