<svg xmlns="http://www.w3.org/2000/svg" viewBox="0 0 27 27">
<path fill="#fff" d="M26.677,26.676 L21.338,26.676 L21.338,18.321 C21.338,16.329 21.304,13.766 18.564,13.766 C15.785,13.766 15.361,15.937 15.361,18.179 L15.361,26.676 L10.028,26.676 L10.028,9.496 L15.146,9.496 L15.146,11.845 L15.22,11.845 C15.932,10.494 17.674,9.07 20.271,9.07 C25.678,9.07 26.677,12.627 26.677,17.254 L26.677,26.676 L26.677,26.676 Z M4.008,7.149 C2.293,7.149 0.91,5.762 0.91,4.052 C0.91,2.343 2.293,0.956 4.008,0.956 C5.716,0.956 7.102,2.343 7.102,4.052 C7.102,5.762 5.716,7.149 4.008,7.149 L4.008,7.149 Z M1.334,9.496 L6.679,9.496 L6.679,26.676 L1.334,26.676 L1.334,9.496 Z"></path>
</svg>
