<?xml version="1.0" encoding="utf-8"?>
<!-- Generator: Adobe Illustrator 16.0.0, SVG Export Plug-In . SVG Version: 6.00 Build 0)  -->
<!DOCTYPE svg PUBLIC "-//W3C//DTD SVG 1.1//EN" "http://www.w3.org/Graphics/SVG/1.1/DTD/svg11.dtd">
<svg version="1.1" id="Layer_1" xmlns="http://www.w3.org/2000/svg" xmlns:xlink="http://www.w3.org/1999/xlink" x="0px" y="0px"
   width="107px" height="138.811px" viewBox="0 0 107 138.811" enable-background="new 0 0 107 138.811" xml:space="preserve">
<g>
  <defs>
    <rect id="SVGID_1_" width="107" height="138.811"/>
  </defs>
  <clipPath id="SVGID_2_">
    <use xlink:href="#SVGID_1_"  overflow="visible"/>
  </clipPath>
  <path clip-path="url(#SVGID_2_)" fill="#FFFFFF" d="M30.904,35.303c0-13.338,5.359-24.188,22.953-24.188
    c17.596,0,22.955,10.85,22.955,24.188v16.008h15.303V35.303C92.115,15.805,77.928,0,53.857,0C29.789,0,15.6,15.805,15.6,35.303
    v16.008h15.305V35.303z"/>
  <path clip-path="url(#SVGID_2_)" fill-rule="evenodd" clip-rule="evenodd" fill="#FFFFFF" d="M93.43,51.811H14.287
    C6.558,51.811,0,57.272,0,64.628v60.777c0,7.356,6.558,13.406,14.287,13.406H93.43c7.726,0,13.57-6.05,13.57-13.406V64.628
    C107,57.272,101.155,51.811,93.43,51.811 M97,117.452c0,5.898-5.225,10.359-11.124,10.359H21.8c-5.897,0-10.8-4.461-10.8-10.359
    V74.736c0-5.899,4.903-10.925,10.8-10.925h64.076C91.775,63.811,97,68.837,97,74.736V117.452z"/>
</g>
</svg>
