<?xml version="1.0" encoding="utf-8"?>
<!-- Generator: Adobe Illustrator 18.0.0, SVG Export Plug-In . SVG Version: 6.00 Build 0)  -->
<!DOCTYPE svg PUBLIC "-//W3C//DTD SVG 1.1//EN" "http://www.w3.org/Graphics/SVG/1.1/DTD/svg11.dtd">
<svg version="1.1" id="Layer_1" xmlns="http://www.w3.org/2000/svg" xmlns:xlink="http://www.w3.org/1999/xlink" x="0px" y="0px"
	 viewBox="0 0 90 120" enable-background="new 0 0 90 120" xml:space="preserve">
<g>
	<path fill-rule="evenodd" clip-rule="evenodd" fill="#FFFFFF" stroke="#C3D8F5" stroke-width="2" stroke-miterlimit="10" d="
		M27.8,10.6h43.1c10,0,18.1,8.1,18.1,18.1v70.7c0,10-8.1,18.1-18.1,18.1H27.8c-10,0-18.1-8.1-18.1-18.1V28.7
		C9.6,18.7,17.8,10.6,27.8,10.6z"/>
	<path fill-rule="evenodd" clip-rule="evenodd" fill="#F5F5F5" stroke="#7DADEF" stroke-width="2" stroke-miterlimit="10" d="
		M19.5,2.1h41.1c10,0,18.1,8.1,18.1,18.1v70.7c0,10-8.1,18.1-18.1,18.1H19.5c-10,0-18.1-8.1-18.1-18.1V20.2
		C1.4,10.2,9.5,2.1,19.5,2.1z"/>
	<path fill-rule="evenodd" clip-rule="evenodd" fill="#7DADEF" d="M40.2,79C27.4,79,17,68.6,17,55.9c0-12.8,10.4-23.2,23.2-23.2
		c12.8,0,23.2,10.4,23.2,23.2C63.3,68.6,53,79,40.2,79z M40.2,35.6c-11.2,0-20.3,9.1-20.3,20.3c0,11.2,9.1,20.3,20.3,20.3
		c11.2,0,20.3-9.1,20.3-20.3C60.4,44.7,51.4,35.6,40.2,35.6z M48.7,66.3l-0.5,0.3l-1.5,0.9l-0.9,0.6c-0.6,0.3-1.3,0.5-2,0.8V68
		l-0.2-2c0,0-0.1-1.1-0.3-1.4c-0.2-0.3-0.6-0.7-1-0.9c-0.4-0.2-0.7-0.2-1-0.5c-0.2-0.3-0.4-0.8-0.7-1.3c-0.3-0.5-0.7-1-0.7-1.2
		c0-0.2,0-2.7,0-2.7l0.3-2.3l0.7-0.5l0.8-0.9l0.6-0.2l1.9,0.4h1.3l0.6,1.1l1.3,1L48,58l1,0.4h1.2l0.8,1l0.5,1l0.2,0.7v1.2l-0.1,0.7
		C50.8,64.2,49.8,65.3,48.7,66.3z M43.9,45.7l-1.3,0.7l-0.5,1.4l-0.8,0.7h-2.6L37.4,49l-0.1,1l-0.5,0.8l-0.1,0.8l0.2,0.7l0.3,0.7
		c0,0,0.7,0.8,0,1.4c0,0-0.9,0-1.1-0.3c-0.2-0.3-1.5-1.1-1.8-1.4c-0.2-0.2-1-0.5-1-0.5l-1-0.4l-0.9-0.1l0.1-1.3l-0.1-1.1l-0.4-0.8
		l-1-0.8L30,47.2l0.1-0.5c2.5-2.4,5.9-3.9,9.7-3.9c2.1,0,4.1,0.5,5.9,1.4l0,0.3L43.9,45.7z"/>
</g>
</svg>
