<?xml version="1.0" encoding="UTF-8" standalone="no"?>
<svg width="62px" height="60px" viewBox="0 0 62 60" version="1.1" xmlns="http://www.w3.org/2000/svg" xmlns:xlink="http://www.w3.org/1999/xlink">
    <defs></defs>
    <g id="Page-1" stroke="none" stroke-width="1" fill="none" fill-rule="evenodd">
        <g id="notes" transform="translate(-0.096272, -0.904394)" fill="#E1E8EF">
            <path d="M0.587126054,53.0134256 C2.36220914,56.278277 11.2350824,59.8019122 16.5805441,59.8019105 C28.7924807,59.8019066 36.3797326,53.1088146 37.2652032,43.5005142 C38.0786523,34.673723 32.8127705,26.1291512 24.5185663,24.1183179 C14.2958699,21.6399441 9.30712147,29.7540677 10.7496639,39.2604909 C12.5638219,51.2158784 22.3351496,57.235684 37.5677246,59.1798702 C43.102456,59.8862871 48.0172091,60.0009232 55.8110429,59.8566628 C58.5235001,59.8064564 58.8107732,59.8019111 59.6781985,59.8019111 C60.782768,59.8019111 61.6781985,58.9064806 61.6781985,57.8019111 C61.6781985,56.6973416 60.782768,55.8019111 59.6781985,55.8019111 C58.7737044,55.8019111 58.4867956,55.8064507 55.7370174,55.8573478 C48.1262896,55.998219 43.3632257,55.8871211 38.0741501,55.2120581 C24.4078372,53.4677793 16.1823696,48.4003291 14.7043918,38.6603848 C13.6253021,31.5491323 16.8121025,26.3658497 23.5761144,28.0057057 C29.81985,29.5194268 33.9231183,36.1775084 33.2820815,43.1334423 C32.5889775,50.6543601 26.7537467,55.8019072 16.5805428,55.8019105 C12.5465005,55.8019118 5.0341759,52.8185838 4.10130463,51.1027846 C3.57369569,50.132371 2.35930847,49.7734069 1.38889485,50.3010158 C0.418481236,50.8286247 0.0595171174,52.043012 0.587126054,53.0134256 L0.587126054,53.0134256 Z" id="Shape"></path>
            <path d="M33.9416638,4.83071767 C32.9110988,5.22165605 32.4254494,6.36751799 32.856882,7.38994467 L49.5979473,47.0636136 C49.8137798,47.5751025 50.2974365,48.3172769 50.6683011,48.7107773 L59.2507456,57.8170527 C60.7629018,59.4215035 61.8769792,58.9417733 61.7377459,56.7238621 L60.8752564,42.9848697 C60.8403147,42.4282667 60.647455,41.5709308 60.4335383,41.0429185 L44.9400029,2.80010761 C44.5246641,1.77492355 43.3554376,1.25966182 42.3219622,1.65170421 L33.9416638,4.83071767 Z" id="Path-90"></path>
        </g>
    </g>
</svg>