<?xml version="1.0" encoding="UTF-8" standalone="no"?>
<svg width="62px" height="59px" viewBox="0 0 62 59" version="1.1" xmlns="http://www.w3.org/2000/svg" xmlns:xlink="http://www.w3.org/1999/xlink" xmlns:sketch="http://www.bohemiancoding.com/sketch/ns">
    <!-- Generator: Sketch 3.3.2 (12043) - http://www.bohemiancoding.com/sketch -->
    <title>notes</title>
    <desc>Created with Sketch.</desc>
    <defs></defs>
    <g id="Page-1" stroke="none" stroke-width="1" fill="none" fill-rule="evenodd" sketch:type="MSPage">
        <g id="notes" sketch:type="MSLayerGroup" transform="translate(-1.000000, -1.000000)" fill="#447AB7">
            <g id="Triangle-1-+-Path-88" transform="translate(0.988747, 22.722168)" sketch:type="MSShapeGroup">
                <path d="M0.598379411,30.2912576 C2.37346249,33.556109 11.2463358,37.0797442 16.5917975,37.0797425 C28.8037341,37.0797386 36.390986,30.3866466 37.2764565,20.7783462 C38.0899056,11.9515551 32.8240238,3.40698324 24.5298197,1.39614992 C14.3071233,-1.0822239 9.31837483,7.03189976 10.7609173,16.5383229 C12.5750753,28.4937104 22.3464029,34.513516 37.5789779,36.4577023 C43.1137094,37.1641192 48.0284624,37.2787552 55.8222963,37.1344948 C58.5347535,37.0842885 58.8220266,37.0797431 59.6894518,37.0797431 C60.7940213,37.0797431 61.6894518,36.1843126 61.6894518,35.0797431 C61.6894518,33.9751736 60.7940213,33.0797431 59.6894518,33.0797431 C58.7849578,33.0797431 58.4980489,33.0842827 55.7482708,33.1351799 C48.137543,33.276051 43.374479,33.1649531 38.0854035,32.4898901 C24.4190906,30.7456114 16.193623,25.6781612 14.7156451,15.9382168 C13.6365554,8.82696428 16.8233558,3.64368177 23.5873677,5.28353777 C29.8311034,6.79725885 33.9343717,13.4553405 33.2933348,20.4112743 C32.6002309,27.9321922 26.7650001,33.0797392 16.5917962,33.0797425 C12.5577538,33.0797438 5.04542925,30.0964158 4.11255799,28.3806166 C3.58494905,27.410203 2.37056183,27.0512389 1.40014821,27.5788478 C0.429734593,28.1064568 0.0707704743,29.320844 0.598379411,30.2912576 L0.598379411,30.2912576 Z" id="Shape"></path>
            </g>
            <path d="M34.9416638,4.83071767 C33.9110988,5.22165605 33.4254494,6.36751799 33.856882,7.38994467 L50.5979473,47.0636136 C50.8137798,47.5751025 51.2974365,48.3172769 51.6683011,48.7107773 L60.2507456,57.8170527 C61.7629018,59.4215035 62.8769792,58.9417733 62.7377459,56.7238621 L61.8752564,42.9848697 C61.8403147,42.4282667 61.647455,41.5709308 61.4335383,41.0429185 L45.9400029,2.80010761 C45.5246641,1.77492355 44.3554376,1.25966182 43.3219622,1.65170421 L34.9416638,4.83071767 Z" id="Path-90" sketch:type="MSShapeGroup"></path>
        </g>
    </g>
</svg>