<?xml version="1.0" encoding="UTF-8" standalone="no"?>
<svg width="17px" height="20px" viewBox="0 0 17 20" version="1.1" xmlns="http://www.w3.org/2000/svg" xmlns:xlink="http://www.w3.org/1999/xlink" xmlns:sketch="http://www.bohemiancoding.com/sketch/ns">
    <!-- Generator: Sketch 3.3.2 (12043) - http://www.bohemiancoding.com/sketch -->
    <title>Shape</title>
    <desc>Created with Sketch.</desc>
    <defs></defs>
    <g id="Page-1" stroke="none" stroke-width="1" fill="none" fill-rule="evenodd" sketch:type="MSPage">
        <g id="notification-3a" sketch:type="MSLayerGroup" fill-opacity="0.7" fill="#FFFFFF">
            <g id="Material-Design-Icons" sketch:type="MSShapeGroup">
                <g id="Social-(24)">
                    <g id="ic_notifications-copy">
                        <path d="M8.5,20 C9.6,20 10.5,19.1 10.5,18 L6.5,18 C6.5,19.1 7.4,20 8.5,20 L8.5,20 L8.5,20 Z M15,14 L15,8.5 C15,5.43 12.87,2.86 10,2.18 L10,1.5 C10,0.67 9.33,0 8.5,0 C7.67,0 7,0.67 7,1.5 L7,2.18 C4.13,2.86 2,5.43 2,8.5 L2,14 L0,16 L0,17 L17,17 L17,16 L15,14 L15,14 Z" id="Shape"></path>
                    </g>
                </g>
            </g>
        </g>
    </g>
</svg>