<?xml version="1.0" encoding="UTF-8" standalone="no"?>
<svg width="26px" height="30px" viewBox="0 0 26 30" version="1.1" xmlns="http://www.w3.org/2000/svg" xmlns:xlink="http://www.w3.org/1999/xlink" xmlns:sketch="http://www.bohemiancoding.com/sketch/ns">
    <!-- Generator: Sketch 3.3.2 (12043) - http://www.bohemiancoding.com/sketch -->
    <title>Notification 2</title>
    <desc>Created with Sketch.</desc>
    <defs></defs>
    <g id="Library-collaboration" stroke="none" stroke-width="1" fill="none" fill-rule="evenodd" sketch:type="MSPage">
        <g id="Library---loged-in---My-Library-Copy-20" sketch:type="MSArtboardGroup" transform="translate(-235.000000, -79.000000)" fill-opacity="0.9" fill="#FFFFFF">
            <g id="notifications-off" sketch:type="MSLayerGroup" transform="translate(235.000000, 79.500000)">
                <path d="M12.2777778,29 C13.8666667,29 15.1666667,27.695 15.1666667,26.1 L9.38888889,26.1 C9.38888889,27.695 10.6888889,29 12.2777778,29 L12.2777778,29 Z M21.6666667,12.325 C21.6666667,7.83 18.6333333,4.205 14.4444444,3.19 L14.4444444,2.175 C14.4444444,1.015 13.4333333,0 12.2777778,0 C11.1222222,0 10.1111111,1.015 10.1111111,2.175 L10.1111111,3.19 C9.38888889,3.335 8.66666667,3.625 8.08888889,3.915 L21.6666667,17.545 L21.6666667,12.325 L21.6666667,12.325 Z M21.2333333,24.65 L24.1222222,27.55 L26,25.665 L1.87777778,1.45 L0,3.335 L4.18888889,7.54 C3.32222222,8.99 2.88888889,10.585 2.88888889,12.325 L2.88888889,20.3 L0,23.2 L0,24.65 L21.2333333,24.65 L21.2333333,24.65 Z" id="Notification-2" sketch:type="MSShapeGroup"></path>
            </g>
        </g>
    </g>
</svg>