<svg viewBox="0 0 31 17" xmlns="http://www.w3.org/2000/svg">
  <path fill="#56B363" d="M21.8370456,10.6724548 C21.9530257,10.5837072 22.0626545,10.488896 22.1652523,10.3888889 C24.7568961,10.4991775 25.9251986,13.9594817 25.9758313,14.0925173 C26.0302145,14.2448534 25.9908336,14.4047718 25.8776914,14.5102353 C25.8383104,14.5460791 23.1147716,17 19.3454488,17 C17.4664133,17 15.3317139,16.39617 13.1351302,14.5764084 C13.0119865,14.4737022 12.9676047,14.3068907 13.0244884,14.1497295 C13.074496,14.0160046 14.2284213,10.5936121 16.7888103,10.3944033 C16.8947337,10.4789394 17.0009874,10.5578116 17.1074184,10.6312152 C17.4305349,9.89361959 17.6428571,9.18686869 17.6428571,9.18686869 C17.6428571,9.18686869 17.7817986,9.12905738 18.0059363,9.04697858 C16.6986622,8.31599717 15.7857143,6.65487424 15.7857143,4.72222222 C15.7857143,2.114457 17.4487149,0 19.4996861,0 C21.5512851,0 23.2142857,2.114457 23.2142857,4.72222222 C23.2142857,6.507839 22.4349668,8.06167067 21.2851571,8.86427922 C21.3317477,8.95242345 21.3571429,9.05907956 21.3571429,9.18686869 C21.3571429,9.70103442 21.5627031,10.2152002 21.8370456,10.6724548 Z"></path>
  <path fill="#56B363" d="M24.9483761,10.3527436 C25.0359667,10.2527114 25.1193135,10.1470441 25.1980327,10.0364477 C27.5161042,10.1786312 28.5610815,14.639639 28.6063694,14.8111479 C28.6219296,14.873971 28.6289079,14.9377943 28.6278899,15 L28.6278899,15 C30.0157099,14.3881144 30.8698492,13.63964 30.8906022,13.621271 C30.9918012,13.529537 31.0270251,13.3904369 30.9783825,13.2579322 C30.9330946,13.1422153 29.8881173,10.1323787 27.5700458,10.0364477 C27.4782782,10.1234357 27.3802217,10.2059043 27.2764844,10.2830986 L27.2764844,10.2830986 C27.0311013,9.88537002 26.8472399,9.43813916 26.8472399,8.99090829 C26.8472399,8.87975494 26.8245254,8.78698349 26.7828529,8.71031401 C27.8112895,8.01219024 28.5083439,6.66063872 28.5083439,5.10747622 C28.5083439,2.83919381 27.0208887,1 25.1858551,1 C24.7680829,1 24.3683079,1.09538596 24,1.26950316 L24,1.26950316 C25.249221,1.85994886 26.1363308,3.35575954 26.1363308,5.10747622 C26.1363308,6.66063872 25.4392764,8.01219024 24.4108398,8.71031401 C24.4525124,8.78698349 24.4752268,8.87975494 24.4752268,8.99090829 C24.4752268,9.46443984 24.6813491,9.9379714 24.9483761,10.3527436 Z"></path>
  <rect fill="#56B263" x="4" y="3" width="3" height="11" rx="1"></rect>
  <rect fill="#56B263" x="0" y="7" width="11" height="3" rx="1"></rect>
</svg>
