<?xml version="1.0" encoding="utf-8"?>
<!-- Generator: Adobe Illustrator 18.0.0, SVG Export Plug-In . SVG Version: 6.00 Build 0)  -->
<!DOCTYPE svg PUBLIC "-//W3C//DTD SVG 1.1//EN" "http://www.w3.org/Graphics/SVG/1.1/DTD/svg11.dtd">
<svg version="1.1" id="Layer_2" xmlns="http://www.w3.org/2000/svg" xmlns:xlink="http://www.w3.org/1999/xlink" x="0px" y="0px"
	 viewBox="0 0 90 120" enable-background="new 0 0 90 120" xml:space="preserve">
<g>
	<path fill-rule="evenodd" clip-rule="evenodd" fill="#FFFFFF" stroke="#C3D8F5" stroke-width="2" stroke-miterlimit="10" d="
		M26.9,9.6H70c10,0,18.1,8.1,18.1,18.1v70.7c0,10-8.1,18.1-18.1,18.1H26.9c-10,0-18.1-8.1-18.1-18.1V27.7
		C8.8,17.7,16.9,9.6,26.9,9.6z"/>
	<path fill-rule="evenodd" clip-rule="evenodd" fill="#F06463" d="M18.7,1.1h41.1c10,0,18.1,8.1,18.1,18.1v70.7
		c0,10-8.1,18.1-18.1,18.1H18.7c-10,0-18.1-8.1-18.1-18.1V19.2C0.6,9.2,8.7,1.1,18.7,1.1z"/>
	<g>
		<path fill="#FFFFFF" d="M31.6,43.3c0-4.4,1.8-8,7.6-8c5.8,0,7.6,3.6,7.6,8v5.3h5.1v-5.3c0-6.5-4.7-11.7-12.7-11.7
			c-8,0-12.7,5.2-12.7,11.7v5.3h5.1V43.3z"/>
		<path fill-rule="evenodd" clip-rule="evenodd" fill="#FFFFFF" d="M52.4,48.6H26.1c-2.6,0-4.6,2-4.6,4.4v20.2
			c0,2.4,2.1,4.4,4.6,4.4h26.2c2.6,0,4.6-2,4.6-4.4V53C57,50.6,54.9,48.6,52.4,48.6z M51.9,70.4c0,1.7-1.5,3.1-3.3,3.1H29.9
			c-1.8,0-3.3-1.4-3.3-3.1v-14c0-1.7,1.5-3.1,3.3-3.1h18.7c1.8,0,3.3,1.4,3.3,3.1V70.4z"/>
	</g>
</g>
</svg>
