<?xml version="1.0" encoding="utf-8"?>
<!-- Generator: Adobe Illustrator 18.1.0, SVG Export Plug-In . SVG Version: 6.00 Build 0) -->
<!DOCTYPE svg PUBLIC "-//W3C//DTD SVG 1.1//EN" "http://www.w3.org/Graphics/SVG/1.1/DTD/svg11.dtd">
<svg version="1.1" id="Layer_1_copy" xmlns="http://www.w3.org/2000/svg" xmlns:xlink="http://www.w3.org/1999/xlink" x="0px"
  y="0px" viewBox="0 0 27 35" enable-background="new 0 0 27 35" xml:space="preserve">
<g>
 <path fill="#FFFFFF" stroke="#D3D3D3" stroke-miterlimit="10" d="M22.2,34H3.8c-1.3,0-2.3-1-2.3-2.3V4.3C1.5,3,2.5,2,3.8,2h18.4
  c1.3,0,2.3,1,2.3,2.3v27.4C24.5,33,23.5,34,22.2,34z"/>
 <path fill="#F06361" d="M20.7,32H2.3C1,32,0,31,0,29.7L0,2.3C0,1,1,0,2.3,0l18.4,0C22,0,23,1,23,2.3v27.4C23,31,22,32,20.7,32z"/>
 <path fill-rule="evenodd" clip-rule="evenodd" fill="#FFFFFF" d="M16.2,23H7.8C7.4,23,7,22.6,7,22.1V16c0-0.5,0.4-0.9,0.8-0.9v-1.8
  C7.8,11,9.7,9,12,9c2.3,0,4.2,2,4.2,4.4v1.8c0.5,0,0.8,0.4,0.8,0.9v6.1C17,22.6,16.6,23,16.2,23z M15.3,13c0-1.7-1.5-3.1-3.3-3.1
  c-1.8,0-3.3,1.4-3.3,3.1v2.1h6.6V13z M16.2,16H7.9v6.1h8.3V16z"/>
</g>
</svg>
