<?xml version="1.0" encoding="utf-8"?>
<!-- Generator: Adobe Illustrator 18.1.0, SVG Export Plug-In . SVG Version: 6.00 Build 0) -->
<!DOCTYPE svg PUBLIC "-//W3C//DTD SVG 1.1//EN" "http://www.w3.org/Graphics/SVG/1.1/DTD/svg11.dtd">
<svg version="1.1" id="Layer_1" xmlns="http://www.w3.org/2000/svg" xmlns:xlink="http://www.w3.org/1999/xlink" x="0px" y="0px"
  viewBox="0 0 57 77" enable-background="new 0 0 57 77" xml:space="preserve">
<g>
 <path fill="#FFFFFF" stroke="#D3D3D3" stroke-miterlimit="10" d="M50.1,73.3h-42c-1.7,0-3-1.3-3-3v-62c0-1.6,1.3-3,3-3h42
  c1.7,0,3,1.3,3,3v62C53.1,71.9,51.8,73.3,50.1,73.3z"/>
 <path fill="#FFFFFF" stroke="#D3D3D3" stroke-miterlimit="10" d="M47.6,70.3h-42c-1.6,0-3-1.3-3-3v-62c0-1.7,1.3-3,3-3h42
  c1.7,0,3,1.4,3,3v62C50.6,69,49.3,70.3,47.6,70.3z"/>
 <path fill="#F06361" d="M45.1,68h-42c-1.7,0-3-1.3-3-3V3c0-1.6,1.4-3,3-3h42c1.7,0,3,1.4,3,3v62C48.1,66.7,46.7,68,45.1,68z"/>
</g>
<path fill-rule="evenodd" clip-rule="evenodd" fill="#FFFFFF" d="M32.8,49H15.3c-1,0-1.8-0.8-1.8-1.7V35c0-1,0.8-1.7,1.8-1.7v-3.5
 c0-4.8,3.9-8.8,8.7-8.8c4.8,0,8.8,3.9,8.8,8.8v3.5c1,0,1.7,0.8,1.7,1.7v12.3C34.5,48.2,33.7,49,32.8,49z M30.8,29
 c0-3.4-3.1-6.2-6.9-6.2c-3.8,0-6.9,2.8-6.9,6.2v4.1h13.8V29z M32.8,35H15.4v12.3h17.4V35z"/>
</svg>
