<?xml version="1.0" encoding="utf-8"?>
<!-- Generator: Adobe Illustrator 18.0.0, SVG Export Plug-In . SVG Version: 6.00 Build 0)  -->
<!DOCTYPE svg PUBLIC "-//W3C//DTD SVG 1.1//EN" "http://www.w3.org/Graphics/SVG/1.1/DTD/svg11.dtd">
<svg version="1.1" id="Layer_2" xmlns="http://www.w3.org/2000/svg" xmlns:xlink="http://www.w3.org/1999/xlink" x="0px" y="0px"
	 viewBox="0 0 90 120" enable-background="new 0 0 90 120" xml:space="preserve">
<g>
	<path fill-rule="evenodd" clip-rule="evenodd" fill="#FFFFFF" stroke="#C3D8F5" stroke-width="2" stroke-miterlimit="10" d="
		M27.5,9.6h43.1c10,0,18.1,8.1,18.1,18.1v70.7c0,10-8.1,18.1-18.1,18.1H27.5c-10,0-18.1-8.1-18.1-18.1V27.7
		C9.4,17.7,17.5,9.6,27.5,9.6z"/>
	<path fill-rule="evenodd" clip-rule="evenodd" fill="#73C885" d="M19.3,1.1h41.1c10,0,18.1,8.1,18.1,18.1v70.7
		c0,10-8.1,18.1-18.1,18.1H19.3c-10,0-18.1-8.1-18.1-18.1V19.2C1.1,9.2,9.3,1.1,19.3,1.1z"/>
	<path fill-rule="evenodd" clip-rule="evenodd" fill="#FFFFFF" d="M39.9,78c-12.8,0-23.2-10.4-23.2-23.2c0-12.8,10.4-23.2,23.2-23.2
		c12.8,0,23.2,10.4,23.2,23.2C63.1,67.6,52.7,78,39.9,78z M39.9,34.6c-11.2,0-20.3,9.1-20.3,20.3c0,11.2,9.1,20.3,20.3,20.3
		c11.2,0,20.3-9.1,20.3-20.3C60.2,43.7,51.1,34.6,39.9,34.6z M48.4,65.3l-0.5,0.3l-1.5,0.9l-0.9,0.6c-0.6,0.3-1.3,0.5-2,0.8V67
		l-0.2-2c0,0-0.1-1.1-0.3-1.4c-0.2-0.3-0.6-0.7-1-0.9c-0.4-0.2-0.7-0.2-1-0.5c-0.2-0.3-0.4-0.8-0.7-1.3c-0.3-0.5-0.7-1-0.7-1.2
		c0-0.2,0-2.7,0-2.7l0.3-2.3l0.7-0.5l0.8-0.9l0.6-0.2l1.9,0.4h1.3l0.6,1.1l1.3,1l0.8,1.3l1,0.4H50l0.8,1l0.5,1l0.2,0.7v1.2l-0.1,0.7
		C50.6,63.2,49.6,64.3,48.4,65.3z M43.7,44.7l-1.3,0.7l-0.5,1.4l-0.8,0.7h-2.6L37.2,48l-0.1,1l-0.5,0.8l-0.1,0.8l0.2,0.7l0.3,0.7
		c0,0,0.7,0.8,0,1.4c0,0-0.9,0-1.1-0.3c-0.2-0.3-1.5-1.1-1.8-1.4c-0.2-0.2-1-0.5-1-0.5l-1-0.4l-0.9-0.1l0.1-1.3l-0.1-1.1l-0.4-0.8
		l-1-0.8l-0.1-0.8l0.1-0.5c2.5-2.4,5.9-3.9,9.7-3.9c2.1,0,4.1,0.5,5.9,1.4l0,0.3L43.7,44.7z"/>
</g>
</svg>
