<?xml version="1.0" encoding="utf-8"?>
<!-- Generator: Adobe Illustrator 18.1.0, SVG Export Plug-In . SVG Version: 6.00 Build 0) -->
<!DOCTYPE svg PUBLIC "-//W3C//DTD SVG 1.1//EN" "http://www.w3.org/Graphics/SVG/1.1/DTD/svg11.dtd">
<svg version="1.1" id="Layer_1" xmlns="http://www.w3.org/2000/svg" xmlns:xlink="http://www.w3.org/1999/xlink" x="0px" y="0px"
  viewBox="0 0 27 35" enable-background="new 0 0 27 35" xml:space="preserve">
<g>
 <path fill="#FFFFFF" stroke="#D3D3D3" stroke-miterlimit="10" d="M22.2,34H3.8c-1.3,0-2.3-1-2.3-2.3V4.3C1.5,3,2.5,2,3.8,2h18.4
  c1.3,0,2.3,1,2.3,2.3v27.4C24.5,33,23.5,34,22.2,34z"/>
 <path fill="#75C485" d="M20.7,32H2.3C1,32,0,31,0,29.7L0,2.3C0,1,1,0,2.3,0l18.4,0C22,0,23,1,23,2.3v27.4C23,31,22,32,20.7,32z"/>
 <g>
  <g>
   <path fill-rule="evenodd" clip-rule="evenodd" fill="#FFFFFF" d="M12,8.5c-4.1,0-7.5,3.4-7.5,7.5c0,4.1,3.4,7.5,7.5,7.5
    c4.1,0,7.5-3.4,7.5-7.5C19.5,11.9,16.1,8.5,12,8.5z M12,22.6c-3.6,0-6.6-2.9-6.6-6.6c0-3.6,2.9-6.6,6.6-6.6
    c3.6,0,6.6,2.9,6.6,6.6C18.6,19.6,15.6,22.6,12,22.6z M11.1,14.1l0-0.3l0.4-0.2h0.9l0.3-0.2l0.2-0.4l0.4-0.2l0.6-0.4l0-0.1
    c-0.6-0.3-1.2-0.4-1.9-0.4c-1.2,0-2.3,0.5-3.1,1.3l0,0.2l0,0.3l0.3,0.3L9.2,14l0,0.3l0,0.4l0.3,0l0.3,0.1c0,0,0.3,0.1,0.3,0.2
    s0.5,0.3,0.6,0.4c0.1,0.1,0.4,0.1,0.4,0.1c0.2-0.2,0-0.5,0-0.5L11,14.8l-0.1-0.2l0-0.3L11.1,14.1z M15.5,17.1l-0.3-0.3h-0.4
    l-0.3-0.1l-0.3-0.4L13.9,16l-0.2-0.4h-0.4l-0.6-0.1l-0.2,0.1l-0.3,0.3L12,16l-0.1,0.7c0,0,0,0.8,0,0.9s0.1,0.2,0.2,0.4
    c0.1,0.2,0.2,0.3,0.2,0.4c0.1,0.1,0.2,0.1,0.3,0.2s0.3,0.2,0.3,0.3c0.1,0.1,0.1,0.5,0.1,0.5l0.1,0.6v0.3c0.2-0.1,0.4-0.1,0.7-0.2
    l0.3-0.2l0.5-0.3l0.2-0.1c0.4-0.3,0.7-0.7,0.9-1.1l0-0.2v-0.4l-0.1-0.2L15.5,17.1z"/>
  </g>
 </g>
</g>
</svg>
