<svg xmlns="http://www.w3.org/2000/svg" xmlns:xlink="http://www.w3.org/1999/xlink" version="1.1" x="0" y="0" viewBox="0 0 57 77" enable-background="new 0 0 57 77" xml:space="preserve"><path fill="#FEFEFE" stroke="#D3D3D3" stroke-miterlimit="10" d="M50.1 73.3h-42c-1.7 0-3-1.3-3-3v-62c0-1.6 1.3-3 3-3h42c1.7 0 3 1.3 3 3v62C53.1 71.9 51.8 73.3 50.1 73.3z"/><path fill="#FFFFFF" stroke="#D3D3D3" stroke-miterlimit="10" d="M47.6 70.3h-42c-1.6 0-3-1.3-3-3v-62c0-1.7 1.3-3 3-3h42c1.7 0 3 1.4 3 3v62C50.6 69 49.3 70.3 47.6 70.3z"/><path fill="#75C485" d="M45.1 68h-42c-1.7 0-3-1.3-3-3V3c0-1.6 1.4-3 3-3h42c1.7 0 3 1.4 3 3v62C48.1 66.7 46.7 68 45.1 68z"/><path fill-rule="evenodd" clip-rule="evenodd" fill="#FFFFFF" d="M24.1 21.3c-7.7 0-14 6.3-14 14s6.3 14 14 14c7.7 0 14-6.3 14-14S31.8 21.3 24.1 21.3zM24.1 47.6c-6.8 0-12.2-5.5-12.2-12.3s5.5-12.3 12.2-12.3c6.8 0 12.3 5.5 12.3 12.3S30.9 47.6 24.1 47.6zM22.4 31.8l0-0.6 0.7-0.3h1.6l0.5-0.4 0.3-0.8 0.8-0.4 1.1-0.8 0-0.2c-1.1-0.5-2.3-0.8-3.6-0.8 -2.3 0-4.4 0.9-5.9 2.4L18 30.1l0 0.5 0.6 0.5 0.2 0.5 0 0.6 0 0.8 0.6 0 0.6 0.2c0 0 0.5 0.1 0.6 0.3 0.1 0.1 1 0.6 1.1 0.8s0.7 0.2 0.7 0.2c0.4-0.4 0-0.9 0-0.9l-0.2-0.4 -0.1-0.4 0.1-0.5L22.4 31.8zM30.7 37.4l-0.5-0.6h-0.7l-0.6-0.2 -0.5-0.8 -0.8-0.6 -0.3-0.7h-0.8l-1.1-0.2L25 34.5 24.5 35l-0.4 0.3 -0.2 1.4c0 0 0 1.5 0 1.6 0 0.1 0.2 0.4 0.4 0.7s0.3 0.6 0.4 0.8 0.3 0.2 0.6 0.3c0.3 0.1 0.5 0.4 0.6 0.5 0.1 0.2 0.2 0.9 0.2 0.9l0.1 1.2v0.5c0.4-0.1 0.8-0.3 1.2-0.5l0.5-0.4 0.9-0.5 0.3-0.2c0.7-0.6 1.3-1.3 1.8-2l0.1-0.4v-0.7L31 38 30.7 37.4z"/></svg>
