<?xml version="1.0" encoding="utf-8"?>
<!-- Generator: Adobe Illustrator 18.1.0, SVG Export Plug-In . SVG Version: 6.00 Build 0) -->
<!DOCTYPE svg PUBLIC "-//W3C//DTD SVG 1.1//EN" "http://www.w3.org/Graphics/SVG/1.1/DTD/svg11.dtd">
<svg version="1.1" id="Layer_1" xmlns="http://www.w3.org/2000/svg" xmlns:xlink="http://www.w3.org/1999/xlink" x="0px" y="0px"
  viewBox="0 0 27 28" enable-background="new 0 0 27 28" xml:space="preserve">
<g id="Shape_1_2_">
 <g>
  <path fill-rule="evenodd" clip-rule="evenodd" fill="#F79226" d="M15.7,2.1c-1.1-2.7-4.9-2.9-5.9,0C7.4,0.2,4.4,2.5,5,5.4
   c0.6,3.3,4.3,4.1,8.1,7.3C14.6,7.6,17,5.2,15.7,2.1z"/>
 </g>
</g>
<g id="Shape_1_copy_2_">
 <g>
  <path fill-rule="evenodd" clip-rule="evenodd" fill="#9A85BE" d="M24,9.6c1.9-2.4-0.3-5.4-3.2-4.9c-3.2,0.6-4,4.3-7.3,8
   c5,1.5,7.4,3.9,10.5,2.7C26.8,14.3,27,10.6,24,9.6z"/>
 </g>
</g>
<g id="Shape_1_copy_2_2_">
 <g>
  <path fill-rule="evenodd" clip-rule="evenodd" fill="#F27AAA" d="M2.3,9.7c-2.8,0.9-3.2,4.7-0.3,5.8c-2,2.3,0,5.5,2.9,5.1
   c3.3-0.4,4.2-3.7,7.8-7.6C7.9,11.4,5.4,8.7,2.3,9.7z"/>
 </g>
</g>
<g id="Shape_1_copy_3_2_">
 <g>
  <path fill-rule="evenodd" clip-rule="evenodd" fill="#54A4DB" d="M20.8,20.9c-0.4-3.3-3.7-4.2-7.6-7.8c-1.6,4.7-4.4,7.2-3.3,10.3
   c0.9,2.8,4.7,3.2,5.8,0.3C18,25.8,21.2,23.8,20.8,20.9z"/>
 </g>
</g>
<g id="Shape_4_2_">
 <g>
  <path fill-rule="evenodd" clip-rule="evenodd" fill="#76C485" d="M9.5,18.5c0,0-4.2,5.9-3.3,9.1c0,0,0.5,0.7,1.3-0.1
   C7.5,27.6,6.3,26.4,9.5,18.5z"/>
 </g>
</g>
</svg>
