<?xml version="1.0" encoding="utf-8"?>
<!-- Generator: Adobe Illustrator 18.1.0, SVG Export Plug-In . SVG Version: 6.00 Build 0) -->
<!DOCTYPE svg PUBLIC "-//W3C//DTD SVG 1.1//EN" "http://www.w3.org/Graphics/SVG/1.1/DTD/svg11.dtd">
<svg version="1.1" id="Layer_1" xmlns="http://www.w3.org/2000/svg" xmlns:xlink="http://www.w3.org/1999/xlink" x="0px" y="0px"
  viewBox="0 0 113.5 110" enable-background="new 0 0 113.5 110" xml:space="preserve">
<g>
 <path fill="#73C486" d="M7.9,55.4c0,0,0.1,0.1,0.1,0.1c0.1,0.1,0.2,0.1,0.3,0.2c2,1.4,4.4,2.6,5.4,3.1c0.4,0.2,0.8,0.4,1.2,0.5
  C26.2,64,44.9,61.4,53.1,60c-0.3-2.4-0.6-4.8-0.9-7.3c-2.6,0.4-7,1.4-11.3,1.8c-10.1,0.8-18.1,0.2-23.3-2c-5-2.1-8.4-5.2-9.8-8.5
  c-1.4-3.1,0.6-7.3,0.6-7.3C13.6,26,32.7,33,32.7,33S26.5,13.6,36,8.7c9.5-4.9,13.2,5.9,13.3,5.9c0,0,0.9-3.7,4-8c0,0-5.3-11-20-4.7
  c-1.9,0.8-3.5,1.9-4.9,3.3c-3.5,3.5-5.2,8.9-5,15.6c0,1.1,0.1,2.2,0.2,3.1c-0.9-0.1-1.9-0.2-3-0.2C14,23.6,8.6,25.4,5,29.1
  c-1.3,1.3-2.3,2.8-3.2,4.5c-2.1,4.4-2.4,9-0.8,13.1C2.3,49.9,4.6,52.9,7.9,55.4z"/>
 <path fill="#73C486" d="M112.5,64.2c-1.4-3.8-4.4-7.2-8.5-9.8c-1.1-0.7-3.4-2-6.6-3.2c-11.9-4.2-27.7-1.6-35.3-0.3
  c0.1,1.3,0.8,5.2,1,7.1c2.8-0.5,5.1-1.2,9.5-1.6c10.1-0.8,18.1-0.2,23.3,2c5,2.1,8.4,5.2,9.8,8.5c1.4,3.1-0.6,7.3-0.6,7.3
  c-5.2,10.7-24.3,3.7-24.3,3.7s6.9,21.1-3.3,24.4C66,105.8,62.6,96,62.3,94.8c0,0-1.4,3.4-3.7,6.5c0,0,5.6,12.3,21.7,7.7
  c0,0,3.1-1.1,4.9-3.3c3.2-3.8,5.2-8.9,5-15.6c0-1.1-0.1-2.2-0.2-3.1c0.9,0.1,1.9,0.2,3,0.2c6.6,0.1,12-1.7,15.6-5.3
  c1.3-1.3,2.3-2.8,3.2-4.5C113.8,72.9,114.1,68.4,112.5,64.2z"/>
 <path fill="#73C486" d="M103.6,36.4c3.7,7.3-3.5,12.3-3.5,12.3c4.7,1.8,7.2,3.7,7.2,3.7c5-4.8,7.9-14.8-0.3-23.7
  c-3.5-3.8-8.9-5.3-15.5-5c-1.1,0-2.1,0.1-3.1,0.2c0.1-0.9,0.2-2,0.2-3c0.1-6.6-1.7-12-5.3-15.7c-1.3-1.3-2.8-2.3-4.5-3.2
  c-4.4-2.1-9-2.6-13.1-0.8c-35.8,15.4,6.3,85.3-22,100.2c-3,1.6-7.3-0.6-7.3-0.6c-10.7-5.3-3.7-24.4-3.7-24.4S13.5,82.6,8.6,73
  c-3.9-7.5,2.3-12,2.3-12C10,60.7,7,59.1,4.7,57.2C-2,62.7-2.6,73,5.2,80.8c3.5,3.5,8.9,5.3,15.5,5c1.1,0,2.1-0.1,3.1-0.2
  c-0.1,0.9-0.2,2-0.2,3c-0.1,6.6,1.7,12,5.3,15.7c1.3,1.3,2.8,2.3,4.5,3.2c4.4,2.1,8.9,2.4,13.1,0.8c5.2-2,9.6-7,12.5-13.9
  c10-23.3-15.9-75.4,9.5-86.2c2.9-1.2,7.3,0.6,7.3,0.6c10.7,5.3,3.7,24.4,3.7,24.4S98.8,26.8,103.6,36.4z"/>
</g>
</svg>