<?xml version="1.0" encoding="utf-8"?>
<!-- Generator: Adobe Illustrator 18.0.0, SVG Export Plug-In . SVG Version: 6.00 Build 0) -->
<!DOCTYPE svg PUBLIC "-//W3C//DTD SVG 1.1//EN" "http://www.w3.org/Graphics/SVG/1.1/DTD/svg11.dtd">
<svg version="1.1" id="Library_icon_1_" xmlns="http://www.w3.org/2000/svg" xmlns:xlink="http://www.w3.org/1999/xlink" x="0px"
  y="0px" viewBox="0 0 39.8 51.8" enable-background="new 0 0 39.8 51.8" xml:space="preserve">
<g id="Rounded_Rectangle_39_copy_2">
 <g>
  <path fill-rule="evenodd" clip-rule="evenodd" fill="#FFFFFF" d="M36,4.5H7.5c-1.7,0-3,1.3-3,3V48c0,1.7,1.3,3,3,3H36
   c1.7,0,3-1.3,3-3V7.5C39,5.8,37.7,4.5,36,4.5z"/>
 </g>
 <g>
  <path fill="none" stroke="#E7E7E7" stroke-miterlimit="10" d="M36,4.5H7.5c-1.7,0-3,1.3-3,3V48c0,1.7,1.3,3,3,3H36
   c1.7,0,3-1.3,3-3V7.5C39,5.8,37.7,4.5,36,4.5z"/>
 </g>
</g>
<g id="Rounded_Rectangle_39_copy">
 <g>
  <path fill-rule="evenodd" clip-rule="evenodd" fill="#FFFFFF" d="M33.7,2.2H5.2c-1.7,0-3,1.3-3,3v40.5c0,1.7,1.3,3,3,3h28.5
   c1.7,0,3-1.3,3-3V5.2C36.7,3.6,35.4,2.2,33.7,2.2z"/>
 </g>
 <g>
  <path fill="none" stroke="#E7E7E7" stroke-miterlimit="10" d="M33.7,2.2H5.2c-1.7,0-3,1.3-3,3v40.5c0,1.7,1.3,3,3,3h28.5
   c1.7,0,3-1.3,3-3V5.2C36.7,3.6,35.4,2.2,33.7,2.2z"/>
 </g>
</g>
<g id="Rounded_Rectangle_39">
 <g>
  <path fill-rule="evenodd" clip-rule="evenodd" fill="#F16564" d="M31.5,0H3C1.3,0,0,1.3,0,3v40.5c0,1.7,1.3,3,3,3h28.5
   c1.7,0,3-1.3,3-3V3C34.5,1.3,33.2,0,31.5,0z"/>
 </g>
</g>
<g id="Lock_icon_copy">
 <g>
  <path fill="#FFFFFF" d="M22.8,20h-0.2v-2.2c0-2.7-2-5-5.4-5c-3.4,0-5.4,2.2-5.4,5V20h-0.2c-1.1,0-2,0.8-2,1.9v8.5
   c0,1,0.9,1.9,2,1.9h11.1c1.1,0,2-0.8,2-1.9v-8.5C24.8,20.8,23.9,20,22.8,20z M14,17.7c0-1.9,0.8-3.4,3.2-3.4
   c2.5,0,3.2,1.5,3.2,3.4V20H14V17.7z M23.2,30c0,0.4-0.3,0.7-0.7,0.7H12c-0.4,0-0.7-0.3-0.7-0.7v-7.5c0-0.4,0.3-0.7,0.7-0.7h10.5
   c0.4,0,0.7,0.3,0.7,0.7V30z"/>
 </g>
</g>
</svg>