<?xml version="1.0" encoding="UTF-8" standalone="no"?>
<svg width="18px" height="18px" viewBox="0 0 18 18" version="1.1" xmlns="http://www.w3.org/2000/svg" xmlns:xlink="http://www.w3.org/1999/xlink" xmlns:sketch="http://www.bohemiancoding.com/sketch/ns">
    <!-- Generator: Sketch 3.3.2 (12043) - http://www.bohemiancoding.com/sketch -->
    <title>Rss icon</title>
    <desc>Created with Sketch.</desc>
    <defs></defs>
    <g id="Rss-feed" stroke="none" stroke-width="1" fill="none" fill-rule="evenodd" sketch:type="MSPage">
        <g id="Library---loged-in---My-Library-Copy-33" sketch:type="MSArtboardGroup" transform="translate(-1015.000000, -931.000000)" fill="#FFFFFF">
            <g id="Rss" sketch:type="MSLayerGroup" transform="translate(943.000000, 921.000000)">
                <g id="Subscribe-to-our-fee-+-Imported-Layers" transform="translate(72.000000, 10.000000)" sketch:type="MSShapeGroup">
                    <g id="Rss-icon">
                        <path d="M0.0223923445,2.91062559 C0.0223923445,2.91062559 14.5334928,3.52603791 14.918555,17.9638294 L17.9784689,17.9638294 C17.9784689,17.9638294 18.3875598,1.51421801 0.0223923445,0.0284075829 L0.0223923445,2.91062559" id="Fill-1"></path>
                        <path d="M5.70660287,15.0995261 C5.70660287,16.6542654 4.43420096,17.9146919 2.86449761,17.9146919 C1.29488038,17.9146919 0.0223923445,16.6542654 0.0223923445,15.0995261 C0.0223923445,13.5447867 1.29488038,12.2843602 2.86449761,12.2843602 C4.43420096,12.2843602 5.70660287,13.5447867 5.70660287,15.0995261" id="Fill-2"></path>
                        <path d="M0.0223923445,8.95734597 C0.0223923445,8.95734597 8.51391388,8.77836967 9.2198756,17.9638294 L12.1220096,17.9638294 C12.1220096,17.9638294 12.541177,6.69668246 0.0223923445,6.03554502 L0.0223923445,8.95734597" id="Fill-3"></path>
                    </g>
                </g>
            </g>
        </g>
    </g>
</svg>
