<svg viewBox="0 0 21 21" xmlns="http://www.w3.org/2000/svg">
<path fill="#6fa6ef" transform="translate(-915,-7)" d="M923.579077,21.3163659 C922.109589,21.3163659 920.640101,20.7565366 919.520955,19.6379024 C917.283175,17.400122 917.279077,13.7553415 919.516345,11.517561 C920.634467,10.3999512 922.103443,9.84114634 923.572419,9.84114634 C925.044467,9.84114634 926.517028,10.4014878 927.636687,11.5216585 C929.874979,13.7589268 929.874979,17.400122 927.636687,19.6379024 C926.518053,20.7565366 925.048565,21.3163659 923.579077,21.3163659 M923.573443,7 C921.376638,7 919.180858,7.83590244 917.50854,9.50873171 C914.161345,12.8554146 914.164931,18.2995366 917.512638,21.6462195 C919.181882,23.3159756 921.374589,24.1498293 923.568833,24.1498293 C925.22476,24.1498293 926.881199,23.6745122 928.313297,22.7243902 L932.659272,27.0703659 C933.030101,27.4411951 933.505419,27.6322439 933.947955,27.6322439 C934.297272,27.6322439 934.626614,27.5134146 934.869394,27.2711463 C935.423589,26.716439 935.330882,25.7243171 934.668101,25.0615366 L930.39076,20.7836829 C930.448638,20.707878 930.511126,20.6346341 930.565931,20.5578049 C932.956858,17.2106098 932.646979,12.5137805 929.645516,9.51231707 C927.971662,7.83795122 925.772297,7 923.573443,7"></path>
</svg>
