<?xml version="1.0" encoding="utf-8"?>
<!-- Generator: Adobe Illustrator 18.0.0, SVG Export Plug-In . SVG Version: 6.00 Build 0)  -->
<!DOCTYPE svg PUBLIC "-//W3C//DTD SVG 1.1//EN" "http://www.w3.org/Graphics/SVG/1.1/DTD/svg11.dtd">
<svg version="1.1" id="Layer_2" xmlns="http://www.w3.org/2000/svg" xmlns:xlink="http://www.w3.org/1999/xlink" x="0px" y="0px"
	 viewBox="0 0 90 120" enable-background="new 0 0 90 120" xml:space="preserve">
<g>
	<path fill-rule="evenodd" clip-rule="evenodd" fill="#FFFFFF" stroke="#C3D8F5" stroke-width="2" stroke-miterlimit="10" d="
		M27.8,10.6h43.1c10,0,18.1,8.1,18.1,18.1v70.7c0,10-8.1,18.1-18.1,18.1H27.8c-10,0-18.1-8.1-18.1-18.1V28.7
		C9.6,18.7,17.8,10.6,27.8,10.6z"/>
	<path fill-rule="evenodd" clip-rule="evenodd" fill="#F5F5F5" stroke="#7DADEF" stroke-width="2" stroke-miterlimit="10" d="
		M19.5,2.1h41.1c10,0,18.1,8.1,18.1,18.1v70.7c0,10-8.1,18.1-18.1,18.1H19.5c-10,0-18.1-8.1-18.1-18.1V20.2
		C1.4,10.2,9.5,2.1,19.5,2.1z"/>
	<g>
		<path fill="#7DADEF" d="M32.5,44.3c0-4.4,1.8-8,7.6-8c5.8,0,7.6,3.6,7.6,8v5.3h5.1v-5.3c0-6.5-4.7-11.7-12.7-11.7
			c-8,0-12.7,5.2-12.7,11.7v5.3h5.1V44.3z"/>
		<path fill-rule="evenodd" clip-rule="evenodd" fill="#7DADEF" d="M53.2,49.6H26.9c-2.6,0-4.6,2-4.6,4.4v20.2
			c0,2.4,2.1,4.4,4.6,4.4h26.2c2.6,0,4.6-2,4.6-4.4V54C57.8,51.6,55.8,49.6,53.2,49.6z M52.8,71.4c0,1.7-1.5,3.1-3.3,3.1H30.7
			c-1.8,0-3.3-1.4-3.3-3.1v-14c0-1.7,1.5-3.1,3.3-3.1h18.7c1.8,0,3.3,1.4,3.3,3.1V71.4z"/>
	</g>
</g>
</svg>
