<?xml version="1.0" encoding="UTF-8" standalone="no"?>
<svg width="15px" height="16px" viewBox="0 0 15 16" version="1.1" xmlns="http://www.w3.org/2000/svg" xmlns:xlink="http://www.w3.org/1999/xlink" xmlns:sketch="http://www.bohemiancoding.com/sketch/ns">
    <!-- Generator: Sketch 3.3.2 (12043) - http://www.bohemiancoding.com/sketch -->
    <title>Fill 14 Copy</title>
    <desc>Created with Sketch.</desc>
    <defs></defs>
    <g id="Library-collaboration" stroke="none" stroke-width="1" fill="none" fill-rule="evenodd" sketch:type="MSPage">
        <g id="Library---loged-in---My-Library-Copy-46" sketch:type="MSArtboardGroup" transform="translate(-879.000000, -825.000000)" fill="#979797">
            <g id="Invite-CTA-Copy-6" sketch:type="MSLayerGroup" transform="translate(870.000000, 819.000000)">
                <g id="Fill-14-Copy-+-Send" transform="translate(9.000000, 5.000000)" sketch:type="MSShapeGroup">
                    <path d="M9.29104938,1.16700865 C9.07107714,0.944330449 8.71445549,0.944330449 8.49448326,1.16700865 C8.36783258,1.2983317 8.32283826,1.46962262 8.34172477,1.64091355 L8.34172477,5.00963511 C3.73508406,5.00963511 0,8.84655188 0,13.5798912 C0,14.7960567 0.248857475,15.9494156 0.692134851,17 C1.35038509,13.4257293 4.66607765,10.713623 8.33228152,10.713623 C8.33228152,10.9077527 8.34172477,14.0766348 8.34172477,14.0766348 C8.32283826,14.2422161 8.36783258,14.4192167 8.49448326,14.54483 C8.60002549,14.659024 8.74056331,14.7275404 8.89832117,14.7275404 C9.07107714,14.7275404 9.21939175,14.6418949 9.32160107,14.5105719 L14.8397934,8.29271121 C14.9570008,8.17280757 15.0069945,8.01293603 14.9992177,7.8587742 C15.0069945,7.69890267 14.9570008,7.54474083 14.8397934,7.42483718 L9.29104938,1.16700865 Z" id="Fill-14-Copy"></path>
                </g>
            </g>
        </g>
    </g>
</svg>