<svg xmlns="http://www.w3.org/2000/svg" viewBox="0 0 20 20" fill="#fff">
  <path d="M12.920,19.866 C12.780,19.866 12.645,19.802 12.554,19.687 L12.468,19.579 C11.918,18.885 10.997,17.723 10.605,17.723 C10.214,17.723 9.292,18.885 8.742,19.580 L8.657,19.687 C8.541,19.834 8.352,19.898 8.174,19.852 C7.229,19.606 6.326,19.219 5.491,18.700 C5.334,18.603 5.245,18.421 5.264,18.233 L5.285,18.017 C5.371,17.152 5.516,15.703 5.264,15.445 C5.241,15.420 5.089,15.299 4.424,15.299 C3.944,15.299 3.346,15.362 2.767,15.423 L2.556,15.445 C2.375,15.466 2.197,15.374 2.103,15.212 C1.599,14.352 1.223,13.422 0.985,12.448 C0.940,12.265 1.002,12.071 1.145,11.951 L1.248,11.864 C1.923,11.297 3.052,10.348 3.052,9.945 C3.052,9.542 1.924,8.594 1.250,8.027 L1.145,7.939 C1.002,7.819 0.940,7.625 0.985,7.442 C1.223,6.468 1.599,5.538 2.103,4.678 C2.197,4.517 2.374,4.425 2.556,4.445 L2.768,4.467 C3.346,4.528 3.944,4.591 4.424,4.591 C5.089,4.591 5.241,4.470 5.264,4.445 C5.516,4.187 5.371,2.739 5.285,1.874 L5.264,1.657 C5.245,1.469 5.334,1.287 5.490,1.190 C6.326,0.671 7.229,0.284 8.174,0.039 C8.352,-0.007 8.541,0.056 8.657,0.203 L8.742,0.311 C9.293,1.005 10.214,2.167 10.605,2.167 C10.997,2.167 11.917,1.005 12.468,0.311 L12.554,0.203 C12.670,0.056 12.858,-0.007 13.036,0.039 C13.981,0.284 14.884,0.671 15.720,1.190 C15.877,1.287 15.965,1.469 15.947,1.657 L15.925,1.874 C15.839,2.739 15.695,4.187 15.946,4.445 C15.969,4.470 16.121,4.591 16.786,4.591 C17.267,4.591 17.865,4.528 18.443,4.467 L18.654,4.445 C18.835,4.424 19.013,4.517 19.107,4.678 C19.611,5.538 19.987,6.468 20.225,7.442 C20.270,7.625 20.208,7.819 20.066,7.939 L19.960,8.027 C19.286,8.594 18.158,9.542 18.158,9.945 C18.158,10.348 19.286,11.296 19.960,11.863 L20.066,11.951 C20.208,12.071 20.270,12.265 20.225,12.448 C19.987,13.422 19.611,14.352 19.107,15.212 C19.013,15.374 18.836,15.466 18.654,15.445 L18.443,15.423 C17.865,15.362 17.266,15.299 16.786,15.299 C16.121,15.299 15.969,15.420 15.946,15.445 C15.695,15.703 15.839,17.151 15.925,18.016 L15.947,18.233 C15.965,18.421 15.877,18.603 15.720,18.700 C14.884,19.219 13.981,19.606 13.036,19.852 C12.998,19.862 12.959,19.866 12.920,19.866 L12.920,19.866 Z M10.605,16.747 C11.414,16.747 12.197,17.696 13.093,18.825 C13.748,18.631 14.378,18.361 14.973,18.019 C14.829,16.572 14.719,15.329 15.276,14.755 C15.566,14.456 16.031,14.323 16.786,14.323 C17.287,14.323 17.873,14.382 18.446,14.443 C18.778,13.830 19.040,13.181 19.229,12.507 C18.132,11.584 17.211,10.778 17.211,9.945 C17.211,9.112 18.132,8.306 19.229,7.383 C19.040,6.709 18.778,6.060 18.446,5.447 C17.873,5.507 17.288,5.566 16.786,5.566 C16.032,5.566 15.566,5.433 15.276,5.135 C14.719,4.561 14.829,3.318 14.973,1.871 C14.378,1.529 13.748,1.259 13.093,1.065 C12.197,2.194 11.414,3.143 10.605,3.143 C9.796,3.143 9.013,2.194 8.117,1.065 C7.463,1.259 6.833,1.529 6.237,1.871 C6.381,3.319 6.492,4.561 5.934,5.135 C5.645,5.433 5.179,5.566 4.424,5.566 C3.923,5.566 3.337,5.507 2.765,5.447 C2.432,6.060 2.170,6.709 1.981,7.383 C3.078,8.306 4.000,9.112 4.000,9.945 C4.000,10.778 3.078,11.584 1.981,12.507 C2.170,13.181 2.432,13.830 2.765,14.443 C3.337,14.382 3.923,14.323 4.424,14.323 C5.179,14.323 5.645,14.456 5.935,14.755 C6.492,15.329 6.381,16.572 6.237,18.019 C6.833,18.361 7.463,18.631 8.117,18.825 C9.013,17.696 9.797,16.747 10.605,16.747 L10.605,16.747 Z"></path>
  <path d="M10.605,13.712 C8.588,13.712 6.947,12.022 6.947,9.945 C6.947,7.868 8.588,6.178 10.605,6.178 C12.622,6.178 14.263,7.868 14.263,9.945 C14.263,12.022 12.622,13.712 10.605,13.712 L10.605,13.712 Z M10.605,7.154 C9.111,7.154 7.895,8.406 7.895,9.945 C7.895,11.484 9.111,12.736 10.605,12.736 C12.100,12.736 13.315,11.484 13.315,9.945 C13.315,8.406 12.100,7.154 10.605,7.154 L10.605,7.154 Z"></path>
</svg>
