<svg viewBox="0 0 33 31" xmlns="http://www.w3.org/2000/svg">
  <g fill="#fff" fill-rule="evenodd">
    <path d="M19.7139446,30.5539989 L19.5750427,30.3858225 C18.6835637,29.307827 17.1914556,27.5030872 16.557316,27.5030872 C15.9231764,27.5030872 14.4308124,29.308332 13.5390776,30.3868326 L13.4009432,30.5539989 C13.212671,30.7820219 12.9074961,30.8815136 12.6192043,30.8092937 C11.0879581,30.4282454 9.62526741,29.8267497 8.27154951,29.0214726 C8.01727975,28.8704674 7.87402918,28.5876482 7.90395832,28.2962435 L7.93900355,27.9598907 C8.07867285,26.6162471 8.31247825,24.3670772 7.90523734,23.965575 C7.86686665,23.927445 7.62129425,23.7390672 6.54435692,23.7390672 C5.76568775,23.7390672 4.79669996,23.8372963 3.85968775,23.9322428 L3.51818862,23.9663326 C3.22375754,23.9989073 2.93674479,23.8549725 2.78351784,23.6039705 C1.967757,22.268155 1.35843047,20.8240097 0.972165537,19.3121898 C0.899517033,19.0270979 1.00030404,18.7263501 1.23103978,18.5402449 L1.3991034,18.4048958 C2.49215641,17.5241161 4.32141503,16.0506788 4.32141503,15.4241838 C4.32141503,14.7984464 2.49343543,13.3257666 1.40114983,12.445492 L1.23103978,12.3083752 C1.00030404,12.1225226 0.899517033,11.8215222 0.972165537,11.5366829 C1.35817466,10.024863 1.9675012,8.58097016 2.78351784,7.24515465 C2.93674479,6.99415264 3.22196691,6.85122796 3.51818862,6.88254008 L3.86019936,6.91713492 C4.79695577,7.01182884 5.76543195,7.10955296 6.54410112,7.10955296 C7.62155005,7.10955296 7.86686665,6.9211752 7.90523734,6.88355015 C8.31222244,6.48179543 8.07867285,4.23338309 7.93900355,2.88999207 L7.90395832,2.55288173 C7.87428499,2.26122446 8.01727975,1.97865782 8.27129371,1.82765259 C9.62526741,1.02187049 11.0882139,0.420374738 12.6192043,0.0398314541 C12.9077519,-0.032135922 13.212671,0.067355819 13.4009432,0.294873734 L13.539845,0.462797612 C14.431324,1.54104567 15.9234322,3.34553293 16.557316,3.34553293 C17.1914556,3.34553293 18.6833079,1.54129819 19.5745311,0.463302646 L19.7139446,0.294873734 C19.9022168,0.067355819 20.2068801,-0.032135922 20.4956835,0.0398314541 C22.0266739,0.420374738 23.4896204,1.02187049 24.8433383,1.82765259 C25.097608,1.97865782 25.2406028,2.26122446 25.2106737,2.55288173 L25.1756284,2.89074962 C25.0362149,4.23388812 24.8024095,6.48179543 25.2093946,6.88355015 C25.2477653,6.9211752 25.4933377,7.10955296 26.5707867,7.10955296 C27.3494558,7.10955296 28.3181878,7.01182884 29.2552,6.91688241 L29.5966992,6.88254008 C29.8906186,6.85021789 30.178143,6.99415264 30.33137,7.24515465 C31.1471308,8.58097016 31.7564573,10.024863 32.1424664,11.5366829 C32.215115,11.8215222 32.1145837,12.1225226 31.883848,12.3083752 L31.7132263,12.445997 C30.6211966,13.3260192 28.7934728,14.7986989 28.7934728,15.4241838 C28.7934728,16.0501737 30.6211966,17.5228535 31.7132263,18.4026231 L31.883848,18.5402449 C32.1145837,18.7263501 32.215115,19.0270979 32.1424664,19.3121898 C31.7564573,20.8237572 31.1473866,22.26765 30.33137,23.6039705 C30.178143,23.8549725 29.8916419,23.9989073 29.5966992,23.9663326 L29.2549442,23.9319903 C28.317932,23.8372963 27.3489442,23.7390672 26.5700193,23.7390672 C25.4933377,23.7390672 25.2477653,23.927445 25.2093946,23.96507 C24.8026653,24.3668247 25.0362149,26.6157421 25.1756284,27.9591331 L25.2106737,28.2962435 C25.2406028,28.5876482 25.097608,28.8704674 24.8433383,29.0214726 C23.4896204,29.8267497 22.0269297,30.4282454 20.4959393,30.8092937 C20.4335229,30.8249498 20.370595,30.8322728 20.3081787,30.8322728 C20.3081787,30.8322728 19.8617997,30.7325285 19.7139446,30.5539989 Z M16.5575461,20.6482285 C13.6397002,20.6482285 11.2657667,18.3048036 11.2657667,15.4242311 C11.2657667,12.5441095 13.6397002,10.2006846 16.5575461,10.2006846 C19.4751634,10.2006846 21.849097,12.5441095 21.849097,15.4242311 C21.849097,18.3048036 19.4751634,20.6482285 16.5575461,20.6482285 Z"/>
    <path d="M16.5575339,11.9668939 C14.6261687,11.9668939 13.0549577,13.5179124 13.0549577,15.4242551 C13.0549577,17.3307993 14.6261687,18.8820193 16.5575339,18.8820193 C18.488695,18.8820193 20.059906,17.3307993 20.059906,15.4242551 C20.059906,13.5179124 18.488695,11.9668939 16.5575339,11.9668939 L16.5575339,11.9668939 Z"/>
  </g>
</svg>
