<svg viewBox="0 0 17 17" xmlns="http://www.w3.org/2000/svg"><path d="M14.79 9.35c0-.255.085-.51.085-.85 0-.34 0-.595-.085-.85l1.785-1.445c.17-.17.17-.34.085-.51l-1.7-2.975c-.085-.085-.255-.17-.51-.085l-2.125.85c-.425-.34-.935-.595-1.445-.85l-.34-2.21C10.625.17 10.37 0 10.2 0H6.8c-.17 0-.425.17-.425.34l-.34 2.295c-.51.17-.935.51-1.445.85l-2.04-.85c-.255-.085-.425 0-.595.17L.255 5.78c-.085.085 0 .34.17.51L2.21 7.65c0 .255-.085.51-.085.85 0 .34 0 .595.085.85L.425 10.795c-.17.17-.17.34-.085.51l1.7 2.975c.085.085.255.17.51.085l2.125-.85c.425.34.935.595 1.445.85l.34 2.21c0 .17.17.34.425.34h3.4c.17 0 .425-.17.425-.34l.34-2.21c.51-.255 1.02-.51 1.445-.85l2.125.85c.17.085.425 0 .51-.17l1.7-2.975c.085-.17.085-.425-.085-.51L14.79 9.35zM8.5 11.475c-1.615 0-2.975-1.36-2.975-2.975S6.885 5.525 8.5 5.525s2.975 1.36 2.975 2.975-1.36 2.975-2.975 2.975z" fill="#CACDD0" fill-rule="evenodd"/></svg>