<?xml version="1.0" encoding="UTF-8" standalone="no"?>
<svg width="20px" height="20px" viewBox="0 0 20 20" version="1.1" xmlns="http://www.w3.org/2000/svg" xmlns:xlink="http://www.w3.org/1999/xlink" xmlns:sketch="http://www.bohemiancoding.com/sketch/ns">
    <!-- Generator: Sketch 3.2 (9961) - http://www.bohemiancoding.com/sketch -->
    <title>Settings Icon 5</title>
    <desc>Created with Sketch.</desc>
    <defs></defs>
    <g id="Welcome" stroke="none" stroke-width="1" fill="none" fill-rule="evenodd" sketch:type="MSPage">
        <g id="Desktop-HD-Profile-w/-Main--Logged-In" sketch:type="MSArtboardGroup" fill="#FFFFFF">
            <g id="User-Info-2" sketch:type="MSLayerGroup">
                <g id="Settings-Icon-5" sketch:type="MSShapeGroup">
                    <path d="M12.9208935,19.8669919 C12.7806774,19.8669919 12.6453563,19.8027642 12.5540895,19.6878049 L12.4683493,19.5795122 C11.9180643,18.8853659 10.9970278,17.723252 10.6055912,17.723252 C10.2141547,17.723252 9.29296026,18.8856911 8.74251739,19.5801626 L8.65725085,19.6878049 C8.54103572,19.8346341 8.35265983,19.8986992 8.17470541,19.8521951 C7.22951006,19.6068293 6.32663217,19.2195122 5.4910201,18.7009756 C5.33406651,18.6037398 5.24564195,18.421626 5.26411637,18.2339837 L5.28574881,18.0173984 C5.37196275,17.1521951 5.51628426,15.7039024 5.26490588,15.4453659 C5.24122073,15.420813 5.08963577,15.2995122 4.42487258,15.2995122 C3.94422195,15.2995122 3.34609298,15.3627642 2.76770164,15.4239024 L2.55690381,15.4458537 C2.37515977,15.4668293 2.19799485,15.3741463 2.10341215,15.2125203 C1.59986588,14.3523577 1.22374571,13.422439 0.985315207,12.4489431 C0.940471325,12.2653659 1.00268432,12.0717073 1.14511101,11.9518699 L1.24885197,11.8647154 C1.92356292,11.297561 3.05271294,10.3487805 3.05271294,9.94536585 C3.05271294,9.54243902 1.92435242,8.59414634 1.25011518,8.02731707 L1.14511101,7.93902439 C1.00268432,7.81934959 0.940471325,7.62552846 0.985315207,7.44211382 C1.22358781,6.46861789 1.59970798,5.53886179 2.10341215,4.67869919 C2.19799485,4.51707317 2.37405446,4.42504065 2.55690381,4.44520325 L2.76801744,4.46747967 C3.34625089,4.52845528 3.94406405,4.59138211 4.42471468,4.59138211 C5.08979367,4.59138211 5.24122073,4.4700813 5.26490588,4.44585366 C5.51612636,4.18715447 5.37196275,2.73934959 5.28574881,1.87430894 L5.26411637,1.65723577 C5.24579986,1.46943089 5.33406651,1.28747967 5.4908622,1.1902439 C6.32663217,0.671382114 7.22966796,0.284065041 8.17470541,0.0390243902 C8.35281774,-0.00731707317 8.54103572,0.0567479675 8.65725085,0.203252033 L8.74299109,0.311382114 C9.29327606,1.00569106 10.2143126,2.16764228 10.6055912,2.16764228 C10.9970278,2.16764228 11.9179064,1.00585366 12.4680335,0.311707317 L12.5540895,0.203252033 C12.6703046,0.0567479675 12.8583647,-0.00731707317 13.036635,0.0390243902 C13.9816724,0.284065041 14.8847082,0.671382114 15.7203203,1.1902439 C15.8772739,1.28747967 15.9655405,1.46943089 15.9470661,1.65723577 L15.9254337,1.87479675 C15.8393776,2.7396748 15.6950561,4.18715447 15.9462766,4.44585366 C15.9699617,4.4700813 16.1215467,4.59138211 16.7866257,4.59138211 C17.2672763,4.59138211 17.8652474,4.52845528 18.4436387,4.46731707 L18.6544366,4.44520325 C18.8358648,4.42439024 19.0133455,4.51707317 19.1079282,4.67869919 C19.6114745,5.53886179 19.9875947,6.46861789 20.2258673,7.44211382 C20.2707111,7.62552846 20.208656,7.81934959 20.0662293,7.93902439 L19.9609094,8.02764228 C19.28683,8.59430894 18.1586274,9.54260163 18.1586274,9.94536585 C18.1586274,10.3484553 19.28683,11.296748 19.9609094,11.863252 L20.0662293,11.9518699 C20.208656,12.0717073 20.2707111,12.2653659 20.2258673,12.4489431 C19.9875947,13.4222764 19.6116324,14.3520325 19.1079282,15.2125203 C19.0133455,15.3741463 18.8364964,15.4668293 18.6544366,15.4458537 L18.4434808,15.4237398 C17.8650895,15.3627642 17.2669605,15.2995122 16.786152,15.2995122 C16.1215467,15.2995122 15.9699617,15.420813 15.9462766,15.4450407 C15.695214,15.7037398 15.8393776,17.1518699 15.9254337,18.0169106 L15.9470661,18.2339837 C15.9655405,18.421626 15.8772739,18.6037398 15.7203203,18.7009756 C14.8847082,19.2195122 13.9818303,19.6068293 13.0367929,19.8521951 C12.998265,19.8622764 12.9594214,19.8669919 12.9208935,19.8669919 L12.9208935,19.8669919 Z M10.6055912,16.7476423 C11.4142022,16.7476423 12.1973912,17.6964228 13.0937951,18.8258537 C13.7481368,18.6318699 14.3783197,18.3614634 14.9734486,18.0195122 C14.8296008,16.5720325 14.719228,15.3292683 15.2764606,14.7552846 C15.5662089,14.4569106 16.0318589,14.3239024 16.786152,14.3239024 C17.2879613,14.3239024 17.8736161,14.3829268 18.4461651,14.443252 C18.7783888,13.8304065 19.0409782,13.181626 19.2293541,12.5076423 C18.1325738,11.5845528 17.2112215,10.7780488 17.2112215,9.94536585 C17.2112215,9.11284553 18.1327317,8.30634146 19.2293541,7.38325203 C19.0409782,6.70926829 18.7783888,6.06065041 18.4461651,5.44780488 C17.8736161,5.50796748 17.2881192,5.56699187 16.7866257,5.56699187 C16.0320168,5.56699187 15.5663668,5.43398374 15.2764606,5.13577236 C14.7190701,4.56178862 14.8296008,3.31886179 14.9734486,1.87170732 C14.3783197,1.52943089 13.7481368,1.25902439 13.0937951,1.06520325 C12.1973912,2.19447154 11.4142022,3.14325203 10.6055912,3.14325203 C9.79698024,3.14325203 9.0139492,2.19447154 8.11754525,1.06520325 C7.46320353,1.25902439 6.83302066,1.52943089 6.23789181,1.87170732 C6.38173961,3.31902439 6.49211241,4.56162602 5.9348798,5.13560976 C5.64513147,5.43398374 5.17932354,5.56699187 4.42471468,5.56699187 C3.92306322,5.56699187 3.33756633,5.50796748 2.76517522,5.44780488 C2.43295153,6.06065041 2.17036218,6.70926829 1.98198629,7.38325203 C3.0787666,8.30634146 4.00011891,9.11284553 4.00011891,9.94536585 C4.00011891,10.7780488 3.0789245,11.5845528 1.98198629,12.5076423 C2.17052008,13.1817886 2.43295153,13.8305691 2.76517522,14.443252 C3.33772423,14.3829268 3.92322112,14.3239024 4.42487258,14.3239024 C5.17948144,14.3239024 5.64513147,14.4569106 5.9350377,14.7554472 C6.49211241,15.3292683 6.38189752,16.5720325 6.23789181,18.0195122 C6.83302066,18.3614634 7.46320353,18.6318699 8.11754525,18.8258537 C9.0139492,17.6964228 9.79713814,16.7476423 10.6055912,16.7476423 L10.6055912,16.7476423 Z" id="Fill-1"></path>
                    <path d="M10.6057491,13.7121951 C8.58887972,13.7121951 6.94797258,12.022439 6.94797258,9.94536585 C6.94797258,7.86861789 8.58887972,6.17886179 10.6057491,6.17886179 C12.6224606,6.17886179 14.2633678,7.86861789 14.2633678,9.94536585 C14.2633678,12.022439 12.6224606,13.7121951 10.6057491,13.7121951 L10.6057491,13.7121951 Z M10.6057491,7.15447154 C9.11121621,7.15447154 7.89537855,8.40650407 7.89537855,9.94536585 C7.89537855,11.4843902 9.11121621,12.7365854 10.6057491,12.7365854 C12.1001241,12.7365854 13.3159618,11.4843902 13.3159618,9.94536585 C13.3159618,8.40650407 12.1001241,7.15447154 10.6057491,7.15447154 L10.6057491,7.15447154 Z" id="Fill-2"></path>
                </g>
            </g>
        </g>
    </g>
</svg>
