<svg viewBox="0 0 17 18" xmlns="http://www.w3.org/2000/svg">
  <path fill="#fff" d="M10.0846529,13.3772861 L10.0846529,10.1195468 C10.0846529,10.1195468 8.68334831,10.1074137 8.29524915,10.1074137 C5.82444994,10.1074137 2.46487403,12.0790436 1.18622063,13.759479 C1.2051812,11.4784548 4.11088847,6.60094567 8.29524915,6.46748149 C8.60395093,6.45534838 10.0846529,6.47354804 10.0846529,6.47354804 L10.0846529,3.19154251 L14.6215617,8.28744759 L10.0846529,13.3772861 L10.0846529,13.3772861 Z M9.91045267,1.17744669 C9.67581562,0.940851102 9.29541919,0.940851102 9.06078215,1.17744669 C8.92568809,1.31697743 8.87769415,1.49897404 8.89783975,1.68097065 L8.89783975,5.26023731 C3.98408966,5.26023731 0,9.33696137 0,14.3661344 C0,15.6583103 0.265447973,16.8837541 0.738277175,18 C1.44041076,14.2023374 4.97714949,11.3207244 8.88776695,11.3207244 C8.88776695,11.5269872 8.89783975,14.8939245 8.89783975,14.8939245 C8.87769415,15.0698546 8.92568809,15.2579177 9.06078215,15.3913819 C9.17336053,15.512713 9.32326753,15.5855116 9.49154258,15.5855116 C9.67581562,15.5855116 9.83401787,15.4945133 9.94304115,15.3549826 L15.8291129,8.74850567 C15.9541342,8.62110804 16,8.45124454 16,8.28744759 C16,8.11758408 15.9541342,7.95378714 15.8291129,7.82638951 L9.91045267,1.17744669 Z"></path>
</svg>
