<?xml version="1.0" encoding="utf-8"?>
<!-- Generator: Adobe Illustrator 18.1.0, SVG Export Plug-In . SVG Version: 6.00 Build 0)  -->
<svg version="1.1" id="Layer_1_copy" xmlns="http://www.w3.org/2000/svg" xmlns:xlink="http://www.w3.org/1999/xlink" x="0px"
	 y="0px" viewBox="-112.5 633.5 225 317" enable-background="new -112.5 633.5 225 317" xml:space="preserve">
<g>
	<path fill="#F06361" d="M94.5,950.5h-189c-9,0-18-9.1-18-20.4V792c0-11.3,9-20.4,18-20.4v-40.8c0-52.1,42.7-97.4,94.5-97.4
		s94.5,45.3,94.5,99.6v40.8c11.2,0,18,9.1,18,20.4v138.1C112.5,941.4,103.5,950.5,94.5,950.5z M66.5,722.5c0-38.5-42.8-61-66-61
		c-21.1,0-66,25.5-66,64v47h132V722.5z"/>
</g>
</svg>
