<svg xmlns="http://www.w3.org/2000/svg" version="1.1" x="0" y="0" viewBox="0 0 119.3 119.7" enable-background="new 0 0 119.3 119.7" xml:space="preserve"><path fill="#74C485" d="M12.9 60.1c0 0 0.1 0.1 0.1 0.1 0.1 0.1 0.2 0.1 0.3 0.2 2 1.4 4.4 2.6 5.4 3.1 0.4 0.2 0.8 0.4 1.2 0.5 11.4 4.7 30.3 2.1 38.5 0.7 -0.3-2.4-0.6-4.9-0.9-7.3 -2.6 0.4-7.1 1.4-11.4 1.8 -10.2 0.8-18.3 0.2-23.5-2 -5-2.1-8.5-5.2-9.9-8.5 -1.4-3.1 0.6-7.4 0.6-7.4 5.3-10.7 24.5-3.7 24.5-3.7s-6.2-19.4 3.4-24.4c9.5-4.9 13.3 5.9 13.4 5.9 0 0 0.9-3.7 4-8 0 0-5.3-11-20.2-4.7 -1.9 0.8-3.6 1.9-4.9 3.3 -3.5 3.5-5.3 8.9-5 15.6 0 1.1 0.1 2.2 0.2 3.1 -0.9-0.1-2-0.2-3-0.2 -6.6-0.1-12.1 1.7-15.7 5.3 -1.3 1.3-2.4 2.8-3.2 4.5 -2.1 4.4-2.4 9-0.8 13.2C7.2 54.7 9.6 57.6 12.9 60.1zM118.3 69c-1.5-3.8-4.4-7.2-8.6-9.9 -1.1-0.7-3.4-2-6.6-3.3 -12-4.2-27.9-1.6-35.5-0.3 0.1 1.3 0.8 5.2 1 7.1 2.8-0.5 5.2-1.2 9.6-1.6 10.2-0.8 18.3-0.2 23.5 2 5 2.1 8.5 5.2 9.9 8.5 1.4 3.1-0.6 7.4-0.6 7.4 -5.3 10.7-24.5 3.7-24.5 3.7s7 21.2-3.4 24.4c-11.6 3.6-15-6.3-15.3-7.5 0 0-1.4 3.4-3.8 6.5 0 0 5.7 12.3 21.9 7.7 0 0 3.1-1.1 4.9-3.3 3.2-3.8 5.3-8.9 5-15.6 0-1.1-0.1-2.2-0.2-3.1 0.9 0.1 2 0.2 3 0.2 6.6 0.1 12.1-1.7 15.7-5.3 1.3-1.3 2.4-2.8 3.2-4.5C119.6 77.7 119.9 73.2 118.3 69zM109.4 41.1c3.7 7.3-3.5 12.3-3.5 12.3 4.8 1.9 7.3 3.7 7.3 3.7 5-4.8 8-14.9-0.3-23.8 -3.6-3.8-8.9-5.3-15.6-5 -1.1 0-2.2 0.1-3.1 0.2 0.1-0.9 0.2-2 0.2-3 0.1-6.6-1.7-12.1-5.3-15.7 -1.3-1.3-2.8-2.4-4.5-3.2 -4.4-2.1-9-2.6-13.2-0.8 -36.1 15.4 6.3 85.5-22.2 100.4 -3 1.6-7.4-0.6-7.4-0.6C31 100.4 38 81.2 38 81.2s-19.4 6.2-24.4-3.4c-3.9-7.5 2.3-12 2.3-12C15 65.4 12 63.9 9.6 62c-6.7 5.5-7.3 15.8 0.5 23.6 3.5 3.5 8.9 5.3 15.6 5 1.1 0 2.2-0.1 3.1-0.2 -0.1 0.9-0.2 2-0.2 3 -0.1 6.6 1.7 12.1 5.3 15.7 1.3 1.3 2.8 2.4 4.5 3.2 4.4 2.1 9 2.4 13.2 0.8 5.3-2 9.7-7 12.6-14 10.1-23.4-16.1-75.6 9.6-86.4 2.9-1.2 7.4 0.6 7.4 0.6C92 18.5 85 37.7 85 37.7S104.5 31.5 109.4 41.1z"/></svg>