<?xml version="1.0" encoding="UTF-8" standalone="no"?>
<!-- Generator: Avocode 0.4.0 - http://avocode.com -->
<svg xmlns="http://www.w3.org/2000/svg" xmlns:xlink="http://www.w3.org/1999/xlink" width="31" height="31" view-box="0 0 31 31">
    <desc>Created with Avocode</desc>
    <ellipse cx="15.5" cy="15.5" rx="15.5" ry="15.5" fill="#6fa5ee" />
    <path d="M 12.21 13.09 C 11.72 13.09, 11.33 12.7, 11.33 12.21 C 11.33 11.73, 11.72 11.34, 12.21 11.34 C 12.69 11.34, 13.08 11.73, 13.08 12.21 C 13.08 12.7, 12.69 13.09, 12.21 13.09 M 14.83 9 L 22.63 16.82 C 23.09 17.27, 23.09 18.01, 22.64 18.47 L 18.45 22.66 C 18 23.11, 17.26 23.11, 16.8 22.66 L 9 14.84 L 9 10.17 C 9 9.52, 9.52 9, 10.17 9 L 14.83 9 Z" fill="#fbfbfb" />
</svg>