<?xml version="1.0" encoding="UTF-8" standalone="no"?>
<svg width="30px" height="25px" viewBox="0 0 30 25" version="1.1" xmlns="http://www.w3.org/2000/svg" xmlns:xlink="http://www.w3.org/1999/xlink" xmlns:sketch="http://www.bohemiancoding.com/sketch/ns">
    <!-- Generator: Sketch 3.2.2 (9983) - http://www.bohemiancoding.com/sketch -->
    <title>Path</title>
    <desc>Created with Sketch.</desc>
    <defs></defs>
    <g id="Page-1" stroke="none" stroke-width="1" fill="none" fill-rule="evenodd" sketch:type="MSPage">
        <g id="Artboard" sketch:type="MSArtboardGroup" transform="translate(-15.000000, -17.000000)" fill="#00ACED">
            <g id="Twitter-2" sketch:type="MSLayerGroup" transform="translate(15.000000, 17.000000)">
                <path d="M14.2997675,6.8879776 L14.3627206,7.92604528 L13.3135016,7.79893496 C9.49434447,7.3116787 6.15782806,5.65924443 3.32493678,2.88400226 L1.93996771,1.5069737 L1.58323325,2.52385633 C0.827795575,4.79065719 1.31043631,7.18456837 2.8842648,8.79463253 C3.72364,9.68440483 3.53478058,9.81151515 2.08685837,9.28188879 C1.58323325,9.11240835 1.14256127,8.98529802 1.10059251,9.04885318 C0.953701854,9.19714857 1.45732697,11.1249885 1.85603019,11.8876505 C2.40162407,12.9469033 3.5137962,13.9849709 4.73089023,14.5993375 L5.75912485,15.0865938 L4.54203081,15.1077788 C3.36690554,15.1077788 3.32493678,15.1289639 3.45084306,15.57385 C3.87053066,16.9508786 5.52829667,18.4126474 7.3749221,19.048199 L8.67595365,19.4930852 L7.54279714,20.1710069 C5.86404675,21.1455194 3.89151504,21.6963309 1.91898333,21.738701 C0.974686234,21.759886 0.198264178,21.8446262 0.198264178,21.9081814 C0.198264178,22.1200319 2.75835852,23.306395 4.2482495,23.7724662 C8.71792241,25.1494948 14.0269705,24.5563132 18.0140027,22.2047722 C20.846894,20.5311528 23.6797853,17.2050993 25.0018012,13.9849709 C25.7152701,12.2689815 26.428739,9.1335934 26.428739,7.62945452 C26.428739,6.654942 26.4916922,6.52783167 27.6668174,5.36265366 C28.359302,4.68473191 29.0098178,3.943255 29.135724,3.73140445 C29.3455678,3.32888841 29.3245835,3.32888841 28.2543801,3.68903434 C26.4707078,4.32458598 26.2188952,4.23984576 27.1002392,3.2865183 C27.750755,2.60859655 28.527177,1.37986338 28.527177,1.01971745 C28.527177,0.956162282 28.2124113,1.06208756 27.8556769,1.25275305 C27.477958,1.46460359 26.6385828,1.78237942 26.0090514,1.97304491 L24.8758949,2.33319084 L23.8476603,1.63408403 C23.281082,1.25275305 22.4836756,0.829051953 22.063988,0.701941625 C20.9937846,0.405350859 19.357003,0.447720968 18.3917215,0.786681844 C15.768674,1.74000931 14.110908,4.19747565 14.2997675,6.8879776 Z" id="Path" sketch:type="MSShapeGroup"></path>
            </g>
        </g>
    </g>
</svg>