<?xml version="1.0" encoding="UTF-8" standalone="no"?>
<!-- Generator: Avocode 0.4.0 - http://avocode.com -->
<svg xmlns="http://www.w3.org/2000/svg" xmlns:xlink="http://www.w3.org/1999/xlink" width="20" height="17" view-box="0 0 20 17">
    <desc>Created with Avocode</desc>
    <path d="M 20 2.01 C 19.45 2.87, 18.75 3.62, 17.95 4.23 C 17.96 4.41, 17.96 4.6, 17.96 4.79 C 17.96 10.46, 13.84 17, 6.29 17 C 3.98 17, 1.82 16.29, 0.01 15.07 C 0.33 15.11, 0.65 15.13, 0.98 15.13 C 2.91 15.13, 4.67 14.44, 6.08 13.29 C 4.28 13.26, 2.77 12.02, 2.25 10.31 C 2.5 10.36, 2.75 10.39, 3.02 10.39 C 3.39 10.39, 3.76 10.34, 4.1 10.24 C 2.22 9.84, 0.81 8.11, 0.81 6.03 C 0.81 6.01, 0.81 5.99, 0.81 5.97 C 1.36 6.3, 1.99 6.49, 2.67 6.51 C 1.57 5.74, 0.84 4.43, 0.84 2.94 C 0.84 2.15, 1.04 1.41, 1.4 0.78 C 3.42 3.38, 6.44 5.09, 9.85 5.27 C 9.78 4.95, 9.75 4.62, 9.75 4.29 C 9.75 1.92, 11.58 -0.01, 13.85 -0.01 C 15.03 -0.01, 16.09 0.52, 16.84 1.35 C 17.78 1.16, 18.65 0.8, 19.45 0.31 C 19.14 1.31, 18.49 2.15, 17.64 2.68 C 18.47 2.58, 19.26 2.35, 20 2.01 Z" fill="#ffffff" />
</svg>
