<?xml version="1.0" encoding="utf-8"?>
<!-- Generator: Adobe Illustrator 18.1.0, SVG Export Plug-In . SVG Version: 6.00 Build 0) -->
<!DOCTYPE svg PUBLIC "-//W3C//DTD SVG 1.1//EN" "http://www.w3.org/Graphics/SVG/1.1/DTD/svg11.dtd">
<svg version="1.1" id="Backgrounds" xmlns="http://www.w3.org/2000/svg" xmlns:xlink="http://www.w3.org/1999/xlink" x="0px"
  y="0px" viewBox="0 0 38 46.4" enable-background="new 0 0 38 46.4" xml:space="preserve">
<path fill-rule="evenodd" clip-rule="evenodd" fill="#FFFFFF" d="M34,45.4H4c-1.7,0-2.9-1.5-2.9-3V23c0-1.5,1.3-2.9,3-2.9L4,14.4
 c0-7.6,7-14,15.1-13.9c8.7,0.1,15,6,15,14v5.6c1.7,0,3,1.9,3,3.4v20C37.1,45.1,35.7,45.4,34,45.4z M30,12.4c0-5.6-4.8-9-11-9
 c-5.7,0-11,3.7-11,9l0.1,7.2L30,19.4V12.4z M34,23.4H4l0.1,18h30L34,23.4z"/>
</svg>