<?xml version="1.0" encoding="utf-8"?>
<!-- Generator: Adobe Illustrator 18.1.0, SVG Export Plug-In . SVG Version: 6.00 Build 0) -->
<!DOCTYPE svg PUBLIC "-//W3C//DTD SVG 1.1//EN" "http://www.w3.org/Graphics/SVG/1.1/DTD/svg11.dtd">
<svg version="1.1" id="Layer_1" xmlns="http://www.w3.org/2000/svg" xmlns:xlink="http://www.w3.org/1999/xlink" x="0px" y="0px"
  viewBox="0 0 24.6 12" enable-background="new 0 0 24.6 12" xml:space="preserve">
<g>
 <g>
  <path fill-rule="evenodd" clip-rule="evenodd" fill="#ffffff" d="M21,4h-8.7c-0.8-2.3-3-4-5.7-4c-3.3,0-6,2.7-6,6s2.7,6,6,6
   c2.2,0,4.2-1.2,5.2-3c0,0,0,0,0.1,0h2.8l1.7-2.2L18.1,9h3.2C22.9,9,24,7.6,24,6S22.7,4,21,4z M5.1,8.2c-1.2,0-2.2-1-2.2-2.2
   c0-1.2,1-2.2,2.2-2.2c1.2,0,2.2,1,2.2,2.2C7.4,7.2,6.4,8.2,5.1,8.2z"/>
 </g>
</g>
</svg>