<?xml version="1.0" encoding="utf-8"?>
<!-- Generator: Adobe Illustrator 18.0.0, SVG Export Plug-In . SVG Version: 6.00 Build 0) -->
<!DOCTYPE svg PUBLIC "-//W3C//DTD SVG 1.1//EN" "http://www.w3.org/Graphics/SVG/1.1/DTD/svg11.dtd">
<svg version="1.1" id="Library_icon_1_" xmlns="http://www.w3.org/2000/svg" xmlns:xlink="http://www.w3.org/1999/xlink" x="0px"
  y="0px" viewBox="0 0 40.5 52.5" enable-background="new 0 0 40.5 52.5" xml:space="preserve">
<g id="Rounded_Rectangle_39_copy_2">
 <g>
  <path fill-rule="evenodd" clip-rule="evenodd" fill="#FFFFFF" d="M36.7,5.2H8.2c-1.7,0-3,1.3-3,3v40.5c0,1.7,1.3,3,3,3h28.5
   c1.7,0,3-1.3,3-3V8.2C39.7,6.6,38.4,5.2,36.7,5.2z"/>
 </g>
 <g>
  <path fill="none" stroke="#E7E7E7" stroke-miterlimit="10" d="M36.7,5.2H8.2c-1.7,0-3,1.3-3,3v40.5c0,1.7,1.3,3,3,3h28.5
   c1.7,0,3-1.3,3-3V8.2C39.7,6.6,38.4,5.2,36.7,5.2z"/>
 </g>
</g>
<g id="Rounded_Rectangle_39_copy">
 <g>
  <path fill-rule="evenodd" clip-rule="evenodd" fill="#FFFFFF" d="M34.5,3H6C4.3,3,3,4.3,3,6v40.5c0,1.7,1.3,3,3,3h28.5
   c1.7,0,3-1.3,3-3V6C37.5,4.3,36.2,3,34.5,3z"/>
 </g>
 <g>
  <path fill="none" stroke="#E7E7E7" stroke-miterlimit="10" d="M34.5,3H6C4.3,3,3,4.3,3,6v40.5c0,1.7,1.3,3,3,3h28.5
   c1.7,0,3-1.3,3-3V6C37.5,4.3,36.2,3,34.5,3z"/>
 </g>
</g>
<g id="Rounded_Rectangle_39">
 <g>
  <path fill-rule="evenodd" clip-rule="evenodd" fill="#F7CE5D" d="M32.2,0.7H3.7c-1.7,0-3,1.3-3,3v40.5c0,1.7,1.3,3,3,3h28.5
   c1.7,0,3-1.3,3-3V3.7C35.2,2.1,33.9,0.7,32.2,0.7z"/>
 </g>
</g>
<g id="globe">
 <g>
  <path fill="#FFFFFF" d="M18,14.3c-5.4,0-9.8,4.4-9.8,9.8c0,5.4,4.4,9.8,9.8,9.8c5.4,0,9.8-4.4,9.8-9.8
   C27.8,18.6,23.4,14.3,18,14.3z M18,32.5c-4.7,0-8.5-3.8-8.5-8.5c0-4.7,3.8-8.5,8.5-8.5c4.7,0,8.5,3.8,8.5,8.5
   C26.5,28.7,22.7,32.5,18,32.5z M22.6,25.5l-0.3-0.4h-0.5l-0.4-0.2L21,24.4L20.4,24l-0.2-0.5h-0.6l-0.8-0.2l-0.2,0.1l-0.3,0.4
   L18,24l-0.1,1c0,0,0,1,0,1.1c0,0.1,0.2,0.3,0.3,0.5c0.1,0.2,0.2,0.4,0.3,0.6c0.1,0.1,0.2,0.1,0.4,0.2c0.2,0.1,0.4,0.3,0.4,0.4
   c0.1,0.1,0.1,0.6,0.1,0.6l0.1,0.8v0.4c0.3-0.1,0.6-0.2,0.8-0.3l0.4-0.3l0.6-0.4l0.2-0.1c0.5-0.4,0.9-0.9,1.2-1.4l0.1-0.3v-0.5
   l-0.1-0.3L22.6,25.5z M16.8,21.5l0-0.4l0.5-0.2h1.1l0.3-0.3L19,20l0.6-0.3l0.7-0.5l0-0.1c-0.8-0.4-1.6-0.6-2.5-0.6
   c-1.6,0-3,0.6-4.1,1.6l-0.1,0.2l0,0.4l0.4,0.3l0.2,0.3l0,0.5l0,0.5l0.4,0l0.4,0.2c0,0,0.3,0.1,0.4,0.2c0.1,0.1,0.7,0.5,0.7,0.6
   c0.1,0.1,0.5,0.1,0.5,0.1c0.3-0.3,0-0.6,0-0.6l-0.1-0.3l-0.1-0.3l0.1-0.4L16.8,21.5z"/>
 </g>
</g>
</svg>