<?xml version="1.0" encoding="UTF-8" standalone="no"?>
<svg width="512px" height="512px" viewBox="0 0 512 512" version="1.1" xmlns="http://www.w3.org/2000/svg" xmlns:xlink="http://www.w3.org/1999/xlink">
    <defs></defs>
    <g id="Page-1" stroke="none" stroke-width="1" fill="none" fill-rule="evenodd">
        <g id="add-member">
            <g id="Guide" transform="translate(-3.000000, -3.000000)"></g>
            <path d="M221.134266,234 C236.099726,226.782388 251.398893,223.250715 263.072098,223.250715 C294.620759,223.250715 359.573884,252.171439 361.429687,313.627978 L361.429687,375.084516 L293,375.084516 L293,357.439495 L293,315.97589 L293,294.97589 L272,294.97589 L233.638903,294.975891 L233.638901,255 L233.638901,234 L221.134266,234 Z M166.570312,373.467051 L166.570312,375.084516 L168.187778,375.084516 L166.570312,373.467051 Z" id="Shape-Copy" fill="#909090"></path>
            <path d="M264,193 C290.179332,193 309.377509,173.247432 309.377509,148.107799 C309.377509,122.968166 290.179332,103.215598 264,103.215598 C237.820668,103.215598 218.622491,122.968166 218.622491,148.107799 C218.622491,173.247432 237.820668,193 264,193 L264,193 Z" id="Path-Copy-2" fill="#909090"></path>
            <path d="M272,315.97589 L212.638901,315.97589 L212.638901,255 L171.542756,255 L171.542756,315.97589 L112.181658,315.97589 L112.181658,357.439495 L171.542756,357.439495 L171.542756,418.415384 L212.638901,418.415384 L212.638901,357.439495 L272,357.439495 L272,315.97589 L272,315.97589 Z" id="Path-Copy" fill="#909090"></path>
        </g>
    </g>
</svg>