<?xml version="1.0" encoding="UTF-8" standalone="no"?>
<svg width="512px" height="512px" viewBox="0 0 512 512" version="1.1" xmlns="http://www.w3.org/2000/svg" xmlns:xlink="http://www.w3.org/1999/xlink">
    <defs></defs>
    <g id="Page-1" stroke="none" stroke-width="1" fill="none" fill-rule="evenodd">
        <g id="box-open">
            <g id="Guide" transform="translate(-3.000000, -3.000000)"></g>
            <path d="M118.952877,179.174882 L74.09375,145.328129 L189.501953,92.7441405 L240.546853,121.223651 L118.952877,179.174882 Z" id="Path-83" fill="#979797"></path>
            <path d="M315.97243,176.694128 L271.113303,142.847374 L386.521506,90.2633862 L437.566406,118.742897 L315.97243,176.694128 Z" id="Path-83-Copy" fill="#979797" transform="translate(354.339855, 133.478757) scale(-1, 1) translate(-354.339855, -133.478757) "></path>
            <path d="M394.463568,198.678106 L440.566406,261.195192 L305.525988,348.359112 L257.623149,282.242025 L394.463568,198.678106 Z" id="Path-83-Copy-4" fill="#979797"></path>
            <path d="M120.192682,198.678106 L74.0898438,261.195192 L209.130262,348.359112 L257.033101,282.242025 L120.192682,198.678106 Z" id="Path-83-Copy-5" fill="#979797"></path>
            <path d="M143.31404,189.200169 L255.836848,133.478757 L374.866699,189.648806 L278.447264,247.087888 L255.836852,236.544919 L235.078124,247.087888 L143.31404,189.200169 Z" id="Path-85" fill="#979797"></path>
            <path d="M139.223671,385.905273 L255.910667,321.529297 L372.597664,385.905273 L372.597664,417.929688 L255.910667,344.097656 L139.223671,417.929688 L139.223671,385.905273 Z" id="Path-85-Copy" fill="#979797" transform="translate(255.910667, 369.729492) scale(1, -1) translate(-255.910667, -369.729492) "></path>
            <path d="M212.820312,374.662109 L255.947266,305.216797 L303.169922,371.654297 L259.283203,406.515625 L212.820312,374.662109 Z" id="Path-88" fill="#979797"></path>
        </g>
    </g>
</svg>