<?xml version="1.0" encoding="UTF-8" standalone="no"?>
<svg width="512px" height="512px" viewBox="0 0 512 512" version="1.1" xmlns="http://www.w3.org/2000/svg" xmlns:xlink="http://www.w3.org/1999/xlink">
    <defs></defs>
    <g id="Page-1" stroke="none" stroke-width="1" fill="none" fill-rule="evenodd">
        <g id="create-library">
            <g id="Guide" transform="translate(-3.000000, -3.000000)"></g>
            <g id="Group" transform="translate(50.000000, 50.000000)" fill="#979797">
                <path d="M22,62.0027628 L22,62.0027628 L22,361.997237 C22,384.093984 39.9075353,402 62.0027628,402 L361.997237,402 C384.093984,402 402,384.092465 402,361.997237 L402,62.0027628 C402,39.9060158 384.092465,22 361.997237,22 L62.0027628,22 C39.9060158,22 22,39.9075353 22,62.0027628 L22,62.0027628 Z M12,62.0027628 C12,34.3869994 34.3808569,12 62.0027628,12 L361.997237,12 C389.613001,12 412,34.3808569 412,62.0027628 L412,361.997237 C412,389.613001 389.619143,412 361.997237,412 L62.0027628,412 C34.3869994,412 12,389.619143 12,361.997237 L12,62.0027628 L12,62.0027628 Z" id="Shape" fill-opacity="0.33"></path>
                <path d="M16,55.9957649 L16,55.9957649 L16,336.004235 C16,358.091299 33.9079129,376 55.9957649,376 L336.004235,376 C358.091299,376 376,358.092087 376,336.004235 L376,55.9957649 C376,33.9087013 358.092087,16 336.004235,16 L55.9957649,16 C33.9087013,16 16,33.9079129 16,55.9957649 L16,55.9957649 Z M6,55.9957649 C6,28.3838664 28.3870529,6 55.9957649,6 L336.004235,6 C363.616134,6 386,28.3870529 386,55.9957649 L386,336.004235 C386,363.616134 363.612947,386 336.004235,386 L55.9957649,386 C28.3838664,386 6,363.612947 6,336.004235 L6,55.9957649 L6,55.9957649 Z" id="Shape" fill-opacity="0.66"></path>
                <path d="M195.323716,164.017264 L195.323716,97.8425822 C195.323716,89.5682531 188.607523,82.844232 180.322679,82.844232 L178.847671,82.844232 C170.560649,82.844232 163.846634,89.5592221 163.846634,97.8425822 L163.846634,164.017264 L92.9097785,164.017264 C87.3828593,164.017264 82.9032449,168.495668 82.9032449,174.020059 L82.9032449,185.491551 C82.9032449,191.017876 87.3833226,195.494346 92.9097785,195.494346 L163.846634,195.494346 L163.846634,261.551002 C163.846634,269.825331 170.562827,276.549352 178.847671,276.549352 L180.322679,276.549352 C188.609701,276.549352 195.323716,269.834362 195.323716,261.551002 L195.323716,195.494346 L266.601831,195.494346 C272.128751,195.494346 276.608365,191.015942 276.608365,185.491551 L276.608365,174.020059 C276.608365,168.493734 272.128287,164.017264 266.601831,164.017264 L195.323716,164.017264 L195.323716,164.017264 Z M50.0091519,0 L309.990848,0 C337.61014,0 360,22.3835942 360,50.0091519 L360,309.990848 C360,337.61014 337.616406,360 309.990848,360 L50.0091519,360 C22.38986,360 0,337.616406 0,309.990848 L0,50.0091519 C0,22.38986 22.3835942,0 50.0091519,0 Z" id="Rectangle-145"></path>
            </g>
        </g>
    </g>
</svg>