<?xml version="1.0" encoding="UTF-8" standalone="no"?>
<svg width="512px" height="512px" viewBox="0 0 512 512" version="1.1" xmlns="http://www.w3.org/2000/svg" xmlns:xlink="http://www.w3.org/1999/xlink">
    <defs></defs>
    <g id="Page-1" stroke="none" stroke-width="1" fill="none" fill-rule="evenodd">
        <g id="edit-keeps">
            <g id="Guide" transform="translate(-3.000000, -3.000000)"></g>
            <g id="Group" transform="translate(74.024217, 73.015625)" fill="#909090">
                <path d="M218.421921,124.878336 C182.377982,164.970128 119.999525,193.324369 116.747785,194.797317 L112.809057,196.546442 L108.916128,194.613198 C105.664388,193.002162 44.2477138,161.932174 8.89076201,123.819655 C6.69240231,121.426116 4.58564094,118.986546 2.61627704,116.546977 C1.97508879,115.810503 1.37969971,115.074029 0.830109782,114.337556 C0.967507264,115.764474 1.15070391,117.191391 1.37969971,118.572279 C2.06668711,123.083182 3.30326444,127.589481 5.04363254,131.920867 C5.0894317,132.151015 5.18103002,132.335134 5.27262834,132.565281 C19.5161672,167.501757 84.5967742,207.225312 113.17545,222.138906 C130.899725,213.623428 203.674591,176.385472 221.582063,133.485874 C221.71946,133.117637 221.856858,132.795429 221.994255,132.427193 C223.734623,128.00835 224.971201,123.497448 225.612389,118.986546 C225.841385,117.835806 225.978782,116.731095 226.11618,115.580355 C225.658188,116.17874 225.154397,116.823155 224.696406,117.421539 C222.727042,119.953168 220.620281,122.438767 218.421921,124.878336" id="Shape"></path>
                <path d="M116.747785,240.826928 L112.809057,242.576054 L108.916128,240.64281 C105.389593,238.893684 33.8055053,202.66838 0.830109782,160.367167 C1.37969971,166.581165 2.891072,172.703103 5.27262834,178.594893 C19.5161672,213.531369 84.5967742,253.254924 113.17545,268.163915 C130.899725,259.653039 203.674591,222.415083 221.582063,179.515486 C224.009418,173.669725 225.474992,167.639846 226.11618,161.609966 C192.179002,206.580897 120.228521,239.215892 116.747785,240.826928" id="Shape"></path>
                <path d="M5.04363254,85.8912555 C5.0894317,86.1214037 5.18103002,86.305522 5.27262834,86.5356701 C6.32600903,89.1593577 7.69998384,91.829075 9.34875362,94.4987931 C10.8601259,97.0304218 12.600494,99.6080796 14.6156571,102.139708 C16.3560252,104.487219 18.3253891,106.876156 20.4779496,109.228268 C45.5758895,137.260302 90.6880625,164.371743 113.17545,176.109294 C127.693784,169.158823 179.034643,142.967974 207.01793,110.148861 C209.078892,107.755321 211.002457,105.315752 212.788624,102.876182 C214.620591,100.298524 216.315159,97.6748357 217.780733,95.0511481 C219.246306,92.5655492 220.528682,90.0339205 221.582063,87.456262 C221.71946,87.0880252 221.856858,86.7658183 221.994255,86.3975808 C223.734623,81.9787387 224.971201,77.4678364 225.612389,72.9569347 C226.436774,67.801618 226.574171,62.6923311 226.070381,57.6290738 C224.055218,35.3967714 210.178072,15.0056534 188.286073,5.79512811 C180.637614,2.57765825 172.576961,0.920592231 164.378912,0.920592231 C147.891214,0.920592231 131.815709,7.68694515 120.228521,19.4244961 L113.679241,26.0527602 L107.17576,19.3784665 C95.5427735,7.36473784 79.3298707,0.506325728 62.6589763,0.506325728 C54.6441233,0.506325728 46.7208685,2.07133252 39.2098062,5.20134612 C23.8670875,11.5074029 11.8677074,23.4290723 5.45582498,38.8029627 C2.93687116,44.7868122 1.42549887,51.0008098 0.875908943,57.3068666 C0.417917339,62.3701238 0.55531482,67.4794107 1.37969971,72.5426682 C2.06668711,77.0535699 3.30326444,81.5644722 5.04363254,85.8912555" id="Shape"></path>
            </g>
            <path d="M395.519055,193.344067 C394.753018,192.544522 393.514776,192.532828 392.73542,193.33645 L228.945904,362.225759 C228.562261,362.621347 228.072763,363.348728 227.849117,363.858299 L199.122319,429.311403 C195.127737,438.412933 199.145263,442.269533 208.079917,437.933029 L275.023926,405.441228 C275.521509,405.199722 276.237746,404.69073 276.631626,404.296414 L439.067538,241.680899 C439.846333,240.901243 439.857561,239.621972 439.090638,238.821504 L395.519055,193.344067 Z" id="Path-90" fill="#909090"></path>
        </g>
    </g>
</svg>