<?xml version="1.0" encoding="UTF-8" standalone="no"?>
<svg width="512px" height="512px" viewBox="0 0 512 512" version="1.1" xmlns="http://www.w3.org/2000/svg" xmlns:xlink="http://www.w3.org/1999/xlink">
    <defs></defs>
    <g id="Page-1" stroke="none" stroke-width="1" fill="none" fill-rule="evenodd">
        <g id="error">
            <g id="Guide" transform="translate(-3.000000, -3.000000)"></g>
            <path d="M256.020115,192.658963 L139.338542,75.9773902 C133.483566,70.1224138 123.979873,70.1149691 118.122765,75.9720771 L75.9720771,118.122765 C70.1162656,123.978576 70.1173478,133.4785 75.9773902,139.338542 L192.658963,256.020115 L76.4975048,372.181572 C70.6425284,378.036549 70.6342048,387.539363 76.4902287,393.395387 L119.604613,436.509771 C125.45209,442.357248 134.958385,442.362538 140.818428,436.502495 L256.979885,320.341037 L373.661458,437.02261 C379.516434,442.877586 389.020127,442.885031 394.877235,437.027923 L437.027923,394.877235 C442.883734,389.021424 442.882652,379.5215 437.02261,373.661458 L320.341037,256.979885 L438.502495,138.818428 C444.357472,132.963451 444.365795,123.460637 438.509771,117.604613 L395.395387,74.4902287 C389.54791,68.6427516 380.041615,68.6374624 374.181572,74.4975048 L256.020115,192.658963 Z" id="Rectangle-2" fill="#909090"></path>
        </g>
    </g>
</svg>