<?xml version="1.0" encoding="UTF-8" standalone="no"?>
<svg width="512px" height="512px" viewBox="0 0 512 512" version="1.1" xmlns="http://www.w3.org/2000/svg" xmlns:xlink="http://www.w3.org/1999/xlink">
    <defs></defs>
    <g id="Page-1" stroke="none" stroke-width="1" fill="none" fill-rule="evenodd">
        <g id="followers">
            <g id="Guide" transform="translate(-3.000000, -3.000000)"></g>
            <path d="M234.5,167 L234.5,132 L132.179458,132 L74.0529475,315.500567 L74.0529475,315.500567 L74,315.503906 L74,437 L193,437 L193,315.624557 L234.5,315.624557 L234.5,278 L193,278 L193,167 L234.5,167 Z" id="Path-29" fill="#909090"></path>
            <path d="M278,167 L278,132 L380.320542,132 L438.447052,315.500567 L438.447052,315.500567 L438.5,315.503906 L438.5,437 L319.5,437 L319.5,315.624557 L278,315.624557 L278,278 L323,278 L323,167 L278,167 Z" id="Path-29-Copy" fill="#909090"></path>
            <rect id="Rectangle-14-Copy-2" fill="#909090" transform="translate(306.500000, 88.500000) scale(-1, 1) rotate(-90.000000) translate(-306.500000, -88.500000) " x="291" y="60" width="31" height="57"></rect>
            <rect id="Rectangle-14-Copy-3" fill="#909090" transform="translate(206.500000, 88.500000) scale(-1, 1) rotate(-90.000000) translate(-206.500000, -88.500000) " x="191" y="60" width="31" height="57"></rect>
            <rect id="Rectangle-22" fill="#909090" x="222" y="180" width="74" height="85"></rect>
        </g>
    </g>
</svg>