<?xml version="1.0" encoding="UTF-8" standalone="no"?>
<svg width="512px" height="512px" viewBox="0 0 512 512" version="1.1" xmlns="http://www.w3.org/2000/svg" xmlns:xlink="http://www.w3.org/1999/xlink">
    <defs></defs>
    <g id="Page-1" stroke="none" stroke-width="1" fill="none" fill-rule="evenodd">
        <g id="globe">
            <g id="Guide" transform="translate(-3.000000, -3.000000)"></g>
            <path d="M255.5,414 L255.5,414 C344.141702,414 416,342.141702 416,253.5 C416,164.858298 344.141702,93 255.5,93 C166.858298,93 95,164.858298 95,253.5 C95,342.141702 166.858298,414 255.5,414 L255.5,414 Z M255.5,435 L255.5,435 C155.260318,435 74,353.739682 74,253.5 C74,153.260318 155.260318,72 255.5,72 C355.739682,72 437,153.260318 437,253.5 C437,353.739682 355.739682,435 255.5,435 L255.5,435 Z" id="Shape" fill="#979797"></path>
            <path d="M157.700957,157.023339 C163.8923,161.30615 171.404636,165.99088 176.810547,174.419922 C188.18748,192.159142 194.700855,196.708569 195.345703,215.744141 C195.990551,234.779713 163.689453,254.330078 179.517578,254.330078 C195.345703,254.330078 201.196067,281.152049 220.361328,289.982422 C239.526589,298.812795 255.315775,288.570117 261.720703,292.205078 C268.125631,295.840039 266.980276,307.178125 265.685547,315.705078 C264.390818,324.232032 263.768932,318.713099 256.013672,329.791016 C248.258411,340.868932 237.703278,321.030928 240.412109,351.806641 C241.944127,369.212277 237.963966,383.518237 240.576942,395.211171 C245.479896,395.732586 250.458719,396 255.5,396 C300.539245,396 340.593241,374.655608 366.098541,341.53027 C365.688683,337.585924 365.094352,333.653086 364.361328,329.791016 C359.783531,305.672052 345.308339,300.839102 331.220703,293.275391 C317.133067,285.711679 308.324197,297.375641 299.529297,294.982422 C290.734397,292.589203 282.786208,291.14298 283.705078,280.345703 C284.623948,269.548427 290.634766,269.029297 302.755859,257.068359 C314.876953,245.107422 316.233618,226.185899 317.357422,214.037109 C318.481226,201.888319 309.22976,195.761656 308.978516,189.798828 C308.727271,183.836001 298.613005,203.389687 315.908203,179.642578 C326.57949,164.990407 336.863513,156.326517 343.465806,148.224825 C325.816079,133.868192 304.588592,123.740627 281.327385,119.386178 C273.556176,124.098017 267.547856,128.085937 263.755859,127.384766 C260.188686,126.725166 263.207555,122.620331 266.2544,117.408385 C262.705087,117.137781 259.118634,117 255.5,117 C217.404803,117 182.87613,132.270105 157.700957,157.023339 Z" id="Path-76" fill="#979797"></path>
        </g>
    </g>
</svg>