<?xml version="1.0" encoding="UTF-8" standalone="no"?>
<svg width="512px" height="512px" viewBox="0 0 512 512" version="1.1" xmlns="http://www.w3.org/2000/svg" xmlns:xlink="http://www.w3.org/1999/xlink">
    <defs></defs>
    <g id="Page-1" stroke="none" stroke-width="1" fill="none" fill-rule="evenodd">
        <g id="hearts">
            <g id="Guide" transform="translate(-3.000000, -3.000000)"></g>
            <g id="Group" transform="translate(103.000000, 72.000000)" fill="#909090">
                <path d="M295.374788,169.217627 C246.533091,223.544406 162.006545,261.966102 157.600242,263.962034 L152.26303,266.332203 L146.987879,263.712542 C142.581576,261.529491 59.358303,219.427797 11.4475152,167.783051 C8.46860606,164.539661 5.61381818,161.233898 2.94521212,157.928135 C2.07636364,156.93017 1.26957576,155.932203 0.524848485,154.934238 C0.711030303,156.867797 0.959272727,158.801356 1.26957576,160.672542 C2.20048485,166.785085 3.87612121,172.89139 6.23442424,178.760678 C6.29648485,179.072542 6.42060606,179.322034 6.54472727,179.633898 C25.8455758,226.974915 114.033697,280.802712 152.759515,301.011526 C176.77697,289.472542 275.391273,239.012882 299.65697,180.881356 C299.843152,180.382373 300.029333,179.945762 300.215515,179.44678 C302.573818,173.458983 304.249455,167.346441 305.118303,161.233898 C305.428606,159.674576 305.614788,158.177627 305.80097,156.618305 C305.180364,157.429153 304.497697,158.302373 303.877091,159.11322 C301.208485,162.543729 298.353697,165.911865 295.374788,169.217627" id="Shape"></path>
                <path d="M157.600242,326.334915 L152.26303,328.705085 L146.987879,326.085424 C142.209212,323.715254 45.2084848,274.627797 0.524848485,217.307118 C1.26957576,225.727458 3.31757576,234.023051 6.54472727,242.00678 C25.8455758,289.347797 114.033697,343.175594 152.759515,363.37817 C176.77697,351.845424 275.391273,301.385762 299.65697,243.254238 C302.946182,235.332882 304.932121,227.162034 305.80097,218.991186 C259.814061,279.929491 162.316848,324.151865 157.600242,326.334915" id="Shape"></path>
                <path d="M6.23442424,116.387797 C6.29648485,116.699661 6.42060606,116.949153 6.54472727,117.261017 C7.97212121,120.816271 9.83393939,124.433898 12.0681212,128.051526 C14.1161212,131.482034 16.4744242,134.974915 19.2050909,138.405424 C21.5633939,141.586441 24.232,144.823594 27.1488485,148.010847 C61.1580606,185.995932 122.287758,222.733559 152.759515,238.638644 C172.432727,229.220339 242.002667,193.73017 279.921697,149.258305 C282.714424,146.014915 285.32097,142.709153 287.741333,139.40339 C290.223758,135.910509 292.52,132.355254 294.505939,128.8 C296.491879,125.431865 298.229576,122.001356 299.65697,118.508474 C299.843152,118.009491 300.029333,117.572882 300.215515,117.073898 C302.573818,111.086102 304.249455,104.973559 305.118303,98.8610172 C306.235394,91.8752542 306.421576,84.9518644 305.738909,78.0908474 C303.008242,47.9647458 284.203879,20.3335594 254.538909,7.85274576 C244.174788,3.49288135 233.252121,1.24745762 222.143273,1.24745762 C199.801455,1.24745762 178.018182,10.4162712 162.316848,26.3213559 L153.442182,35.3030509 L144.629576,26.258983 C128.866182,9.97966097 106.896727,0.686101695 84.3066667,0.686101695 C73.4460606,0.686101695 62.7095758,2.80677966 52.5316364,7.04813559 C31.7413333,15.5932203 15.4814545,31.7477966 6.7929697,52.580339 C3.37963636,60.6888135 1.33163636,69.1091526 0.586909091,77.6542373 C-0.0336969697,84.5152542 0.152484848,91.4386441 1.26957576,98.2996613 C2.20048485,104.412203 3.87612121,110.524746 6.23442424,116.387797" id="Shape"></path>
            </g>
        </g>
    </g>
</svg>