<?xml version="1.0" encoding="UTF-8" standalone="no"?>
<svg width="512px" height="512px" viewBox="0 0 512 512" version="1.1" xmlns="http://www.w3.org/2000/svg" xmlns:xlink="http://www.w3.org/1999/xlink">
    <defs></defs>
    <g id="Page-1" stroke="none" stroke-width="1" fill="none" fill-rule="evenodd">
        <g id="hearts-empty">
            <g id="Guide" transform="translate(-3.000000, -3.000000)"></g>
            <g id="Group" transform="translate(102.000000, 72.000000)">
                <path d="M295.374788,169.217627 C246.533091,223.544406 162.006545,261.966102 157.600242,263.962034 L152.26303,266.332203 L146.987879,263.712542 C142.581576,261.529491 59.358303,219.427797 11.4475152,167.783051 C8.46860606,164.539661 5.61381818,161.233898 2.94521212,157.928135 C2.07636364,156.93017 1.26957576,155.932203 0.524848485,154.934238 C0.711030303,156.867797 0.959272727,158.801356 1.26957576,160.672542 C2.20048485,166.785085 3.87612121,172.89139 6.23442424,178.760678 C6.29648485,179.072542 6.42060606,179.322034 6.54472727,179.633898 C25.8455758,226.974915 114.033697,280.802712 152.759515,301.011526 C176.77697,289.472542 275.391273,239.012882 299.65697,180.881356 C299.843152,180.382373 300.029333,179.945762 300.215515,179.44678 C302.573818,173.458983 304.249455,167.346441 305.118303,161.233898 C305.428606,159.674576 305.614788,158.177627 305.80097,156.618305 C305.180364,157.429153 304.497697,158.302373 303.877091,159.11322 C301.208485,162.543729 298.353697,165.911865 295.374788,169.217627" id="Shape" fill="#909090"></path>
                <path d="M157.600242,326.334915 L152.26303,328.705085 L146.987879,326.085424 C142.209212,323.715254 45.2084848,274.627797 0.524848485,217.307118 C1.26957576,225.727458 3.31757576,234.023051 6.54472727,242.00678 C25.8455758,289.347797 114.033697,343.175594 152.759515,363.37817 C176.77697,351.845424 275.391273,301.385762 299.65697,243.254238 C302.946182,235.332882 304.932121,227.162034 305.80097,218.991186 C259.814061,279.929491 162.316848,324.151865 157.600242,326.334915" id="Shape" fill="#909090"></path>
                <path d="M30.7726513,108.016368 L30.7726513,108.016368 L30.7447165,107.946486 C31.6054403,110.090317 32.8087275,112.437863 34.3386899,114.915206 L34.4374733,115.075158 L34.5338401,115.236577 C36.1496121,117.943081 37.8865562,120.476034 39.7649689,122.835864 L40.0323282,123.171745 L40.2879978,123.516607 C42.1566523,126.037158 44.2823632,128.609592 46.5915332,131.132833 L46.683509,131.233335 L46.774384,131.334834 C72.6400945,160.224395 121.816598,193.765007 165.327539,216.476045 L153.759515,238.638644 L142.964381,216.089474 C158.741621,208.536317 177.939498,198.148731 197.101186,185.986357 C224.320019,168.709923 246.844743,150.692609 261.898134,133.037823 L261.976922,132.945871 C264.255201,130.299946 266.455838,127.522144 268.569976,124.634628 L288.741333,139.40339 L268.363586,124.920731 C270.452079,121.982128 272.232495,119.200019 273.680209,116.608303 L273.822492,116.353585 L273.970681,116.102258 C275.414973,113.652752 276.594547,111.303094 277.514786,109.051237 L300.65697,118.508474 L277.234316,109.76895 C277.394963,109.338403 277.50326,109.061762 277.708318,108.546538 C277.750924,108.439468 277.750924,108.439468 277.778106,108.370829 C277.796635,108.323929 277.800197,108.314713 277.792856,108.334389 L277.871826,108.12274 L277.954609,107.912553 C279.650809,103.605854 280.79282,99.3829746 281.367093,95.3428326 L281.397652,95.1278494 L281.431939,94.9134294 C282.199161,90.1155867 282.337938,85.3519574 281.861749,80.5661084 L281.840978,80.3476263 C279.866197,58.5608393 266.205925,39.4631568 245.844994,30.8967907 C238.499056,27.8065823 230.868185,26.2474576 223.143273,26.2474576 C207.534251,26.2474576 192.144889,32.7046987 181.100156,43.8927526 L172.225489,52.8744475 L154.317825,70.9980775 L136.536875,52.7501132 L127.669601,43.6497657 C116.627607,32.2463726 101.143945,25.6861017 85.3066667,25.6861017 C77.688843,25.6861017 70.2254105,27.1753487 63.1480794,30.1246176 L63.0355175,30.1712029 C48.360638,36.2027691 36.9937092,47.5125382 30.8346276,62.2799266 C28.4666462,67.9051366 27.0195623,73.7772733 26.4852585,79.9063913 C26.0389268,84.8407437 26.1905009,89.6502316 26.9446542,94.2821366 L26.9652788,94.4088099 L26.9846017,94.5356884 C27.6246887,98.7386324 28.7895807,102.983982 30.428452,107.058431 L31.2985744,109.221669 L31.7536515,111.508504 C31.4681331,110.073728 31.1005257,108.88504 30.681721,107.802695 C30.6056909,107.606205 30.5656805,107.508211 30.5282601,107.418435 C30.5905979,107.566862 30.677598,107.777539 30.7726513,108.016368 L30.7726513,108.016368 Z M139.494803,20.5337889 L154.442182,35.3030509 L169.295193,20.8301676 C184.316155,8.3249316 203.514141,1.24745762 223.143273,1.24745762 C234.252121,1.24745762 245.174788,3.49288135 255.538909,7.85274576 C285.203879,20.3335594 304.008242,47.9647458 306.738909,78.0908474 C307.421576,84.9518644 307.235394,91.8752542 306.118303,98.8610172 C305.249455,104.973559 303.573818,111.086102 301.215515,117.073898 C301.029333,117.572882 300.843152,118.009491 300.65697,118.508474 C299.229576,122.001356 297.491879,125.431865 295.505939,128.8 C293.52,132.355254 291.223758,135.910509 288.741333,139.40339 C286.32097,142.709153 283.714424,146.014915 280.921697,149.258305 C243.002667,193.73017 173.432727,229.220339 153.759515,238.638644 C123.287758,222.733559 62.1580606,185.995932 28.1488485,148.010847 C25.232,144.823594 22.5633939,141.586441 20.2050909,138.405424 C17.4744242,134.974915 15.1161212,131.482034 13.0681212,128.051526 C10.8339394,124.433898 8.97212121,120.816271 7.54472727,117.261017 C7.42060606,116.949153 7.29648485,116.699661 7.23442424,116.387797 C4.87612121,110.524746 3.20048485,104.412203 2.26957576,98.2996613 C1.15248485,91.4386441 0.96630303,84.5152542 1.58690909,77.6542373 C2.33163636,69.1091526 4.37963636,60.6888135 7.7929697,52.580339 C16.4814545,31.7477966 32.7413333,15.5932203 53.5316364,7.04813559 C63.7095758,2.80677966 74.4460606,0.686101695 85.3066667,0.686101695 C105.097674,0.686101695 124.412341,7.81927989 139.494803,20.5337889 L139.494803,20.5337889 Z" id="Shape" fill="#979797"></path>
            </g>
        </g>
    </g>
</svg>