<?xml version="1.0" encoding="UTF-8" standalone="no"?>
<svg width="512px" height="512px" viewBox="0 0 512 512" version="1.1" xmlns="http://www.w3.org/2000/svg" xmlns:xlink="http://www.w3.org/1999/xlink">
    <defs></defs>
    <g id="Page-1" stroke="none" stroke-width="1" fill="none" fill-rule="evenodd">
        <g id="image">
            <g id="Guide" transform="translate(-3.000000, -3.000000)"></g>
            <path d="M109,84.9967631 L109,84.9967631 L109,423.003237 C109,411.949359 100.048615,403 89.0050359,403 L422.994964,403 C411.95948,403 403,411.958904 403,423.003237 L403,84.9967631 C403,96.0506409 411.951385,105 422.994964,105 L89.0050359,105 C100.04052,105 109,96.0410962 109,84.9967631 L109,84.9967631 Z M74,84.9967631 C74,76.7142795 80.7074036,70 89.0050359,70 L422.994964,70 C431.282017,70 438,76.7213387 438,84.9967631 L438,423.003237 C438,431.28572 431.292596,438 422.994964,438 L89.0050359,438 C80.7179834,438 74,431.278661 74,423.003237 L74,84.9967631 L74,84.9967631 Z" id="Shape" fill="#909090"></path>
            <path d="M140.4375,370.796875 L140.4375,214.65625 L174.390625,172.242187 L256,256 L290.347656,222.224609 L376.398438,302.324219 L376.398438,373.171875 L140.4375,370.796875 Z" id="Path-23" fill="#909090"></path>
            <path d="M339.020928,213.892201 C365.200261,213.892201 384.398438,194.139633 384.398438,169 C384.398438,143.860367 365.200261,124.107799 339.020928,124.107799 C312.841596,124.107799 293.643419,143.860367 293.643419,169 C293.643419,194.139633 312.841596,213.892201 339.020928,213.892201 L339.020928,213.892201 Z" id="Path-Copy" fill="#909090"></path>
        </g>
    </g>
</svg>