<?xml version="1.0" encoding="UTF-8" standalone="no"?>
<svg width="512px" height="512px" viewBox="0 0 512 512" version="1.1" xmlns="http://www.w3.org/2000/svg" xmlns:xlink="http://www.w3.org/1999/xlink">
    <defs></defs>
    <g id="Page-1" stroke="none" stroke-width="1" fill="none" fill-rule="evenodd">
        <g id="import-bookmarks">
            <g id="Guide" transform="translate(-3.000000, -3.000000)"></g>
            <g id="Group-3" transform="translate(69.000000, 66.000000)" fill="#909090">
                <g id="Group" transform="translate(169.904532, 0.000000)">
                    <path d="M0.849566056,182.138664 C0.849566056,172.193033 0.849566056,156.069814 0.849566056,146.129221 L0.849566056,18.0052286 C0.849566056,8.06121543 8.90625478,0 18.8495661,0 L18.8495661,0 C28.7906916,0 36.8495661,8.06522387 36.8495661,17.9916072 L36.8495661,300.224197 C36.8495661,310.160687 28.7928773,318.215804 18.8495661,318.215804 L18.8495661,318.215804 C8.90844056,318.215804 0.849566056,310.162329 0.849566056,300.221112 L0.849566056,182.138664 Z" id="Rectangle-1"></path>
                </g>
                <g id="Group-2" transform="translate(0.000000, 196.883344)">
                    <rect id="Rectangle-1" x="0" y="51" width="36" height="128.20406" rx="18"></rect>
                    <path d="M335.606557,129.544171 C335.606557,119.604806 335.606557,103.4824 335.606557,93.5498923 L335.606557,68.9902102 C335.606557,59.0544915 343.663246,51 353.606557,51 L353.606557,51 C363.547683,51 371.606557,59.0683047 371.606557,68.9950256 L371.606557,161.209034 C371.606557,171.147413 363.549869,179.20406 353.606557,179.20406 L353.606557,179.20406 C343.665432,179.20406 335.606557,171.140833 335.606557,161.204034 L335.606557,129.544171 Z" id="Rectangle-1"></path>
                    <path d="M209.520578,78.473867 C209.520578,68.5293261 209.520578,52.4178384 209.520578,42.4673559 L209.520578,9.68662366 C209.520578,-0.255798168 217.577267,-8.31572356 227.520578,-8.31572356 L227.520578,-8.31572356 C237.461704,-8.31572356 245.520578,-0.251755061 245.520578,9.68906884 L245.520578,119.322702 C245.520578,129.266474 237.46389,137.327494 227.520578,137.327494 L227.520578,137.327494 C217.579453,137.327494 209.520578,129.268412 209.520578,119.327825 L209.520578,78.473867 Z" id="Rectangle-1" transform="translate(227.520578, 64.505885) rotate(-315.000000) translate(-227.520578, -64.505885) "></path>
                    <path d="M132.261779,78.5501229 C132.261779,68.606676 132.261779,52.4891332 132.261779,42.5390158 L132.261779,9.85595726 C132.261779,-0.0832550581 140.318468,-8.14057863 150.261779,-8.14057863 L150.261779,-8.14057863 C160.202905,-8.14057863 168.261779,-0.0879713602 168.261779,9.85711353 L168.261779,119.299752 C168.261779,129.239603 160.205091,137.297444 150.261779,137.297444 L150.261779,137.297444 C140.320654,137.297444 132.261779,129.234196 132.261779,119.302124 L132.261779,78.5501229 Z" id="Rectangle-1" transform="translate(150.261779, 64.578433) scale(-1, 1) rotate(-315.000000) translate(-150.261779, -64.578433) "></path>
                    <path d="M167.89797,169.307694 C167.89797,159.370843 167.89797,143.257787 167.89797,133.321042 L167.89797,-5.90416843 C167.89797,-15.8418706 175.954659,-23.89797 185.89797,-23.89797 L185.89797,-23.89797 C195.839096,-23.89797 203.89797,-15.8475911 203.89797,-5.89418417 L203.89797,329.098244 C203.89797,339.04146 195.841281,347.10203 185.89797,347.10203 L185.89797,347.10203 C175.956845,347.10203 167.89797,339.05137 167.89797,329.096738 L167.89797,169.307694 Z" id="Rectangle-1" transform="translate(185.897970, 161.602030) rotate(-270.000000) translate(-185.897970, -161.602030) "></path>
                </g>
                <path d="M265.426313,195.728836 L318.065615,144.669144 L370.704918,195.728836 L370.704918,17.0198945 C370.704918,0 353.158484,0 353.158484,0 L282.972747,0 C282.972747,0 265.426313,0 265.426313,17.0198945 L265.426313,195.728836 Z" id="common-bookmark-glyph"></path>
            </g>
        </g>
    </g>
</svg>