<?xml version="1.0" encoding="UTF-8" standalone="no"?>
<svg width="512px" height="512px" viewBox="0 0 512 512" version="1.1" xmlns="http://www.w3.org/2000/svg" xmlns:xlink="http://www.w3.org/1999/xlink">
    <defs></defs>
    <g id="Page-1" stroke="none" stroke-width="1" fill="none" fill-rule="evenodd">
        <g id="info">
            <g id="Guide" transform="translate(-3.000000, -3.000000)"></g>
            <path d="M255.5,435 L255.5,435 C155.260318,435 74,353.739682 74,253.5 C74,153.260318 155.260318,72 255.5,72 C355.739682,72 437,153.260318 437,253.5 C437,353.739682 355.739682,435 255.5,435 L255.5,435 Z M286.945725,226.700825 L286.945725,338.051537 C286.945725,347.255122 288.398901,353.582492 291.305296,357.033836 C294.211692,360.485181 300.993179,362.210827 311.649962,362.210827 L311.649962,381.4656 L200.480898,381.4656 L200.480898,362.210827 L204.65882,362.210827 C214.952303,362.210827 221.46132,360.394357 224.186066,356.761363 C226.910811,353.128369 228.273164,346.891823 228.273164,338.051537 L228.273164,283.920196 C228.273164,274.95881 226.880537,268.691989 224.095241,265.119545 C221.309946,261.547101 214.831204,259.760906 204.65882,259.760906 L200.480898,259.760906 L200.480898,240.506133 L286.945725,226.700825 Z M225.730081,163.668692 C225.730081,154.707307 228.939177,146.98731 235.357467,140.50847 C241.775756,134.029631 249.465479,130.79026 258.426864,130.79026 C267.509349,130.79026 275.199071,133.999356 281.496261,140.417646 C287.793451,146.835936 290.941999,154.586207 290.941999,163.668692 C290.941999,172.751177 287.763177,180.501448 281.405437,186.919738 C275.047697,193.338028 267.38825,196.547124 258.426864,196.547124 C249.102179,196.547124 241.321634,193.247204 235.084994,186.647265 C228.848354,180.047326 225.730081,172.387878 225.730081,163.668692 Z" id="Path" fill="#979797"></path>
        </g>
    </g>
</svg>