<?xml version="1.0" encoding="UTF-8" standalone="no"?>
<svg width="512px" height="512px" viewBox="0 0 512 512" version="1.1" xmlns="http://www.w3.org/2000/svg" xmlns:xlink="http://www.w3.org/1999/xlink">
    <defs></defs>
    <g id="Page-1" stroke="none" stroke-width="1" fill="none" fill-rule="evenodd">
        <g id="invite-friend">
            <g id="Guide" transform="translate(-3.000000, -3.000000)"></g>
            <g id="Group" transform="translate(256.000000, 255.500000) scale(-1, 1) translate(-256.000000, -255.500000) translate(106.000000, 66.000000)" fill="#909090">
                <path d="M65.484375,324.389279 L65.484375,326.329214 L67.4253332,326.329214 L65.484375,324.389279 Z M217.2,326.329214 L299.315625,326.329214 L299.315625,252.620264 C297.088661,178.911315 219.144911,144.224751 181.286518,144.224751 C171.18265,144.224751 158.814986,146.428515 145.966683,150.905478 L145.966682,182.303797 L145.966683,230.249566 L192,230.249564 L217.2,230.249564 L217.2,255.436273 L217.2,305.166356 L217.2,326.329214 Z" id="Shape-Copy"></path>
                <path d="M182.4,107.943038 C213.815199,107.943038 236.853011,84.2524574 236.853011,54.1008094 C236.853011,23.9491614 213.815199,0.258580822 182.4,0.258580822 C150.984801,0.258580822 127.946989,23.9491614 127.946989,54.1008094 C127.946989,84.2524574 150.984801,107.943038 182.4,107.943038 L182.4,107.943038 Z" id="Path-Copy-2"></path>
                <path d="M120.766682,255.436273 L120.766682,182.303797 L71.4513076,182.303797 L71.4513076,255.436273 L0.217989377,255.436273 L0.217989377,305.166356 L71.4513076,305.166356 L71.4513076,378.298831 L120.766682,378.298831 L120.766682,305.166356 L192,305.166356 L192,255.436273 L120.766682,255.436273 Z" id="Path-Copy"></path>
            </g>
        </g>
    </g>
</svg>