<?xml version="1.0" encoding="UTF-8" standalone="no"?>
<svg width="512px" height="512px" viewBox="0 0 512 512" version="1.1" xmlns="http://www.w3.org/2000/svg" xmlns:xlink="http://www.w3.org/1999/xlink">
    <defs></defs>
    <g id="Page-1" stroke="none" stroke-width="1" fill="none" fill-rule="evenodd">
        <g id="kifi">
            <g id="Guide" transform="translate(-3.000000, -3.000000)"></g>
            <g id="Fill-76-+-Fill-77" transform="translate(71.000000, 71.000000)" fill="#909090">
                <path d="M200.28867,208.29582 C192.329033,209.148024 184.270313,210.262694 176.178565,211.114897 C177.59875,219.520284 178.12719,218.651879 179.283154,232.627373 C182.02444,265.594375 179.580402,291.785871 172.776729,308.622567 C154.215251,354.661014 120.461105,338.841778 120.461105,338.841778 C84.9564989,321.765299 108.240915,259.54146 108.240915,259.54146 C108.240915,259.54146 92.1895302,266.712285 69.4665825,268.319483 C25.8702292,271.404266 4.83168593,229.435659 44.993175,207.803292 C33.5326185,203.979716 23.3931636,198.322119 23.3931636,198.322119 C-10.8894233,214.121913 -14.2582324,289.592175 67.7821779,290.071742 C71.4152073,290.091184 74.8830991,289.650501 78.0867705,289.274624 C77.7564951,292.314043 77.5253023,295.612687 77.4592472,299.066867 C76.9638341,320.546939 83.0739291,338.122428 95.0629262,349.897746 C99.323479,354.061555 104.310638,357.525456 109.925319,360.195478 C124.55652,367.152442 139.881299,368.74992 153.389563,362.914106 C218.453817,334.830264 204.84647,240.187036 200.28867,208.29582" id="Fill-76"></path>
                <path d="M295.474081,297.040923 C295.474081,293.463612 295.044723,290.054796 294.648393,286.918168 C297.752981,287.238959 301.12179,287.475503 304.62271,287.55003 C326.519969,288.013396 344.453923,282.035008 356.442921,270.26293 C360.703473,266.099121 364.204393,261.193278 366.945678,255.681496 C374.013572,241.323644 375.664949,226.304767 369.719992,213.032422 C341.41539,149.940177 246.890569,162.263109 213.334588,166.864362 L213.235505,166.877323 C212.90523,166.922687 212.541927,166.968052 212.244679,167.013416 C208.545595,167.492983 198.207975,168.727545 196.12724,169.032135 C194.541918,160.44205 191.701549,147.147023 190.644668,134.244074 C187.870354,101.277072 190.34742,75.0823356 197.118066,58.2456398 C215.712571,12.2104326 249.43369,28.026428 249.43369,28.026428 C284.938296,45.1061477 261.686907,107.329987 261.686907,107.329987 C261.686907,107.329987 277.672237,99.1643838 300.428212,98.5519636 C342.703464,97.4081311 362.22274,134.380167 326.387859,159.029271 C333.653918,160.892454 339.499792,164.333673 346.072273,168.095683 L347.228237,168.542847 C376.19339,150.248008 383.624586,79.0744082 302.145644,76.7997045 C298.512615,76.6992546 295.011695,77.2209459 291.808024,77.5935825 C292.138299,74.557404 292.40252,71.2587596 292.468575,67.8045799 C292.93096,46.3245075 286.853893,28.7490191 274.831868,16.9737011 C270.604343,12.8098916 265.584157,9.34599094 259.969475,6.67596837 C245.338275,-0.280995791 230.310744,-1.2206882 216.505232,3.95734101 C205.672199,8.02070061 195.863019,15.7683025 187.705217,26.4775557 L187.374941,26.8987971 C187.143749,27.1969064 186.945583,27.5144577 186.714391,27.8190476 C182.057507,34.3288478 177.99512,42.1120932 176.508881,45.3102877 C175.914385,46.5999346 175.319889,47.905783 174.758421,49.2407943 C159.565752,85.5485648 167.558417,144.862598 172.08319,172.214128 C138.064824,176.598279 88.7216783,179.232658 59.3932224,170.276417 C11.206041,155.55889 28.0831141,120.307463 28.0831141,120.307463 C45.4886279,85.4805181 108.901505,108.308563 108.901505,108.308563 C108.901505,108.308563 100.578565,92.6092192 99.951042,70.276943 C98.7950781,28.8073448 139.385925,5.11413478 161.448322,44.5164097 C163.36392,37.4103908 171.290529,24.3713486 171.290529,24.3713486 C155.140062,-10.0926807 80.1014902,-11.3499243 77.7895624,68.6049386 C77.6904798,72.1822504 78.2189204,75.5910656 78.5822234,78.7276941 C75.5106621,78.4069025 72.141853,78.014824 68.6079062,78.0958319 C-5.40681182,79.8391234 -2.92974629,139.577638 3.54365162,152.61344 C24.4831122,194.81211 66.2629508,200.942793 110.651965,199.228664 C209.503393,195.408329 268.853883,172.878393 313.804366,191.400054 C366.11999,212.948174 360.538336,271.977059 294.186007,264.384992 C277.771319,262.502367 264.362138,257.337299 264.362138,257.337299 C264.362138,257.337299 271.661224,273.085248 273.279574,295.368919 C276.450218,338.137885 233.646525,358.781955 211.617156,319.37968 C207.719906,330.646268 201.940087,340.574605 201.940087,340.574605 C218.057526,374.225314 294.978668,377.520718 295.474081,297.040923" id="Fill-77"></path>
            </g>
        </g>
    </g>
</svg>