<?xml version="1.0" encoding="UTF-8" standalone="no"?>
<svg width="512px" height="512px" viewBox="0 0 512 512" version="1.1" xmlns="http://www.w3.org/2000/svg" xmlns:xlink="http://www.w3.org/1999/xlink">
    <defs></defs>
    <g id="Page-1" stroke="none" stroke-width="1" fill="none" fill-rule="evenodd">
        <g id="kifi-tutorial">
            <g id="Guide" transform="translate(-3.000000, -3.000000)"></g>
            <g id="Oval" transform="translate(9.000000, 8.000000)" stroke-width="10" stroke="#71C885">
                <circle id="Oval-37" cx="246.5" cy="246.5" r="246.5"></circle>
            </g>
            <g id="Screen" transform="translate(113.000000, 138.000000)" stroke="#71C885" stroke-width="10">
                <g id="Path-25-+-Path-25-Copy" transform="translate(82.000000, 221.000000)">
                    <path d="M33.6752621,0.527622768 L26.782857,43.3847656 C26.782857,43.3847656 24.3096377,52.9533343 17.9915997,54.29262 C11.6735617,55.6319057 4.3982459,55.4405792 2.27652789,57.925582 C0.154809879,60.4105847 -1.17430323,73.9970105 1.5107051,73.9970105 L61.069132,73.9970105" id="Path-25"></path>
                    <path d="M93.4094393,0.527622768 L86.5170342,43.3847656 C86.5170342,43.3847656 84.0438149,52.9533343 77.7257769,54.29262 C71.4077389,55.6319057 64.1324231,55.4405792 62.0107051,57.925582 C59.8889871,60.4105847 58.559874,73.9970105 61.2448823,73.9970105 L120.803309,73.9970105" id="Path-25-Copy" transform="translate(90.273375, 37.262317) scale(-1, 1) translate(-90.273375, -37.262317) "></path>
                </g>
                <path d="M0.714257064,0.838877829 L284.500029,0.838877829 L284.500029,190.978482 L0.714257064,190.978482 L0.714257064,0.838877829 L0.714257064,0.838877829 Z" id="Fill-209-Copy-path" stroke-linecap="round" stroke-linejoin="round"></path>
            </g>
            <path d="M317.514694,232.828432 L220.015113,178.330581 C219.226247,177.888157 218.257169,177.888157 217.471704,178.34056 C216.682839,178.786309 216.2,179.607952 216.2,180.49945 L216.2,289.505134 C216.2,290.396633 216.682839,291.218276 217.471704,291.667351 C217.866136,291.890226 218.308172,292 218.750209,292 C219.188845,292 219.62408,291.893553 220.015113,291.674004 L317.514694,237.162846 C318.31036,236.717097 318.8,235.888801 318.8,234.993976 C318.8,234.09915 318.31036,233.274181 317.514694,232.828432 L317.514694,232.828432 L317.514694,232.828432 Z" id="Fill-125-path" stroke="#71C885" stroke-width="10"></path>
        </g>
    </g>
</svg>