<?xml version="1.0" encoding="UTF-8" standalone="no"?>
<svg width="512px" height="512px" viewBox="0 0 512 512" version="1.1" xmlns="http://www.w3.org/2000/svg" xmlns:xlink="http://www.w3.org/1999/xlink">
    <defs></defs>
    <g id="Page-1" stroke="none" stroke-width="1" fill="none" fill-rule="evenodd">
        <g id="lock">
            <g id="Guide" transform="translate(-3.000000, -3.000000)"></g>
            <g id="lock-black" transform="translate(113.000000, 73.000000)" fill="#909090">
                <path d="M84.1591028,99.7629163 C84.1591028,62.0709984 98.2327383,31.4099316 144.437542,31.4099316 C190.647598,31.4099316 204.721234,62.0709984 204.721234,99.7629163 L204.721234,145 L244.909486,145 L244.909486,99.7629163 C244.909486,44.663425 207.652037,0 144.437542,0 C81.2309252,0 43.9682243,44.663425 43.9682243,99.7629163 L43.9682243,145 L84.161729,145 L84.161729,99.7629163 L84.1591028,99.7629163 Z" id="Shape"></path>
                <path d="M289.024868,323.161376 C289.024868,342.93984 271.501459,357.899442 251.717615,357.899442 L36.8219346,357.899442 C17.0447976,357.899442 0.601300552,342.93984 0.601300552,323.161376 L0.601300552,179.916732 C0.601300552,160.134913 17.0447976,143.280629 36.8219346,143.280629 L251.717615,143.280629 C271.501459,143.280629 289.024868,160.134913 289.024868,179.916732 L289.024868,323.161376 L289.024868,323.161376 Z" id="Shape"></path>
            </g>
        </g>
    </g>
</svg>