<?xml version="1.0" encoding="UTF-8" standalone="no"?>
<svg width="512px" height="512px" viewBox="0 0 512 512" version="1.1" xmlns="http://www.w3.org/2000/svg" xmlns:xlink="http://www.w3.org/1999/xlink">
    <defs></defs>
    <g id="Page-1" stroke="none" stroke-width="1" fill="none" fill-rule="evenodd">
        <g id="lock">
            <g id="Guide" transform="translate(-3.000000, -3.000000)"></g>
            <g id="lock-black" transform="translate(144.000000, 73.000000)">
                <path d="M53.1591028,99.7629163 C53.1591028,62.0709984 67.2327383,31.4099316 113.437542,31.4099316 C159.647598,31.4099316 173.721234,62.0709984 173.721234,99.7629163 L173.721234,145 L213.909486,145 L213.909486,99.7629163 C213.909486,44.663425 176.652037,0 113.437542,0 C50.2309252,0 12.9682243,44.663425 12.9682243,99.7629163 L12.9682243,145 L53.161729,145 L53.161729,99.7629163 L53.1591028,99.7629163 Z" id="Shape" fill="#909090"></path>
                <path d="M226.738318,308.417122 C226.738318,323.904676 213.016589,335.618813 197.524822,335.618813 L29.2504673,335.618813 C13.7639533,335.618813 0.887850467,323.904676 0.887850467,308.417122 L0.887850467,196.249209 C0.887850467,180.759029 13.7639533,167.561259 29.2504673,167.561259 L197.524822,167.561259 C213.016589,167.561259 226.738318,180.759029 226.738318,196.249209 L226.738318,308.417122 L226.738318,308.417122 Z" id="Shape" stroke="#909090" stroke-width="32" stroke-linecap="round" stroke-linejoin="round"></path>
            </g>
        </g>
    </g>
</svg>