<?xml version="1.0" encoding="UTF-8" standalone="no"?>
<svg width="512px" height="512px" viewBox="0 0 512 512" version="1.1" xmlns="http://www.w3.org/2000/svg" xmlns:xlink="http://www.w3.org/1999/xlink">
    <defs></defs>
    <g id="Page-1" stroke="none" stroke-width="1" fill="none" fill-rule="evenodd">
        <g id="money">
            <g id="Guide" transform="translate(-2.000000, -3.000000)"></g>
            <path d="M456.096336,334.053492 L463.067093,334.053492 C467.493094,334.053492 471.075884,330.47255 471.075884,326.055234 L471.075884,124.126594 C471.075884,119.706583 467.490226,116.128336 463.067093,116.128336 L104.968264,116.128336 C100.542263,116.128336 96.959473,119.709278 96.959473,124.126594 L96.959473,130.753153 L448.087544,130.753153 C452.510677,130.753153 456.096336,134.336603 456.096336,138.761751 L456.096336,334.053492 Z" id="Rectangle-106-Copy-4" fill="#909090"></path>
            <path d="M204.456186,181.260112 L104.023359,181.260112 C99.5937673,181.260112 96.0140521,184.845538 96.0140521,189.268385 L96.0140521,322.694917 C96.0140521,327.119881 99.5999409,330.70319 104.023359,330.70319 L205.276171,330.70319 C191.044114,311.832287 182.162131,285.087679 182.162131,255.429622 C182.162131,226.345342 190.703769,200.062872 204.456186,181.260112 Z M307.266322,181.260112 L407.976641,181.260112 C412.400059,181.260112 415.985948,184.843421 415.985948,189.268385 L415.985948,322.694917 C415.985948,327.117764 412.406233,330.70319 407.976641,330.70319 L306.446337,330.70319 C320.678394,311.832287 329.560378,285.087679 329.560378,255.429622 C329.560378,226.345342 321.018739,200.062872 307.266322,181.260112 Z M65.8714318,155.03568 C65.8714318,150.618364 69.4527814,147.037422 73.8794016,147.037422 L438.120598,147.037422 C442.543278,147.037422 446.128568,150.615669 446.128568,155.03568 L446.128568,356.96432 C446.128568,361.381636 442.547219,364.962578 438.120598,364.962578 L73.8794016,364.962578 C69.456722,364.962578 65.8714318,361.384331 65.8714318,356.96432 L65.8714318,155.03568 Z M266.327596,164.841264 L266.327596,182.986853 C273.610556,184.159533 279.566447,186.566576 284.195447,190.208056 C288.824447,193.849536 293.237361,199.435112 297.43432,206.964952 L279.381311,217.056122 C273.949951,207.180922 266.852258,202.243396 258.088018,202.243396 C252.656658,202.243396 248.151165,203.848092 244.571405,207.057532 C240.991646,210.266972 239.201792,214.278712 239.201792,219.092872 C239.201792,223.474991 240.652191,227.116417 243.553031,230.017257 C246.392151,232.856377 252.132024,236.220066 260.772824,240.108426 C268.240944,243.503026 274.412851,246.696988 279.288731,249.690408 C284.164611,252.683828 287.836896,255.569195 290.305696,258.346595 C297.280056,265.876435 300.767184,274.979998 300.767184,285.657558 C300.767184,296.149958 297.619511,305.407819 291.324071,313.431419 C285.090351,321.393298 276.758276,326.762858 266.327596,329.540258 L266.327596,348.704222 L250.126178,348.704222 L250.126178,330.095735 C238.029058,328.120695 228.802056,323.954658 222.444896,317.597498 C216.087736,311.240338 211.397087,301.427005 208.372807,288.157205 L228.740305,283.898547 C231.517705,293.279987 234.912254,299.976506 238.924054,303.988306 C243.121014,307.814946 248.70659,309.728237 255.68095,309.728237 C262.47015,309.728237 268.148304,307.53721 272.715584,303.15509 C277.221144,298.83469 279.47389,293.249114 279.47389,286.398194 C279.47389,280.287914 277.591459,275.381248 273.826539,271.678048 C271.913219,269.888168 269.089571,267.866868 265.355511,265.614088 C261.621451,263.361308 256.853653,260.907975 251.051973,258.254015 C239.078293,252.884375 231.209111,247.946849 227.444191,243.441289 C221.457351,236.71381 218.463976,228.65947 218.463976,219.278031 C218.463976,214.834191 219.173746,210.699013 220.593306,206.872373 C222.012866,203.045733 224.065025,199.574035 226.749845,196.457175 C229.434665,193.340315 232.752065,190.640106 236.702145,188.356466 C240.652225,186.072826 245.126858,184.282973 250.126178,182.986853 L250.126178,164.841264 L266.327596,164.841264 Z" id="Rectangle-106-Copy-2" fill="#909090"></path>
            <ellipse id="Oval" fill="#909090" cx="140.408612" cy="256.512762" rx="25.6670178" ry="25.6670178"></ellipse>
            <ellipse id="Oval-Copy" fill="#909090" cx="371.313896" cy="255.924212" rx="25.6670178" ry="25.6670178"></ellipse>
        </g>
    </g>
</svg>