<?xml version="1.0" encoding="UTF-8" standalone="no"?>
<svg width="512px" height="512px" viewBox="0 0 512 512" version="1.1" xmlns="http://www.w3.org/2000/svg" xmlns:xlink="http://www.w3.org/1999/xlink">
    <defs></defs>
    <g id="Page-1" stroke="none" stroke-width="1" fill="none" fill-rule="evenodd">
        <g id="money">
            <g id="Guide" transform="translate(-2.000000, -3.000000)"></g>
            <path d="M456.096336,334.053492 L463.067093,334.053492 C467.493094,334.053492 471.075884,330.47255 471.075884,326.055234 L471.075884,124.126594 C471.075884,119.706583 467.490226,116.128336 463.067093,116.128336 L104.968264,116.128336 C100.542263,116.128336 96.959473,119.709278 96.959473,124.126594 L96.959473,130.753153 L448.087544,130.753153 C452.510677,130.753153 456.096336,134.336603 456.096336,138.761751 L456.096336,334.053492 Z" id="Rectangle-106-Copy-4" fill="#909090"></path>
            <path d="M200.456186,180.260112 L100.023359,180.260112 C95.5937673,180.260112 92.0140521,183.845538 92.0140521,188.268385 L92.0140521,321.694917 C92.0140521,326.119881 95.5999409,329.70319 100.023359,329.70319 L201.276171,329.70319 C187.044114,310.832287 178.162131,284.087679 178.162131,254.429622 C178.162131,225.345342 186.703769,199.062872 200.456186,180.260112 L200.456186,180.260112 Z M303.266322,180.260112 L403.976641,180.260112 C408.400059,180.260112 411.985948,183.843421 411.985948,188.268385 L411.985948,321.694917 C411.985948,326.117764 408.406233,329.70319 403.976641,329.70319 L302.446337,329.70319 C316.678394,310.832287 325.560378,284.087679 325.560378,254.429622 C325.560378,225.345342 317.018739,199.062872 303.266322,180.260112 L303.266322,180.260112 Z M61.8714318,154.03568 C61.8714318,149.618364 65.4527814,146.037422 69.8794016,146.037422 L434.120598,146.037422 C438.543278,146.037422 442.128568,149.615669 442.128568,154.03568 L442.128568,355.96432 C442.128568,360.381636 438.547219,363.962578 434.120598,363.962578 L69.8794016,363.962578 C65.456722,363.962578 61.8714318,360.384331 61.8714318,355.96432 L61.8714318,154.03568 Z M262.327596,163.841264 L262.327596,181.986853 C269.610556,183.159533 275.566447,185.566576 280.195447,189.208056 C284.824447,192.849536 289.237361,198.435112 293.43432,205.964952 L275.381311,216.056122 C269.949951,206.180922 262.852258,201.243396 254.088018,201.243396 C248.656658,201.243396 244.151165,202.848092 240.571405,206.057532 C236.991646,209.266972 235.201792,213.278712 235.201792,218.092872 C235.201792,222.474991 236.652191,226.116417 239.553031,229.017257 C242.392151,231.856377 248.132024,235.220066 256.772824,239.108426 C264.240944,242.503026 270.412851,245.696988 275.288731,248.690408 C280.164611,251.683828 283.836896,254.569195 286.305696,257.346595 C293.280056,264.876435 296.767184,273.979998 296.767184,284.657558 C296.767184,295.149958 293.619511,304.407819 287.324071,312.431419 C281.090351,320.393298 272.758276,325.762858 262.327596,328.540258 L262.327596,347.704222 L246.126178,347.704222 L246.126178,329.095735 C234.029058,327.120695 224.802056,322.954658 218.444896,316.597498 C212.087736,310.240338 207.397087,300.427005 204.372807,287.157205 L224.740305,282.898547 C227.517705,292.279987 230.912254,298.976506 234.924054,302.988306 C239.121014,306.814946 244.70659,308.728237 251.68095,308.728237 C258.47015,308.728237 264.148304,306.53721 268.715584,302.15509 C273.221144,297.83469 275.47389,292.249114 275.47389,285.398194 C275.47389,279.287914 273.591459,274.381248 269.826539,270.678048 C267.913219,268.888168 265.089571,266.866868 261.355511,264.614088 C257.621451,262.361308 252.853653,259.907975 247.051973,257.254015 C235.078293,251.884375 227.209111,246.946849 223.444191,242.441289 C217.457351,235.71381 214.463976,227.65947 214.463976,218.278031 C214.463976,213.834191 215.173746,209.699013 216.593306,205.872373 C218.012866,202.045733 220.065025,198.574035 222.749845,195.457175 C225.434665,192.340315 228.752065,189.640106 232.702145,187.356466 C236.652225,185.072826 241.126858,183.282973 246.126178,181.986853 L246.126178,163.841264 L262.327596,163.841264 Z" id="Rectangle-106-Copy-2" fill="#909090"></path>
            <ellipse id="Oval" fill="#909090" cx="136.408612" cy="255.512762" rx="25.6670178" ry="25.6670178"></ellipse>
            <ellipse id="Oval-Copy" fill="#909090" cx="367.313896" cy="254.924212" rx="25.6670178" ry="25.6670178"></ellipse>
        </g>
    </g>
</svg>