<?xml version="1.0" encoding="UTF-8" standalone="no"?>
<svg width="512px" height="512px" viewBox="0 0 512 512" version="1.1" xmlns="http://www.w3.org/2000/svg" xmlns:xlink="http://www.w3.org/1999/xlink">
    <defs></defs>
    <g id="Page-1" stroke="none" stroke-width="1" fill="none" fill-rule="evenodd">
        <g id="more">
            <g id="Guide" transform="translate(-3.000000, -3.000000)"></g>
            <g id="Oval-2-+-Oval-2-Copy-+-Oval-2-Copy-2" transform="translate(10.000000, 184.000000)" fill="#909090">
                <path d="M67.5,135 C104.779221,135 135,104.779221 135,67.5 C135,30.2207794 104.779221,0 67.5,0 C30.2207794,0 0,30.2207794 0,67.5 C0,104.779221 30.2207794,135 67.5,135 Z" id="Oval-2"></path>
                <path d="M245.5,135 C282.779221,135 313,104.779221 313,67.5 C313,30.2207794 282.779221,0 245.5,0 C208.220779,0 178,30.2207794 178,67.5 C178,104.779221 208.220779,135 245.5,135 Z" id="Oval-2-Copy"></path>
                <path d="M424.668656,135 C461.947877,135 492.168656,104.779221 492.168656,67.5 C492.168656,30.2207794 461.947877,0 424.668656,0 C387.389436,0 357.168656,30.2207794 357.168656,67.5 C357.168656,104.779221 387.389436,135 424.668656,135 Z" id="Oval-2-Copy-2"></path>
            </g>
        </g>
    </g>
</svg>