<?xml version="1.0" encoding="UTF-8" standalone="no"?>
<svg width="512px" height="512px" viewBox="0 0 512 512" version="1.1" xmlns="http://www.w3.org/2000/svg" xmlns:xlink="http://www.w3.org/1999/xlink">
    <defs></defs>
    <g id="Page-1" stroke="none" stroke-width="1" fill="none" fill-rule="evenodd">
        <g id="org">
            <g id="Guide" transform="translate(-3.000000, -3.000000)"></g>
            <path d="M163,437.668837 L432.037991,435.181363 C435.348137,435.150759 438.035786,432.43663 438.035785,429.119236 L438.03578,398.418848 C438.03578,395.100291 436.132381,390.520531 433.78442,388.187071 L387.918411,342.604311 L375.800428,114.561492 L345.849259,114.561492 L327.397874,290.345269 L295.687807,258.635202 L295.687807,83.5705 C295.687807,79.1466965 292.106045,75.5720229 287.687718,75.5720229 L83.0290369,75.5720229 C78.6068569,75.5720229 75.0289475,79.1550196 75.0289475,83.5748701 L75.0289475,432.486001 C75.0289475,435.795266 77.7142521,438.457372 81.0267431,438.426745 L108.689804,438.170978 L108.689804,321.281351 L163,321.281351 L163,437.668837 L163,437.668837 Z M212.483758,321.281351 L266.793955,321.281351 L266.793955,375 L212.483758,375 L212.483758,321.281351 Z M212.483758,217.281351 L266.793955,217.281351 L266.793955,271 L212.483758,271 L212.483758,217.281351 Z M108.689804,217.281351 L163,217.281351 L163,271 L108.689804,271 L108.689804,217.281351 Z M212.483758,116.709289 L266.793955,116.709289 L266.793955,170.427938 L212.483758,170.427938 L212.483758,116.709289 Z M108.689804,116.709289 L163,116.709289 L163,170.427938 L108.689804,170.427938 L108.689804,116.709289 Z" id="Path-115" fill="#909090"></path>
        </g>
    </g>
</svg>