<?xml version="1.0" encoding="UTF-8" standalone="no"?>
<svg width="512px" height="512px" viewBox="0 0 512 512" version="1.1" xmlns="http://www.w3.org/2000/svg" xmlns:xlink="http://www.w3.org/1999/xlink">
    <defs></defs>
    <g id="Page-1" stroke="none" stroke-width="1" fill="none" fill-rule="evenodd">
        <g id="owner">
            <g id="Guide" transform="translate(-3.000000, -3.000000)"></g>
            <ellipse id="Oval-173" fill="#909090" cx="256.5" cy="166" rx="45" ry="45"></ellipse>
            <path d="M145.821894,346.265952 C147.488096,287.461458 195.68116,240.303004 254.888672,240.303004 C315.149194,240.303004 364,289.15381 364,349.414332 C364,349.481575 363.999939,349.548803 363.999818,349.616017 L363.999831,349.616017 L148.628198,349.616017 C148.628198,349.616017 148.628198,349.616017 148.628198,349.616017 L364,349.616017 L364,350.044635 C337.875468,380.041179 299.401769,399 256.5,399 C213.394248,399 174.758773,379.860465 148.628198,349.616017 Z" id="Oval-172" fill="#909090"></path>
            <path d="M256.5,438.5 C357.015824,438.5 438.5,357.015824 438.5,256.5 C438.5,155.984176 357.015824,74.5 256.5,74.5 C155.984176,74.5 74.5,155.984176 74.5,256.5 C74.5,357.015824 155.984176,438.5 256.5,438.5 L256.5,438.5 Z M256.5,417.5 C167.582155,417.5 95.5,345.417845 95.5,256.5 C95.5,167.582155 167.582155,95.5 256.5,95.5 C345.417845,95.5 417.5,167.582155 417.5,256.5 C417.5,345.417845 345.417845,417.5 256.5,417.5 L256.5,417.5 Z" id="Shape" fill="#979797"></path>
        </g>
    </g>
</svg>