<?xml version="1.0" encoding="UTF-8" standalone="no"?>
<svg width="512px" height="512px" viewBox="0 0 512 512" version="1.1" xmlns="http://www.w3.org/2000/svg" xmlns:xlink="http://www.w3.org/1999/xlink">
    <defs></defs>
    <g id="Page-1" stroke="none" stroke-width="1" fill="none" fill-rule="evenodd">
        <g id="plus-slim">
            <g id="Guide" transform="translate(-3.000000, -3.000000)"></g>
            <path d="M255.56317,210.608376 L147.640107,102.685313 C141.783053,96.8282582 132.2898,96.8286359 126.434307,102.684129 L101.676983,127.441453 C95.8202954,133.298141 95.8220197,142.791107 101.678167,148.647254 L209.601229,256.570316 L98.4810588,367.690487 C94.5743212,371.597224 94.5745656,377.926127 98.4782648,381.829826 L130.30366,413.655222 C134.212783,417.564344 140.537757,417.55767 144.443,413.652428 L255.56317,302.532257 L363.313895,410.282982 C369.17095,416.140037 378.664202,416.139659 384.519695,410.284166 L409.277019,385.526842 C415.133707,379.670154 415.131983,370.177188 409.275836,364.321041 L301.525111,256.570316 L413.143579,144.951849 C417.050316,141.045111 417.050072,134.716208 413.146373,130.812509 L381.320977,98.9871137 C377.411855,95.0779914 371.08688,95.0846654 367.181638,98.9899077 L255.56317,210.608376 Z" id="Rectangle-2" fill="#909090" transform="translate(255.812319, 256.321168) rotate(-315.000000) translate(-255.812319, -256.321168) "></path>
        </g>
    </g>
</svg>