<?xml version="1.0" encoding="UTF-8" standalone="no"?>
<svg width="512px" height="512px" viewBox="0 0 512 512" version="1.1" xmlns="http://www.w3.org/2000/svg" xmlns:xlink="http://www.w3.org/1999/xlink">
    <defs></defs>
    <g id="Page-1" stroke="none" stroke-width="1" fill="none" fill-rule="evenodd">
        <g id="premium">
            <g id="Guide" transform="translate(-3.000000, -3.000000)"></g>
            <path d="M329.89584,357.657762 C307.619305,369.715449 282.109155,376.561599 255,376.561599 C227.890845,376.561599 202.380695,369.715449 180.10416,357.657762 L255,318.282689 L329.89584,357.657762 Z M363.72495,333.039367 C393.815823,304.343252 412.56558,263.859256 412.56558,218.996019 C412.56558,209.307259 411.691098,199.822745 410.016757,190.617099 L349.427235,249.677287 L363.72495,333.039367 Z M397.102587,150.840036 C374.565732,103.936828 329.491321,69.912916 275.917777,62.8067224 L313.35924,138.671415 L397.102587,150.840036 Z M234.082223,62.8067224 C180.508679,69.912916 135.434268,103.936828 112.897413,150.840036 L196.64076,138.671415 L234.082229,62.8067123 Z M99.9832431,190.617099 C98.3089019,199.822745 97.43442,209.307259 97.43442,218.996019 C97.43442,263.859256 116.184177,304.343252 146.27505,333.039367 L160.572765,249.677287 L99.9832431,190.617099 Z M255,280.841959 L182.295737,319.064852 L196.181016,238.107465 L137.362031,180.773126 L218.647868,168.961602 L255,95.3041382 L291.352132,168.961602 L372.637969,180.773126 L313.818984,238.107465 L327.704263,319.064852 L255,280.841959 Z" id="Star-1" fill="#909090"></path>
            <path d="M80.0759525,294.943224 L76.4714838,415.222849 L179.338275,412.140198 L253.616513,488.414383 L326.955765,413.104415 L436.141522,420.602829 L427.589344,296.073015 C397.782143,362.177333 331.307063,408.190014 254.085146,408.190014 C176.424046,408.190014 109.632371,361.652469 80.0759422,294.943201 Z" id="Triangle-1" fill="#909090"></path>
        </g>
    </g>
</svg>