<?xml version="1.0" encoding="UTF-8" standalone="no"?>
<svg width="512px" height="512px" viewBox="0 0 512 512" version="1.1" xmlns="http://www.w3.org/2000/svg" xmlns:xlink="http://www.w3.org/1999/xlink">
    <defs></defs>
    <g id="Page-1" stroke="none" stroke-width="1" fill="none" fill-rule="evenodd">
        <g id="share">
            <g id="Guide" transform="translate(-3.000000, -3.000000)"></g>
            <path d="M300.942664,339.589727 L300.942664,339.589727 L398.753081,229.858797 L300.942664,119.997078 L300.942664,190.753256 C300.942664,190.753256 269.020472,190.360893 262.365225,190.622469 C172.155331,193.499799 109.511701,298.653158 109.102933,347.829356 C136.669196,311.601146 209.097701,269.095125 262.365225,269.095125 C270.732186,269.095125 300.942664,269.3567 300.942664,269.3567 L300.942664,339.589727 Z M275.942664,339.589727 L275.942664,339.589727 L275.942664,269.3567 L300.726212,294.355763 C300.66816,294.35526 300.66816,294.35526 300.386871,294.352843 C300.00032,294.349531 300.00032,294.349531 299.415962,294.34456 C298.364681,294.335634 297.179094,294.325686 295.88464,294.314973 C292.186164,294.284363 288.35717,294.253753 284.601429,294.225189 C283.166538,294.214277 281.766993,294.203854 280.409584,294.193991 C271.787936,294.13134 265.424035,294.095125 262.365225,294.095125 C241.865048,294.095125 214.784023,302.472565 187.926994,316.90006 C162.52965,330.543419 140.336384,348.067095 128.998301,362.967861 C114.439514,382.10135 83.9039541,371.663368 84.103797,347.621556 C84.3715287,315.41248 103.550555,271.46579 132.754789,235.977972 C167.417664,193.857032 212.267584,167.207667 261.568231,165.635176 L262.365225,190.622469 L261.383391,165.641756 C264.551922,165.517221 271.286217,165.506593 281.207718,165.56897 C284.230706,165.587976 287.431152,165.613514 290.722669,165.643975 C293.347314,165.668264 295.880916,165.694281 298.229814,165.720305 C299.052518,165.72942 299.79369,165.737889 300.441588,165.745496 C300.831786,165.750077 301.103162,165.753341 301.249922,165.755145 L275.942664,190.753256 L275.942664,119.997078 C275.942664,97.0188687 304.335302,86.2111623 319.614764,103.373219 L417.42518,213.234937 C425.866134,222.715909 425.861904,237.017724 417.415341,246.4937 L319.604925,356.224631 C304.320152,373.372215 275.942664,362.560664 275.942664,339.589727 L275.942664,339.589727 Z" id="Shape" fill="#909090"></path>
        </g>
    </g>
</svg>