<?xml version="1.0" encoding="UTF-8" standalone="no"?>
<svg width="512px" height="512px" viewBox="0 0 512 512" version="1.1" xmlns="http://www.w3.org/2000/svg" xmlns:xlink="http://www.w3.org/1999/xlink">
    <defs></defs>
    <g id="Page-1" stroke="none" stroke-width="1" fill="none" fill-rule="evenodd">
        <g id="team">
            <g id="Guide" transform="translate(-3.000000, -3.000000)"></g>
            <path d="M337.846154,326.769231 C337.846154,338.664615 328.203077,348.307692 316.307692,348.307692 L193.230769,348.307692 C181.335385,348.307692 171.692308,338.664615 171.692308,326.769231 L171.692308,216 C171.692308,204.104615 181.335385,194.461538 193.230769,194.461538 L199.384615,194.461538 L199.384615,56 L310.153846,56 L310.153846,194.461538 L316.307692,194.461538 C328.203077,194.461538 337.846154,204.104615 337.846154,216 L337.846154,326.769231 Z M144,216 L144,326.769231 C144,334.498462 145.84,341.790769 149.030769,348.307692 L85.5384615,348.307692 C73.6430769,348.307692 64,338.664615 64,326.769231 L64,216 C64,204.104615 73.6430769,194.461538 85.5384615,194.461538 L91.6923077,194.461538 L91.6923077,56 L171.692308,56 L171.692308,171.735385 C155.310769,179.738462 144,196.575385 144,216 L144,216 Z M254.769231,363.692308 C280.258462,363.692308 300.923077,384.356923 300.923077,409.846154 C300.923077,435.335385 280.258462,456 254.769231,456 C229.28,456 208.615385,435.335385 208.615385,409.846154 C208.615385,384.356923 229.28,363.692308 254.769231,363.692308 L254.769231,363.692308 Z M368.615385,363.692308 C394.104615,363.692308 414.769231,384.356923 414.769231,409.846154 C414.769231,435.335385 394.104615,456 368.615385,456 C343.126154,456 322.461538,435.335385 322.461538,409.846154 C322.461538,384.356923 343.126154,363.692308 368.615385,363.692308 L368.615385,363.692308 Z M140.923077,363.692308 C166.412308,363.692308 187.076923,384.356923 187.076923,409.846154 C187.076923,435.335385 166.412308,456 140.923077,456 C115.433846,456 94.7692308,435.335385 94.7692308,409.846154 C94.7692308,384.356923 115.433846,363.692308 140.923077,363.692308 L140.923077,363.692308 Z M427.076923,348.307692 L360.507692,348.307692 C363.695385,341.790769 365.538462,334.498462 365.538462,326.769231 L365.538462,216 C365.538462,196.575385 354.227692,179.738462 337.846154,171.735385 L337.846154,56 L420.923077,56 L420.923077,194.461538 L427.076923,194.461538 C438.972308,194.461538 448.615385,204.104615 448.615385,216 L448.615385,326.769231 C448.615385,338.664615 438.972308,348.307692 427.076923,348.307692 L427.076923,348.307692 Z" id="path22" fill="#909090" transform="translate(256.307692, 256.000000) scale(1, -1) translate(-256.307692, -256.000000) "></path>
        </g>
    </g>
</svg>