<?xml version="1.0" encoding="UTF-8" standalone="no"?>
<svg width="18px" height="15px" viewBox="0 0 18 15" version="1.1" xmlns="http://www.w3.org/2000/svg" xmlns:xlink="http://www.w3.org/1999/xlink" xmlns:sketch="http://www.bohemiancoding.com/sketch/ns">
    <!-- Generator: Sketch 3.2.2 (9983) - http://www.bohemiancoding.com/sketch -->
    <title>twitter icon</title>
    <desc>Created with Sketch.</desc>
    <defs></defs>
    <g id="Page-1" stroke="none" stroke-width="1" fill="none" fill-rule="evenodd" sketch:type="MSPage">
        <g id="Library---Public" sketch:type="MSArtboardGroup" transform="translate(-298.000000, -782.000000)" fill="#FFFFFF">
            <g id="CTA-BAR" sketch:type="MSLayerGroup" transform="translate(-1.000000, 613.000000)">
                <g id="Social-mini-bar-vertical" transform="translate(282.000000, 104.000000)" sketch:type="MSShapeGroup">
                    <g id="Twitter-button" transform="translate(0.000000, 51.000000)">
                        <path d="M25.7400271,17.9902349 L25.7790451,18.6390272 L25.1287455,18.5595832 C22.7616548,18.255048 20.6937019,17.2222766 18.9378929,15.4877503 L18.0794974,14.6271074 L17.8583955,15.2626591 C17.3901798,16.6794096 17.6893176,18.1756041 18.6647671,19.1818942 C19.1850068,19.7380019 19.0679528,19.8174458 18.1705393,19.4864294 C17.8583955,19.3805041 17.5852697,19.3010601 17.5592577,19.3407821 C17.4682157,19.4334667 17.7803596,20.6383667 18.0274734,21.1150304 C18.3656292,21.7770634 19.0549469,22.4258557 19.8092944,22.8098348 L20.4465881,23.11437 L19.6922405,23.1276106 C18.9639049,23.1276106 18.9378929,23.1408513 19.0159289,23.4189051 C19.2760487,24.279548 20.3035222,25.1931535 21.4480495,25.5903732 L22.2544211,25.8684271 L21.5520975,26.2921282 C20.511618,26.9011985 19.2890547,27.2454556 18.0664914,27.271937 C17.4812217,27.2851776 17,27.3381403 17,27.3778622 C17,27.5102688 18.5867311,28.2517457 19.5101566,28.5430402 C22.280433,29.4036831 25.5709492,29.0329446 28.0420878,27.5632315 C29.7978968,26.5172194 31.5537059,24.4384359 32.3730834,22.4258557 C32.8152872,21.3533623 33.2574909,19.3937447 33.2574909,18.4536579 C33.2574909,17.8445876 33.2965089,17.7651437 34.0248445,17.0369074 C34.4540422,16.6132063 34.857228,16.1497832 34.935264,16.0173766 C35.0653239,15.7658041 35.0523179,15.7658041 34.3890123,15.9908953 C33.2835029,16.3881151 33.127431,16.3351525 33.6736827,15.7393228 C34.0768684,15.3156217 34.5580902,14.5476635 34.5580902,14.3225723 C34.5580902,14.2828503 34.3630003,14.3490536 34.1418984,14.4682195 C33.9077905,14.6006261 33.3875508,14.799236 32.9973711,14.9184019 L32.2950474,15.1434931 L31.6577538,14.7065514 C31.306592,14.4682195 30.8123643,14.2034063 30.5522444,14.1239624 C29.8889388,13.9385931 28.8744714,13.9650745 28.2761957,14.176925 C26.6504466,14.7727547 25.6229732,16.3086711 25.7400271,17.9902349 Z" id="twitter-icon"></path>
                    </g>
                </g>
            </g>
        </g>
    </g>
</svg>