<?xml version="1.0" encoding="iso-8859-1"?>
<!-- Generator: Adobe Illustrator 16.0.0, SVG Export Plug-In . SVG Version: 6.00 Build 0)  -->
<!DOCTYPE svg PUBLIC "-//W3C//DTD SVG 1.1//EN" "http://www.w3.org/Graphics/SVG/1.1/DTD/svg11.dtd">
<svg version="1.1" id="Layer_1" xmlns="http://www.w3.org/2000/svg" xmlns:xlink="http://www.w3.org/1999/xlink" x="0px" y="0px"
	 width="189.012px" height="39.99px" viewBox="0 0 189.012 39.99" style="enable-background:new 0 0 189.012 39.99;"
	 xml:space="preserve">
<path style="fill:#93C059;" d="M25.911,35.364c0,0.344,0.274,0.623,0.614,0.623h7.18c0.339,0,0.614-0.278,0.614-0.622V13.288
	c-1.159,0.923-2.618,1.476-4.203,1.476c-1.588,0-3.046-0.553-4.2-1.476C25.911,13.288,25.911,31.716,25.911,35.364"/>
<path style="fill:#6FA6EF;" d="M51.324,0.63C36.831,0.97,36.848,13.288,36.848,13.288v22.077c0,0.343,0.275,0.622,0.615,0.622h6.77
	c0.341,0,0.616-0.278,0.616-0.622V20h5.981c0.34,0,0.614-0.279,0.614-0.623v-5.814c0-0.344-0.274-0.623-0.614-0.623h-5.994
	c-0.006-1.381,0.396-6.453,6.593-6.767c0.34-0.018,0.61-0.294,0.604-0.638l-0.081-4.29C51.945,0.902,51.664,0.623,51.324,0.63"/>
<path style="fill:#93C059;" d="M15.993,24.638L23.9,13.789c0.201-0.277,0.089-0.501-0.25-0.501h-9.22
	c-0.34,0-0.779,0.224-0.979,0.501l-5.041,6.916V0.623C8.409,0.278,8.133,0,7.793,0H0.615C0.275,0,0,0.278,0,0.623v34.742
	c0,0.343,0.274,0.622,0.615,0.622h7.178c0.34,0,0.615-0.278,0.615-0.622v-6.796l5.041,6.918c0.201,0.277,0.641,0.5,0.979,0.5h9.219
	c0.34,0,0.452-0.223,0.25-0.5L15.993,24.638z"/>
<path style="fill:#93C059;" d="M34.057,7.892c0,2.204-1.765,3.99-3.94,3.99c-2.178,0-3.942-1.787-3.942-3.99s1.765-3.99,3.942-3.99
	C32.292,3.901,34.057,5.688,34.057,7.892"/>
<path style="fill:#6FA6EF;" d="M53.599,35.364c0,0.344,0.275,0.623,0.616,0.623h7.178c0.34,0,0.616-0.278,0.616-0.622V13.288
	c-1.16,0.923-2.618,1.476-4.205,1.476c-1.586,0-3.044-0.553-4.2-1.476C53.599,13.288,53.599,31.716,53.599,35.364"/>
<path style="fill:#6FA6EF;" d="M61.745,7.892c0,2.204-1.766,3.99-3.942,3.99s-3.941-1.787-3.941-3.99s1.765-3.99,3.941-3.99
	C59.98,3.901,61.745,5.688,61.745,7.892"/>
<path style="fill:#686868;" d="M73.996,23.071v12.582h1.518v-4.695l4.566,4.695h2.118l-4.817-4.822l4.42-4.074H79.78l-4.265,4.035
	v-7.721H73.996L73.996,23.071z"/>
<path style="fill:#686868;" d="M92.159,31.435h-7.013v0.135c0,0.953,0.271,1.724,0.813,2.311c0.541,0.586,1.248,0.879,2.118,0.879
	c0.594,0,1.128-0.16,1.604-0.48c0.479-0.322,0.9-0.807,1.268-1.455l1.15,0.777c-0.444,0.805-1.012,1.409-1.703,1.818
	c-0.689,0.408-1.488,0.613-2.397,0.613c-1.349,0-2.438-0.447-3.27-1.342c-0.832-0.896-1.247-2.067-1.247-3.521
	c0-1.394,0.412-2.534,1.237-3.423c0.826-0.887,1.887-1.332,3.182-1.332c1.31,0,2.347,0.421,3.11,1.264
	c0.764,0.844,1.146,1.994,1.146,3.452V31.435z M90.534,30.198c-0.052-0.784-0.312-1.389-0.778-1.813
	c-0.468-0.424-1.108-0.637-1.92-0.637c-0.735,0-1.349,0.224-1.837,0.667c-0.491,0.445-0.774,1.039-0.852,1.784L90.534,30.198
	L90.534,30.198z"/>
<path style="fill:#686868;" d="M102.577,31.435h-7.013v0.135c0,0.953,0.271,1.724,0.813,2.311c0.542,0.586,1.248,0.879,2.118,0.879
	c0.593,0,1.128-0.16,1.604-0.48c0.479-0.322,0.9-0.807,1.269-1.455l1.149,0.777c-0.444,0.805-1.012,1.409-1.702,1.818
	c-0.689,0.408-1.488,0.613-2.397,0.613c-1.349,0-2.438-0.447-3.27-1.342c-0.832-0.896-1.248-2.067-1.248-3.521
	c0-1.394,0.413-2.534,1.237-3.423c0.826-0.887,1.887-1.332,3.183-1.332c1.311,0,2.347,0.421,3.11,1.264
	c0.764,0.844,1.146,1.994,1.146,3.452V31.435z M100.952,30.198c-0.053-0.784-0.312-1.389-0.778-1.813
	c-0.468-0.424-1.108-0.637-1.92-0.637c-0.735,0-1.348,0.224-1.838,0.667c-0.49,0.445-0.774,1.039-0.852,1.784L100.952,30.198
	L100.952,30.198z"/>
<path style="fill:#686868;" d="M104.253,39.99V26.757h1.44v1.672c0.343-0.642,0.793-1.135,1.355-1.478
	c0.56-0.345,1.186-0.517,1.876-0.517c1.276,0,2.301,0.438,3.076,1.313c0.772,0.875,1.16,2.036,1.16,3.481
	c0,1.472-0.378,2.64-1.137,3.504c-0.758,0.865-1.771,1.299-3.042,1.299c-0.729,0-1.363-0.167-1.904-0.5
	c-0.541-0.334-0.983-0.832-1.325-1.493v5.951H104.253z M105.713,31.229c0,0.998,0.273,1.799,0.823,2.401
	c0.547,0.603,1.272,0.904,2.176,0.904c0.883,0,1.578-0.275,2.084-0.825c0.506-0.552,0.759-1.316,0.759-2.296
	c0-1.097-0.253-1.955-0.759-2.577s-1.21-0.934-2.114-0.934c-0.921,0-1.646,0.296-2.175,0.885
	C105.978,29.378,105.713,30.192,105.713,31.229"/>
<path style="fill:#686868;" d="M118.529,24.127c0-0.303,0.108-0.563,0.324-0.78c0.217-0.218,0.479-0.326,0.789-0.326
	c0.303,0,0.563,0.109,0.778,0.33s0.324,0.486,0.324,0.797c0,0.306-0.106,0.564-0.319,0.778s-0.474,0.321-0.783,0.321
	c-0.309,0-0.572-0.107-0.789-0.321C118.637,24.712,118.529,24.444,118.529,24.127 M118.888,26.758h1.528v8.896h-1.528V26.758z"/>
<path style="fill:#686868;" d="M124.072,28.011h-1.625v-1.254h1.625v-3.588h1.549v3.588h1.625v1.254h-1.625v7.643h-1.549V28.011z"/>
<path style="fill:#686868;" d="M146.676,35.763V30.61h-1.702v-1.256h1.702v-2.576c0-1.478,0.186-2.478,0.556-2.998
	c0.37-0.522,1.036-0.783,1.997-0.783c0.238,0,0.465,0.016,0.683,0.048c0.216,0.032,0.423,0.083,0.624,0.155v1.574
	c-0.193-0.11-0.389-0.19-0.584-0.242c-0.197-0.053-0.399-0.078-0.605-0.078c-0.445,0-0.75,0.143-0.918,0.428s-0.252,0.985-0.252,2.1
	v2.373h2.36v1.256h-2.321v5.152H146.676z"/>
<path style="fill:#686868;" d="M152.237,24.237c0-0.305,0.109-0.565,0.324-0.782c0.216-0.218,0.479-0.326,0.789-0.326
	c0.303,0,0.563,0.11,0.779,0.331c0.216,0.221,0.323,0.486,0.323,0.797c0,0.305-0.106,0.564-0.319,0.778
	c-0.212,0.213-0.474,0.321-0.783,0.321s-0.572-0.108-0.789-0.321C152.346,24.821,152.237,24.556,152.237,24.237 M152.595,26.866
	h1.528v8.896h-1.528V26.866z"/>
<path style="fill:#686868;" d="M156.22,35.763v-8.896h1.48v1.371c0.38-0.57,0.838-0.994,1.373-1.273
	c0.534-0.277,1.153-0.417,1.856-0.417c1.044,0,1.86,0.278,2.447,0.835c0.587,0.559,0.881,1.333,0.881,2.323v6.058h-1.548v-5.24
	c0-0.901-0.188-1.571-0.566-2.008c-0.377-0.438-0.958-0.658-1.746-0.658c-0.449,0-0.861,0.084-1.231,0.25s-0.68,0.399-0.923,0.705
	c-0.188,0.231-0.321,0.498-0.401,0.795c-0.081,0.3-0.121,0.817-0.121,1.557v4.6H156.22L156.22,35.763z"/>
<path style="fill:#686868;" d="M174.89,23.181v12.582h-1.47v-1.613c-0.349,0.642-0.8,1.134-1.354,1.477
	c-0.555,0.344-1.173,0.516-1.856,0.516c-1.271,0-2.294-0.438-3.07-1.317c-0.777-0.878-1.166-2.04-1.166-3.485
	c0-1.459,0.38-2.622,1.143-3.49c0.76-0.869,1.772-1.303,3.036-1.303c0.735,0,1.374,0.166,1.915,0.5
	c0.542,0.333,0.98,0.831,1.316,1.492v-5.357H174.89z M173.419,31.358c0-0.992-0.274-1.791-0.822-2.396s-1.27-0.908-2.167-0.908
	c-0.896,0-1.595,0.274-2.099,0.825c-0.503,0.552-0.754,1.313-0.754,2.285c0,1.095,0.254,1.953,0.765,2.571
	c0.509,0.621,1.212,0.929,2.107,0.929c0.929,0,1.655-0.292,2.181-0.875C173.157,33.205,173.419,32.396,173.419,31.358"/>
<path style="fill:#686868;" d="M180.298,24.237c0-0.305,0.106-0.565,0.323-0.782c0.217-0.218,0.479-0.326,0.789-0.326
	c0.303,0,0.563,0.11,0.778,0.331s0.323,0.486,0.323,0.797c0,0.305-0.105,0.564-0.319,0.778c-0.212,0.213-0.474,0.321-0.782,0.321
	c-0.311,0-0.572-0.108-0.789-0.321C180.405,24.821,180.298,24.556,180.298,24.237 M180.655,26.866h1.528v8.896h-1.528V26.866z"/>
<path style="fill:#686868;" d="M185.84,28.121h-1.625v-1.255h1.625V23.28h1.548v3.586h1.624v1.255h-1.624v7.642h-1.548V28.121z"/>
<path style="fill:#686868;" d="M138.32,30.042c0,1.23-1.011,2.229-2.255,2.229s-2.252-0.998-2.252-2.229
	c0-1.232,1.008-2.229,2.252-2.229S138.32,28.812,138.32,30.042"/>
</svg>
