<?xml version="1.0" encoding="utf-8"?>
<svg version="1.1" xmlns="http://www.w3.org/2000/svg" xmlns:xlink="http://www.w3.org/1999/xlink" viewBox="1.214 0.484 57.289 32.517">
<defs>
  <filter id="shadow" height="130%">
    <feGaussianBlur in="SourceAlpha" stdDeviation="2"/>
    <feComponentTransfer><feFuncA type="linear" slope="0.2"/></feComponentTransfer>
    <feMerge><feMergeNode/><feMergeNode in="SourceGraphic"/></feMerge>
  </filter>
</defs>
<g fill="#fff" filter="url(#shadow)">
  <path d="M26.093,29.298c0,0.249,0.204,0.45,0.454,0.45h5.306c0.251,0,0.455-0.202,0.455-0.45V13.34c-0.858,0.667-1.935,1.066-3.107,1.066c-1.173,0-2.25-0.399-3.104-1.066C26.094,13.34,26.093,26.661,26.093,29.298z"/>
  <path d="M44.877,4.192c-10.712,0.245-10.7,9.149-10.7,9.149v15.958c0,0.248,0.203,0.45,0.454,0.45h5.003c0.251,0,0.454-0.202,0.454-0.45V18.193h4.422c0.251,0,0.455-0.202,0.455-0.45V13.54c0-0.249-0.203-0.45-0.455-0.45h-4.43c-0.004-0.998,0.294-4.665,4.873-4.892c0.251-0.012,0.45-0.212,0.446-0.461L45.34,4.636C45.336,4.388,45.128,4.186,44.877,4.192z"/>
  <path d="M18.764,21.545l5.844-7.842c0.149-0.2,0.066-0.362-0.185-0.362h-6.814c-0.251,0-0.576,0.162-0.725,0.362l-3.726,4.999V4.186c0-0.249-0.204-0.45-0.454-0.45H7.397c-0.251,0-0.454,0.202-0.454,0.45v25.113c0,0.248,0.204,0.45,0.454,0.45h5.306c0.251,0,0.454-0.202,0.454-0.45v-4.911l3.726,4.999c0.15,0.199,0.474,0.362,0.726,0.362h6.814c0.251,0,0.334-0.162,0.185-0.362L18.764,21.545z"/>
  <path d="M32.115,9.44c0,1.593-1.304,2.885-2.914,2.885c-1.609,0-2.914-1.292-2.914-2.885s1.305-2.884,2.914-2.884C30.81,6.556,32.115,7.847,32.115,9.44z"/>
  <path d="M46.558,29.298c0,0.249,0.204,0.45,0.455,0.45h5.306c0.251,0,0.455-0.202,0.455-0.45V13.34c-0.858,0.667-1.935,1.066-3.108,1.066s-2.25-0.399-3.105-1.066C46.558,13.34,46.558,26.661,46.558,29.298z"/>
  <path d="M52.58,9.44c0,1.593-1.305,2.885-2.914,2.885s-2.913-1.292-2.913-2.885s1.304-2.884,2.913-2.884C51.275,6.556,52.58,7.847,52.58,9.44z"/>
</g>
</svg>
