<svg xmlns="http://www.w3.org/2000/svg" viewBox="0 0 32 28">
 <path stroke="#000" stroke-opacity=".3" fill="#fff" fill-opacity=".8" shape-rendering="geometricPrecision"
  d="M26.98,4 L29,4 C30.67,4 32,5.34 32,6.99 L32,25.01 C32,26.66 30.66,28 29,28 L3,28 C1.33,28 0,26.66 0,25.01 L0,6.99 C0,5.34 1.34,4 3,4 L5.02,4 L5.26,3 C5.67,1.34 7.34,0 8.99,0 L23.01,0 C24.66,0 26.33,1.34 26.74,3 L26.98,4 Z M16,22 C20.42,22 24,18.42 24,14 C24,9.58 20.42,6 16,6 C11.58,6 8,9.58 8,14 C8,18.42 11.58,22 16,22 Z M16,20.12 C19.38,20.12 22.12,17.38 22.12,14 C22.12,10.62 19.38,7.88 16,7.88 C12.62,7.88 9.88,10.62 9.88,14 C9.88,17.38 12.62,20.12 16,20.12 Z"></path>
</svg>
