<?xml version="1.0" encoding="utf-8"?>
<!-- Generator: Adobe Illustrator 16.0.0, SVG Export Plug-In . SVG Version: 6.00 Build 0)  -->
<!DOCTYPE svg PUBLIC "-//W3C//DTD SVG 1.1//EN" "http://www.w3.org/Graphics/SVG/1.1/DTD/svg11.dtd">
<svg version="1.1" id="Layer_1" xmlns="http://www.w3.org/2000/svg" xmlns:xlink="http://www.w3.org/1999/xlink" x="0px" y="0px"
	 width="62.009px" height="35.987px" viewBox="0 0 62.009 35.987" enable-background="new 0 0 62.009 35.987" xml:space="preserve">
<path fill="#93C059" d="M25.911,35.364c0,0.344,0.273,0.623,0.613,0.623h7.181c0.339,0,0.613-0.278,0.613-0.622V13.288
	c-1.158,0.923-2.617,1.476-4.202,1.476c-1.589,0-3.047-0.553-4.2-1.476C25.911,13.288,25.911,31.716,25.911,35.364"/>
<path fill="#6FA6EF" d="M51.324,0.63C36.831,0.97,36.848,13.288,36.848,13.288v22.077c0,0.343,0.275,0.622,0.615,0.622h6.77
	c0.342,0,0.616-0.278,0.616-0.622V20h5.981c0.34,0,0.613-0.279,0.613-0.623v-5.814c0-0.344-0.273-0.623-0.613-0.623h-5.994
	c-0.006-1.381,0.396-6.453,6.593-6.767c0.34-0.018,0.61-0.294,0.604-0.638l-0.081-4.29C51.945,0.902,51.664,0.623,51.324,0.63"/>
<path fill="#93C059" d="M15.993,24.638L23.9,13.789c0.201-0.277,0.089-0.501-0.25-0.501h-9.22c-0.34,0-0.779,0.224-0.979,0.501
	L8.41,20.705V0.623C8.409,0.278,8.133,0,7.793,0H0.615C0.275,0,0,0.278,0,0.623v34.742c0,0.343,0.273,0.622,0.615,0.622h7.178
	c0.34,0,0.615-0.278,0.615-0.622v-6.796l5.041,6.918c0.2,0.277,0.641,0.5,0.979,0.5h9.219c0.34,0,0.452-0.223,0.25-0.5
	L15.993,24.638z"/>
<path fill="#93C059" d="M34.057,7.892c0,2.204-1.765,3.99-3.939,3.99c-2.179,0-3.942-1.787-3.942-3.99s1.765-3.99,3.942-3.99
	C32.292,3.901,34.057,5.688,34.057,7.892"/>
<path fill="#6FA6EF" d="M53.599,35.364c0,0.344,0.275,0.623,0.616,0.623h7.178c0.34,0,0.616-0.278,0.616-0.622V13.288
	c-1.16,0.923-2.618,1.476-4.205,1.476c-1.586,0-3.044-0.553-4.2-1.476C53.599,13.288,53.599,31.716,53.599,35.364"/>
<path fill="#6FA6EF" d="M61.745,7.892c0,2.204-1.767,3.99-3.942,3.99s-3.941-1.787-3.941-3.99s1.766-3.99,3.941-3.99
	C59.98,3.901,61.745,5.688,61.745,7.892"/>
</svg>
